<svg width="206" height="46" viewBox="0 0 206 46" fill="none" xmlns="http://www.w3.org/2000/svg">
<path d="M6.08035 27.2873L9.56083 19.9281H9.58879L9.99415 26.1137C10.0501 26.8455 9.40708 27.0249 8.75012 27.0249V27.2873H12.3424V27.0249C11.322 27.0249 11.2102 27.0249 11.1263 25.7547L10.6791 19.5001C10.6511 19.0307 10.9167 19.0169 11.6016 18.9616V18.7131H9.54685L6.19218 25.6719L2.82352 18.7131H0.712869V18.9616C1.57949 19.0169 1.60745 19.2654 1.55154 20.1766L1.21607 25.5476C1.14618 26.804 1.02038 27.0249 0 27.0249V27.2873H2.90739V27.0249C2.27839 26.9973 1.74723 26.8455 1.78916 26.1413L2.16656 19.9281H2.19452L5.75886 27.2873H6.08035Z" fill="#333A45"/>
<path d="M16.6615 27.0249C15.697 27.0249 15.4733 26.7488 15.4733 25.9342V20.08C15.4733 19.1549 15.7809 18.9616 16.6615 18.9616V18.6993H13.2648V18.9616C14.0476 19.003 14.3132 19.2102 14.3132 19.9557V25.8375C14.3132 26.7626 14.1315 26.9835 13.2648 27.0249V27.2873H16.6615V27.0249Z" fill="#333A45"/>
<path d="M27.1449 27.3839V19.6796C27.1449 19.1411 27.3686 18.9616 28.4169 18.9616V18.6993H25.1461V18.9616C26.2643 18.9892 26.5159 19.1411 26.5159 19.9833V25.4786L19.9324 18.6993H17.7379V18.9616C18.2271 18.9754 18.5905 19.0859 18.912 19.3068V26.0999C18.912 26.735 18.6324 27.0249 17.7658 27.0249H17.7099V27.2873H20.9528V27.0249C19.7646 27.0249 19.541 26.8178 19.541 25.8237V19.9005L26.7815 27.3839H27.1449Z" fill="#333A45"/>
<path d="M32.6868 27.0249C31.7223 27.0249 31.4987 26.7488 31.4987 25.9342V20.08C31.4987 19.1549 31.8062 18.9616 32.6868 18.9616V18.6993H29.2902V18.9616C30.073 19.003 30.3385 19.2102 30.3385 19.9557V25.8375C30.3385 26.7626 30.1568 26.9835 29.2902 27.0249V27.2873H32.6868V27.0249Z" fill="#333A45"/>
<path d="M33.931 25.1886L34.2245 27.2873H34.4621C34.518 27.2044 34.6159 27.1354 34.7417 27.1354C34.9374 27.1354 35.9158 27.5082 36.6846 27.5082C38.32 27.5082 39.5361 26.5003 39.5361 25.1472C39.5361 22.6067 35.0492 22.082 35.0492 20.1214C35.0492 19.3482 35.6922 18.8236 36.6147 18.8236C37.5792 18.8236 38.4737 19.4587 38.8651 20.4528H39.1027L38.8651 18.6993H38.6415C38.5576 18.8097 38.5017 18.8374 38.3899 18.8374C37.9007 18.8374 37.663 18.4922 36.4889 18.4922C35.0632 18.4922 34.0008 19.3482 34.0008 20.4942C34.0008 22.9104 38.4877 23.518 38.4877 25.5062C38.4877 26.5969 37.4953 27.1354 36.5588 27.1354C35.4685 27.1354 34.4901 26.4174 34.1965 25.1886H33.931Z" fill="#333A45"/>
<path d="M45.4799 19.1963H47.912C48.4712 19.1963 48.7228 19.5139 48.9324 20.7289H49.184L48.9604 18.4922H48.6948C48.6669 18.6579 48.4572 18.6993 48.2615 18.6993H41.5382C41.4403 18.6993 41.3425 18.6855 41.2586 18.6579C41.1747 18.6303 41.1188 18.575 41.1048 18.4922H40.8393L40.6156 20.7289H40.8672C41.0769 19.5139 41.3285 19.1963 41.8876 19.1963H44.3197V26.017C44.3197 26.7626 44.0682 27.0249 43.2155 27.0249H42.6983V27.2873H47.1013V27.0249H46.5842C45.7315 27.0249 45.4799 26.7626 45.4799 26.017V19.1963Z" fill="#333A45"/>
<path d="M56.1136 21.5574H55.8481C55.7782 22.3582 55.5406 22.5929 55.0373 22.5929H52.5353V19.1963H55.4846C55.9878 19.1963 56.3373 19.4449 56.519 20.6185H56.7706L56.6588 18.6993H49.9494V18.9616H50.2569C51.1935 18.9616 51.3752 19.293 51.3752 20.0662V25.8928C51.3752 26.7212 51.1795 27.0249 50.0613 27.0249H49.6699V27.2873H57.0921L57.3157 25.23H57.0641C56.7147 26.4174 56.4212 26.7902 55.4427 26.7902H53.2901C52.7729 26.7902 52.5353 26.666 52.5353 26.0308V23.0899H54.8976C55.4707 23.0899 55.7362 23.2004 55.8481 24.1807H56.1136V21.5574Z" fill="#333A45"/>
<path d="M60.7089 23.656C60.9325 23.6698 61.1142 23.6836 61.4217 23.6836C61.7991 23.6836 62.0228 23.6698 62.3722 23.656C62.7077 23.8769 63.1969 24.2773 63.8119 24.8849L64.7345 25.7961C65.9785 27.0249 66.6075 27.5496 69.0536 27.4392V27.1906C67.9773 27.1216 67.1247 26.6107 66.3 25.7961L65.1957 24.7054C64.5388 24.0564 64.1194 23.6698 63.6023 23.2694C64.7485 22.9381 65.4613 22.0682 65.4613 21.0327C65.4613 19.6244 64.3012 18.575 61.7153 18.575C60.8067 18.575 60.5271 18.5888 59.9541 18.6165C59.381 18.6441 58.5283 18.6993 58.1928 18.6993V18.9616H58.5004C59.3111 18.9616 59.5487 19.2102 59.5487 20.0662V25.879C59.5487 26.804 59.2552 27.0249 58.4305 27.0249H58.1928V27.2873H62.1486V27.0249H61.8271C61.0443 27.0249 60.7089 26.8178 60.7089 25.9894V23.656ZM60.7089 18.865C60.9605 18.8374 61.1422 18.8374 61.4077 18.8374C63.5603 18.8374 64.1474 19.8315 64.1474 21.1155C64.1474 22.7724 63.127 23.4213 61.5755 23.4213C61.254 23.4213 61.0443 23.4351 60.7089 23.3937V18.865Z" fill="#333A45"/>
<path d="M73.1597 27.0249C72.1952 27.0249 71.9716 26.7488 71.9716 25.9342V20.08C71.9716 19.1549 72.2791 18.9616 73.1597 18.9616V18.6993H69.7631V18.9616C70.5459 19.003 70.8114 19.2102 70.8114 19.9557V25.8375C70.8114 26.7626 70.6297 26.9835 69.7631 27.0249V27.2873H73.1597V27.0249Z" fill="#333A45"/>
<path d="M84.5517 22.7586C84.5517 20.2733 82.2873 18.4922 79.6455 18.4922C76.6683 18.4922 74.5296 20.439 74.5296 23.1866C74.5296 25.7685 76.836 27.5082 79.5756 27.5082C82.2873 27.5082 84.5517 25.5476 84.5517 22.7586ZM83.2378 23.2142C83.2378 25.1748 82.1476 27.163 79.8692 27.163C77.6187 27.163 75.8436 25.3405 75.8436 22.7586C75.8436 21.1017 76.822 18.8374 79.2821 18.8374C81.5884 18.8374 83.2378 20.6461 83.2378 23.2142Z" fill="#333A45"/>
<g clip-path="url(#clip0_5071_44434)">
<path d="M111.177 0L111.807 1.28048L113.218 1.48004L112.189 2.47781L112.438 3.89133L111.177 3.22615L109.915 3.89133L110.147 2.47781L109.135 1.48004L110.546 1.28048L111.177 0Z" fill="#333A45"/>
<path d="M120.431 2.37793L121.062 3.64178L122.473 3.85797L121.461 4.85574L121.693 6.25263L120.431 5.58745L119.17 6.25263L119.419 4.85574L118.39 3.85797L119.801 3.64178L120.431 2.37793Z" fill="#333A45"/>
<path d="M127.544 8.13086L128.175 9.41134L129.586 9.6109L128.573 10.6087L128.805 12.0222L127.544 11.357L126.282 12.0222L126.531 10.6087L125.519 9.6109L126.913 9.41134L127.544 8.13086Z" fill="#333A45"/>
<path d="M131.611 16.3799L132.242 17.6604L133.653 17.8765L132.64 18.8743L132.873 20.2712L131.611 19.606L130.35 20.2712L130.599 18.8743L129.569 17.8765L130.98 17.6604L131.611 16.3799Z" fill="#333A45"/>
<path d="M131.756 25.959L132.386 27.2395L133.797 27.4557L132.785 28.4368L133.017 29.8503L131.756 29.1851L130.494 29.8503L130.743 28.4368L129.73 27.4557L131.141 27.2395L131.756 25.959Z" fill="#333A45"/>
<path d="M127.56 34.2568L128.191 35.5373L129.602 35.7369L128.573 36.7346L128.822 38.1482L127.56 37.483L126.299 38.1482L126.548 36.7346L125.519 35.7369L126.93 35.5373L127.56 34.2568Z" fill="#333A45"/>
<path d="M120.488 40.0273L121.119 41.3078L122.53 41.5074L121.501 42.5052L121.75 43.902L120.488 43.2535L119.226 43.902L119.459 42.5052L118.446 41.5074L119.857 41.3078L120.488 40.0273Z" fill="#333A45"/>
<path d="M111.177 42.0566L111.807 43.3205L113.202 43.5367L112.189 44.5345L112.438 45.9313L111.177 45.2662L109.915 45.9313L110.147 44.5345L109.135 43.5367L110.546 43.3205L111.177 42.0566Z" fill="#333A45"/>
<path d="M102.059 40.0273L102.69 41.3078L104.101 41.5074L103.072 42.5052L103.321 43.9187L102.059 43.2535L100.798 43.9187L101.03 42.5052L100.018 41.5074L101.429 41.3078L102.059 40.0273Z" fill="#333A45"/>
<path d="M94.9705 34.2568L95.6013 35.5373L97.0123 35.7535L95.9997 36.7513L96.2321 38.1482L94.9705 37.483L93.7089 38.1482L93.9579 36.7513L92.9287 35.7535L94.3397 35.5373L94.9705 34.2568Z" fill="#333A45"/>
<path d="M90.7625 26.0254L91.3933 27.3059L92.8043 27.5054L91.7917 28.5032L92.0241 29.9167L90.7625 29.2515L89.5009 29.9167L89.7499 28.5032L88.7373 27.5054L90.1317 27.3059L90.7625 26.0254Z" fill="#333A45"/>
<path d="M90.7625 16.3799L91.3933 17.6604L92.8043 17.8765L91.7917 18.8743L92.0241 20.2712L90.7625 19.606L89.5009 20.2712L89.7499 18.8743L88.7373 17.8765L90.1317 17.6604L90.7625 16.3799Z" fill="#333A45"/>
<path d="M94.7566 8.14941L95.3874 9.4299L96.7984 9.62945L95.7858 10.6272L96.0182 12.0407L94.7566 11.3756L93.495 12.0407L93.744 10.6272L92.7148 9.62945L94.1258 9.4299L94.7566 8.14941Z" fill="#333A45"/>
<path d="M102.043 2.37793L102.674 3.65841L104.085 3.85797L103.055 4.85574L103.304 6.26926L102.043 5.60408L100.781 6.26926L101.014 4.85574L100.001 3.85797L101.412 3.65841L102.043 2.37793Z" fill="#333A45"/>
<path d="M121.976 26.291H121.959C121.859 26.291 121.776 26.3576 121.776 26.4573C121.776 26.5571 121.859 26.6403 121.959 26.6403H122.009C122.092 26.6403 122.191 26.5571 122.191 26.4573C122.191 26.3576 122.108 26.2744 122.009 26.2744H121.992L121.976 26.291Z" fill="#333A45"/>
<path d="M123.923 23.8301C123.923 23.8301 123.624 23.88 123.491 23.9964C123.425 24.0463 123.342 24.0795 123.242 24.0962C123.292 24.013 123.308 23.8966 123.308 23.7636C123.275 23.4476 123.275 22.9154 123.275 22.9154C123.275 22.9154 123.176 23.2314 123.01 23.3146C122.844 23.3977 122.561 23.4975 122.512 23.5973C122.462 23.697 122.246 23.697 122.163 24.0296C122.08 24.3456 122.08 24.3123 122.03 24.4287C122.03 24.462 121.997 24.4953 121.964 24.5452C122.063 24.0629 122.146 23.564 122.146 23.1483C122.146 23.0817 122.146 22.9986 122.146 22.9321C122.229 22.8656 122.329 22.7492 122.329 22.7492C122.395 22.6327 123.209 22.35 123.325 22.1339C123.441 21.9177 123.508 21.768 123.557 21.6682C123.607 21.5684 123.707 21.2192 123.69 21.0696C123.69 20.9199 123.657 20.3379 123.591 20.2547C123.591 20.2547 123.342 20.3877 123.259 20.5208C123.242 20.554 123.209 20.5873 123.176 20.6206C123.176 20.5374 123.176 20.4709 123.142 20.3877C123.026 20.105 122.86 19.7392 122.86 19.7392C122.86 19.7392 122.711 19.972 122.628 20.1217C122.495 20.4044 122.346 20.421 122.329 20.5208C122.329 20.6372 122.146 20.7037 122.08 20.9199C122.063 21.003 122.047 21.0529 122.03 21.1028C121.964 20.6372 121.897 20.2048 121.798 19.8223C121.831 19.7059 121.881 19.4232 121.997 19.3401C122.163 19.207 122.18 19.0241 122.18 18.8079C122.18 18.5917 122.13 18.4421 122.097 18.309C122.08 18.176 121.665 17.6272 121.698 17.4609C121.698 17.4609 121.499 17.9099 121.416 18.0929C121.217 17.8933 120.918 17.6605 120.752 17.5773C120.652 17.411 120.553 17.2281 120.437 17.0452C120.437 16.9953 120.437 16.8789 120.47 16.7625C120.503 16.5962 120.553 16.3301 120.503 16.2137C120.453 16.0807 120.337 15.9809 120.287 15.8146C120.237 15.6483 120.204 15.5485 120.071 15.4155C119.939 15.2825 119.756 15.0995 119.756 15.0995C119.756 15.0995 119.706 15.3323 119.656 15.5319C119.607 15.4986 119.557 15.482 119.524 15.482C119.49 15.482 119.424 15.4321 119.358 15.3989C119.258 15.2658 119.175 15.1494 119.092 15.0496C119.142 15.0164 119.175 14.9665 119.175 14.9C119.175 14.8002 119.092 14.717 118.992 14.717C118.893 14.717 118.81 14.8002 118.81 14.9C118.81 14.9997 118.893 15.0829 118.992 15.0829C119.026 15.0829 119.059 15.0829 119.092 15.0496C119.109 15.0829 119.192 15.1993 119.291 15.3656C119.208 15.3157 119.125 15.2658 119.092 15.2492C119.026 15.1993 118.992 15.7315 119.142 16.0142H119.059C118.743 15.9144 118.445 15.9476 118.445 15.9476C118.528 15.9476 118.71 16.1472 118.727 16.2636C118.76 16.3634 118.943 16.6128 119.042 16.6627C119.142 16.7126 119.324 16.8456 119.441 16.962C119.557 17.0784 119.872 17.0951 120.105 17.0951C120.204 17.145 120.287 17.1616 120.337 17.145C120.437 17.3113 120.536 17.4942 120.636 17.6605C120.603 17.7935 120.553 18.0263 120.569 18.1095C120.437 18.0929 119.988 17.9765 119.988 17.9765C120.038 18.2425 120.105 18.5086 120.221 18.6416C120.204 18.6583 120.171 18.6915 120.171 18.7248C120.171 18.7747 120.171 18.8412 120.204 18.8911C120.204 18.8911 120.304 19.0407 120.453 19.1073L118.279 20.6372C118.445 18.043 118.146 15.5652 118.063 15.0164C118.328 14.9166 118.262 14.8002 118.262 14.8002L118.162 14.5341C118.162 14.5341 118.212 14.5507 118.245 14.5507C118.295 14.5507 118.345 14.5341 118.362 14.5009C118.428 14.4343 118.411 14.3013 118.328 14.2348C118.328 14.2348 118.262 14.1516 118.162 14.1184L118.478 14.0685L118.66 13.3202L117.93 13.5696V13.8856C117.864 13.7858 117.781 13.7359 117.781 13.7359C117.698 13.6527 117.581 13.6527 117.515 13.7359C117.449 13.8024 117.465 13.9355 117.548 14.002C117.548 14.002 117.664 14.1184 117.814 14.1516L114.162 18.1926L111.738 14.135C111.888 13.1539 111.356 11.6572 111.34 11.6073C111.373 11.4743 111.39 11.3412 111.39 11.2082C111.556 11.1583 111.605 11.0253 111.622 10.9754C111.622 10.9754 111.456 10.7426 111.34 10.6428C111.39 10.6428 111.439 10.6428 111.473 10.6428C111.589 10.6428 111.672 10.5596 111.672 10.4599C111.672 10.3601 111.572 10.2769 111.473 10.2769C111.473 10.2769 111.373 10.2769 111.273 10.2936L111.473 10.0441L111.091 9.3623L110.726 10.0441L110.925 10.2936C110.825 10.2603 110.726 10.2769 110.726 10.2769C110.659 10.2769 110.609 10.2936 110.576 10.3435C110.543 10.3767 110.526 10.41 110.526 10.4599C110.526 10.5097 110.543 10.543 110.576 10.5763C110.609 10.6095 110.676 10.6428 110.726 10.6428H110.742C110.742 10.6428 110.809 10.6428 110.842 10.6428C110.775 10.6927 110.692 10.7925 110.643 10.859C110.626 10.8756 110.609 10.8922 110.593 10.9255V10.9754C110.593 10.9754 110.659 11.0918 110.709 11.125C110.427 11.6406 109.746 13.1372 110.145 14.7004L108.053 18.2093L104.384 14.1683C104.534 14.1516 104.667 14.0352 104.683 14.0186C104.733 13.9853 104.75 13.9188 104.75 13.8689C104.75 13.819 104.75 13.7858 104.716 13.7525C104.683 13.7193 104.65 13.7026 104.6 13.7026C104.55 13.7026 104.484 13.7193 104.451 13.7525C104.451 13.7525 104.368 13.819 104.318 13.9022V13.5862L103.571 13.3368L103.754 14.0851L104.069 14.135C103.969 14.1849 103.903 14.2514 103.903 14.2514C103.853 14.2847 103.837 14.3512 103.837 14.4011C103.837 14.451 103.837 14.4842 103.886 14.5175C103.92 14.5507 103.953 14.5674 104.003 14.5674C104.003 14.5674 104.052 14.5674 104.086 14.5507L103.986 14.8002C103.986 14.8002 103.92 14.9166 104.185 15.0164C104.102 15.5652 103.803 18.043 103.969 20.6372L101.795 19.1073C101.944 19.0574 102.044 18.9077 102.044 18.9077C102.077 18.8578 102.094 18.8079 102.077 18.758C102.077 18.7082 102.06 18.6749 102.027 18.6583C102.143 18.5252 102.21 18.2592 102.26 17.9931C102.26 17.9931 101.811 18.0929 101.679 18.1261C101.679 18.0263 101.645 17.7935 101.612 17.6771C101.712 17.5108 101.811 17.3279 101.911 17.1616C101.961 17.1616 102.044 17.1616 102.143 17.1117C102.376 17.1117 102.708 17.0951 102.807 16.9787C102.907 16.8623 103.09 16.7292 103.206 16.6793C103.305 16.6294 103.488 16.3966 103.521 16.2802C103.538 16.1805 103.737 15.9643 103.803 15.9643C103.803 15.9643 103.521 15.931 103.189 16.0142H103.106C103.272 15.7481 103.222 15.2159 103.156 15.2658C103.123 15.2825 103.04 15.3323 102.957 15.3822C103.056 15.2159 103.123 15.1162 103.156 15.0663C103.189 15.0829 103.222 15.0995 103.256 15.0995C103.355 15.0995 103.438 15.0164 103.438 14.9166C103.438 14.8168 103.355 14.7337 103.256 14.7337C103.156 14.7337 103.073 14.8168 103.073 14.9166C103.073 14.9831 103.106 15.033 103.156 15.0663C103.073 15.166 102.99 15.2825 102.89 15.4155C102.824 15.4487 102.741 15.482 102.724 15.4986C102.691 15.4986 102.641 15.5319 102.592 15.5485C102.542 15.3656 102.492 15.1162 102.492 15.1162C102.492 15.1162 102.309 15.2991 102.177 15.4321C102.044 15.5652 102.011 15.6649 101.961 15.8312C101.911 15.9975 101.795 16.0973 101.745 16.2303C101.695 16.3634 101.745 16.6295 101.778 16.7791C101.795 16.8955 101.811 17.0119 101.811 17.0618C101.712 17.2447 101.596 17.411 101.496 17.594C101.33 17.6771 101.031 17.9099 100.832 18.1095C100.749 17.9266 100.566 17.4776 100.566 17.4776C100.6 17.6439 100.201 18.1926 100.168 18.3257C100.135 18.4587 100.085 18.6084 100.085 18.8246C100.085 19.0407 100.102 19.2237 100.268 19.3567C100.384 19.4399 100.417 19.7226 100.467 19.839C100.384 20.2214 100.301 20.6538 100.234 21.1194C100.234 21.0696 100.218 21.0197 100.185 20.9365C100.118 20.7203 99.9523 20.6538 99.9357 20.5374C99.9191 20.4376 99.7697 20.4044 99.6369 20.1383C99.5539 19.9886 99.4045 19.7558 99.4045 19.7558C99.4045 19.7558 99.2219 20.1217 99.1223 20.4044C99.0891 20.4875 99.0891 20.554 99.0891 20.6372C99.0559 20.6039 99.0227 20.5873 99.0061 20.5374C98.9231 20.4044 98.6741 20.2713 98.6741 20.2713C98.6243 20.3711 98.5911 20.9365 98.5745 21.0862C98.5579 21.2359 98.6575 21.5851 98.7073 21.6849C98.7571 21.7846 98.8235 21.9343 98.9397 22.1505C99.0559 22.3667 99.8693 22.6494 99.9357 22.7658C99.9357 22.7658 100.035 22.8822 100.118 22.9487C100.118 23.0152 100.118 23.0984 100.118 23.1649C100.118 23.5973 100.185 24.0795 100.301 24.5618C100.268 24.5285 100.251 24.4786 100.234 24.4454C100.185 24.3456 100.185 24.3622 100.102 24.0463C100.019 23.7303 99.8029 23.7303 99.7531 23.6139C99.7033 23.5141 99.4045 23.3977 99.2551 23.3312C99.1057 23.248 98.9895 22.9321 98.9895 22.9321C98.9895 22.9321 98.9895 23.4642 98.9563 23.7802C98.9563 23.9132 98.9729 24.0296 99.0227 24.1128C98.9231 24.0962 98.8401 24.0629 98.7737 24.013C98.6409 23.9132 98.3421 23.8467 98.3421 23.8467C98.3255 23.9465 98.4749 24.5452 98.5081 24.6948C98.5413 24.8611 98.7405 25.1771 98.8235 25.2436C98.9065 25.3267 99.0061 25.4598 99.1887 25.6427C99.3713 25.8256 99.8527 25.8755 100.384 26.0418C100.583 26.1083 100.699 26.2414 100.749 26.3245C100.766 26.391 100.782 26.4576 100.799 26.4908C100.865 26.7236 100.932 27.0063 101.031 27.3057C100.882 27.1061 100.633 27.0562 100.334 27.0063C100.151 26.9731 99.4377 26.7902 99.4377 26.7902C99.6037 26.9232 99.7199 27.2724 99.8195 27.5884C99.4045 27.5052 98.9895 27.5884 98.9895 27.5884C99.0725 27.6383 99.6203 28.1205 99.7033 28.3866C99.7863 28.6527 100.068 29.1183 100.151 29.1848C100.234 29.2347 100.467 29.534 100.633 29.6837C100.799 29.85 101.43 29.7669 101.645 29.7669C101.778 29.7669 101.994 29.8666 102.127 29.9165C102.26 30.0994 102.492 30.3489 102.791 30.615C102.625 30.5484 102.309 30.3489 102.21 30.2325C102.11 30.0994 102.21 30.6981 102.343 30.8977C102.177 30.8977 101.977 30.8478 101.878 30.7646C101.695 30.6316 101.861 31.2469 102.044 31.4132C102.459 31.779 102.409 31.8289 102.475 31.8622C102.127 31.9287 101.645 32.0451 101.496 31.962C101.313 31.8622 101.712 32.228 101.961 32.3278C102.309 32.4609 102.26 32.6937 102.641 32.8101C103.04 32.9431 103.471 33.0928 103.704 33.0595C103.886 33.0263 104.019 32.9431 104.285 32.9099C104.517 32.8766 104.916 32.5773 105.347 32.5107C105.779 32.7768 106.21 33.0263 106.642 33.2258L106.708 33.2591C106.708 33.2591 106.609 33.2591 106.559 33.2757C106.393 33.309 105.746 33.4586 105.58 33.3755C105.43 33.2923 105.746 33.7247 105.945 33.891C105.629 33.9575 105.198 33.9908 105.048 33.9575C104.833 33.9076 105.48 34.5229 105.729 34.5894H105.762C105.563 34.6726 105.364 34.7225 105.281 34.7059C105.065 34.7059 105.978 35.2879 106.227 35.2546C107.04 35.1382 107.787 35.4209 108.169 35.2546C108.501 35.1216 108.7 35.0384 108.866 34.9719C109.032 34.9054 109.132 34.7557 109.232 34.6892C109.315 34.6227 109.364 34.4897 109.647 34.3566C109.647 34.3566 110.161 34.4065 110.493 34.3733C110.394 34.4065 110.277 34.473 110.145 34.5894C109.73 34.7225 109.398 34.8389 109.281 34.8888C108.966 35.0551 108.153 35.7701 107.937 36.003C107.937 36.003 108.617 35.9531 108.734 35.9531C108.85 35.9531 109.082 35.4874 109.182 35.4043C109.215 35.3877 109.381 35.2879 109.647 35.1715C109.182 35.9198 109.862 36.5351 109.862 36.5351C109.68 36.3189 109.879 35.9531 109.879 35.9531L110.244 36.1859C109.779 35.3877 110.493 34.8389 110.742 34.7059L110.825 34.6726C110.908 34.7724 111.008 34.8389 111.124 34.8389C111.24 34.8389 111.34 34.7724 111.406 34.6892C111.456 34.7059 111.506 34.7225 111.556 34.7391C111.838 34.922 112.435 35.4376 111.987 36.1859L112.352 35.9531C112.352 35.9531 112.552 36.3189 112.369 36.5351C112.369 36.5351 113.033 35.9364 112.601 35.1881C112.834 35.2879 112.983 35.371 113 35.3877C113.099 35.4708 113.348 35.9364 113.448 35.9364C113.548 35.9364 114.245 35.9863 114.245 35.9863C114.029 35.7535 113.216 35.0384 112.9 34.8721C112.801 34.8223 112.485 34.7225 112.103 34.5894C111.954 34.473 111.838 34.4065 111.738 34.3566C112.087 34.3899 112.585 34.3566 112.585 34.3566C112.834 34.473 112.9 34.6061 112.967 34.656C113.066 34.7391 113.166 34.8888 113.332 34.9387C113.498 34.9886 113.697 35.0883 114.029 35.2214C114.394 35.371 115.158 35.105 115.971 35.2214C116.22 35.2546 117.15 34.656 116.917 34.6726C116.818 34.6726 116.635 34.6227 116.436 34.5562H116.469C116.718 34.473 117.366 33.8577 117.15 33.9076C117 33.9409 116.569 33.9076 116.253 33.8411C116.453 33.6748 116.751 33.2591 116.619 33.3256C116.453 33.4087 115.805 33.2591 115.639 33.2258C115.589 33.2258 115.54 33.2092 115.49 33.2092L115.556 33.1759C115.988 32.9764 116.419 32.7269 116.851 32.4609C117.299 32.5107 117.681 32.8267 117.913 32.86C118.179 32.8766 118.312 32.9597 118.494 33.0096C118.727 33.0595 119.158 32.8932 119.557 32.7602C119.939 32.6438 119.889 32.411 120.237 32.2779C120.486 32.1781 120.885 31.8123 120.702 31.9121C120.553 31.9952 120.071 31.8788 119.723 31.8123C119.789 31.7957 119.756 31.7292 120.154 31.3633C120.337 31.1804 120.503 30.5651 120.32 30.7147C120.221 30.7979 120.038 30.8311 119.856 30.8478C119.972 30.6482 120.088 30.0329 119.988 30.1826C119.889 30.3156 119.573 30.4986 119.407 30.5651C119.706 30.2824 119.939 30.0496 120.071 29.8666C120.204 29.8167 120.42 29.717 120.553 29.717C120.769 29.717 121.399 29.8001 121.565 29.6338C121.731 29.4675 121.964 29.1848 122.047 29.1349C122.13 29.085 122.412 28.6028 122.495 28.3367C122.578 28.0706 123.126 27.5884 123.209 27.5385C123.209 27.5385 122.794 27.4553 122.379 27.5385C122.478 27.2225 122.595 26.8733 122.761 26.7403C122.761 26.7403 122.047 26.9232 121.864 26.9564C121.565 27.0063 121.316 27.0562 121.167 27.2558C121.267 26.9564 121.333 26.6737 121.399 26.4409C121.399 26.391 121.433 26.3412 121.449 26.2746C121.499 26.1915 121.615 26.0584 121.814 25.9919C122.346 25.809 122.827 25.7757 123.01 25.5928C123.192 25.4099 123.292 25.2769 123.375 25.1937C123.458 25.1106 123.657 24.7946 123.69 24.6449C123.707 24.4953 123.873 23.9132 123.856 23.7968L123.923 23.8301ZM122.014 23.3146C122.014 23.5307 121.947 23.9132 121.848 24.3955C121.848 24.2292 121.781 24.0795 121.731 23.9631C121.648 23.7968 121.549 23.7968 121.499 23.6472C121.449 23.4809 121.267 23.431 121.15 23.2979C121.051 23.1649 120.835 23.0152 120.835 23.0152C120.752 23.1982 120.735 23.9132 120.785 24.013C120.785 24.0463 120.818 24.1128 120.818 24.1793C120.735 24.146 120.669 24.1294 120.669 24.1294C120.536 24.4454 120.686 24.7613 120.752 25.044C120.752 25.1438 120.885 25.3101 120.935 25.4099C120.984 25.5097 120.968 25.6094 121.018 25.6926C121.067 25.7591 121.184 25.7757 121.3 25.8755C121.3 26.0751 121.333 26.2414 121.366 26.2913C121.267 26.6405 121.15 26.9731 121.034 27.3223C121.034 27.2059 120.984 27.0895 120.901 26.9564C120.769 26.7403 120.735 26.7569 120.669 26.5241C120.569 26.2414 120.354 26.2414 120.32 25.942C120.32 25.942 120.237 26.2913 120.221 26.574C120.188 26.8567 120.237 26.9731 120.271 27.1227C120.287 27.2225 120.254 27.3389 120.221 27.472C120.221 27.3223 120.188 27.1061 120.121 27.0063C120.038 26.9066 120.071 26.6904 120.071 26.6904C120.022 26.7901 119.773 27.1227 119.673 27.2225L119.573 27.0562C120.968 24.6283 120.636 20.4543 120.586 19.8889C120.818 19.839 120.769 19.7226 120.769 19.7226L120.719 19.4565C120.719 19.4565 120.769 19.4897 120.785 19.4897C120.785 19.4897 120.818 19.4897 120.835 19.4897C120.868 19.4897 120.901 19.4897 120.935 19.4565C120.968 19.4232 121.001 19.39 121.001 19.3234C121.101 19.4232 121.2 19.523 121.283 19.5396C121.466 19.5895 121.632 19.6727 121.648 19.7558C121.765 20.2381 121.864 20.7702 121.914 21.2691C121.698 21.0363 121.648 20.5873 121.184 20.3379C121.184 20.3379 121.2 20.5208 121.184 20.6538C121.167 20.737 121.134 20.9199 121.134 21.0696C120.968 20.9532 120.802 20.7869 120.769 20.7203C120.769 20.7203 120.686 21.3689 120.868 21.7347C121.051 22.084 121.051 22.2669 121.267 22.3334C121.482 22.4166 121.516 22.4664 121.582 22.5163C121.665 22.5662 121.798 22.6494 121.897 22.6494C121.931 22.6494 121.947 22.666 121.964 22.6826C121.964 22.7325 121.997 22.7824 122.014 22.8489C122.014 22.9986 122.014 23.115 122.014 23.248V23.3146ZM103.554 20.4543L104.965 21.452C104.965 21.6849 104.965 22.3833 105.165 23.0152L104.003 24.9775C103.803 24.5618 103.322 23.1815 103.571 20.4709L103.554 20.4543ZM101.38 19.3068C101.38 19.3068 101.479 19.1405 101.629 19.1239C101.662 19.2569 101.546 19.4232 101.529 19.4232C101.513 19.4565 101.479 19.4731 101.446 19.4731C101.413 19.4731 101.396 19.4731 101.38 19.4731C101.363 19.4731 101.347 19.4399 101.347 19.4066C101.347 19.3733 101.347 19.3401 101.38 19.3068ZM105.995 16.0474L107.107 17.278C107.09 17.6106 107.04 18.6749 107.323 19.3567L106.31 21.0696C106.061 20.5707 105.563 19.1073 105.995 16.0474V16.0474ZM110.36 15.2492C110.858 15.166 111.373 15.166 111.854 15.2492L112.02 15.5153C111.423 15.3822 110.792 15.3822 110.194 15.5153L110.36 15.2492ZM110.493 15.033L111.124 13.9853L111.738 15.0164C111.323 14.9665 110.908 14.9665 110.493 15.0164V15.033ZM110.062 15.7481C110.742 15.5485 111.473 15.5485 112.153 15.7481L112.319 16.0308C111.937 15.8977 111.522 15.8312 111.107 15.8312C110.692 15.8312 110.261 15.8977 109.862 16.0474L110.028 15.7647L110.062 15.7481ZM109.713 16.3135C110.593 15.931 111.605 15.9144 112.485 16.3135L116.785 23.5141H115.208C115.208 23.5141 115.058 23.4143 114.992 23.3644C114.975 23.3478 114.942 23.3312 114.925 23.3146C114.809 23.248 114.693 23.2148 114.577 23.248C114.51 23.248 114.444 23.2813 114.394 23.3146C114.328 23.3478 114.278 23.3811 114.228 23.4143C114.228 23.4143 114.228 23.4143 114.212 23.4143C114.178 23.4143 114.162 23.3977 114.129 23.3811C113.996 23.3146 113.863 23.2314 113.747 23.1316C113.714 23.0984 113.664 23.0651 113.614 23.0485C113.548 23.0152 113.465 22.9986 113.382 22.9986C113.332 22.9986 113.265 22.9986 113.216 23.0319C113.133 23.0485 113.066 23.0984 113 23.1316C112.95 23.1649 112.917 23.1982 112.867 23.2314C112.867 23.2314 112.867 23.2314 112.85 23.2314C112.85 23.2314 112.684 23.1316 112.601 23.0984C112.518 23.0651 112.452 23.0319 112.369 22.982C112.269 22.9154 112.17 22.8489 112.07 22.7658C112.037 22.7325 112.004 22.7159 111.971 22.6993C111.888 22.6494 111.805 22.6327 111.722 22.6161C111.655 22.6161 111.605 22.6161 111.539 22.6161C111.456 22.6327 111.39 22.666 111.307 22.6993C111.273 22.7159 111.224 22.7492 111.19 22.7658V20.2713C111.456 20.2713 111.655 20.1716 111.655 20.0552C111.655 19.9387 111.473 19.1904 111.207 19.0075C111.207 19.0075 110.975 18.8246 110.692 19.0075C110.692 19.0075 110.36 19.1904 110.526 19.4565C110.526 19.4565 110.56 19.5396 110.709 19.4731C110.742 19.4731 110.809 19.4232 110.825 19.3234V19.39C110.825 19.4897 110.692 19.5396 110.692 19.5396C110.609 19.7724 110.56 19.9886 110.56 20.0552C110.56 20.1716 110.759 20.2547 111.024 20.2713V22.799H111.008C110.892 22.7159 110.792 22.6494 110.692 22.5662C110.659 22.533 110.626 22.5163 110.576 22.4831C110.493 22.4332 110.41 22.4166 110.327 22.3999C110.261 22.3999 110.178 22.3999 110.111 22.3999C110.028 22.4166 109.945 22.4498 109.862 22.4831C109.779 22.533 109.713 22.5829 109.63 22.6327C109.63 22.6327 109.63 22.6327 109.613 22.6327H109.597C109.597 22.6327 109.53 22.5829 109.497 22.5662C109.447 22.533 109.398 22.5163 109.348 22.4997C109.281 22.4831 109.215 22.4498 109.165 22.4166C108.983 22.3168 108.833 22.217 108.667 22.084L108.617 22.0507C108.501 21.9676 108.368 21.901 108.219 21.8844H108.103C108.003 21.8844 107.92 21.9177 107.821 21.9509C107.721 22.0008 107.621 22.0507 107.538 22.1172C107.439 22.1837 107.339 22.2669 107.24 22.35C107.123 22.4664 107.007 22.5829 106.908 22.7159C106.808 22.8323 106.708 22.9653 106.625 23.0984C106.559 23.1982 106.493 23.2647 106.426 23.3312C106.376 23.3811 106.343 23.4143 106.293 23.4476H105.414L109.713 16.2636V16.3135ZM115.905 21.0529L114.892 19.3401C115.191 18.6749 115.141 17.6106 115.108 17.2614L116.22 16.0308C116.652 19.0906 116.137 20.554 115.905 21.0529ZM120.603 19.1239C120.752 19.1405 120.852 19.3068 120.852 19.3068C120.868 19.3401 120.885 19.3733 120.885 19.39C120.885 19.4232 120.885 19.4399 120.852 19.4565C120.835 19.4565 120.802 19.4731 120.785 19.4565C120.752 19.4565 120.735 19.4232 120.702 19.4066C120.702 19.4066 120.586 19.2569 120.619 19.1073L120.603 19.1239ZM118.229 24.9609L117.067 22.9986C117.283 22.3667 117.283 21.6682 117.266 21.4354L118.677 20.4376C118.926 23.1483 118.428 24.5285 118.245 24.9443L118.229 24.9609ZM103.139 27.3223L104.235 25.4764H117.548C117.548 25.4764 117.498 25.4432 117.482 25.4265C117.399 25.3766 117.332 25.3267 117.249 25.2602C117.117 25.1604 117 25.044 116.868 24.9276C116.685 24.7613 116.519 24.595 116.353 24.4121C116.237 24.2957 116.137 24.1793 116.038 24.0629C115.988 24.013 115.938 23.9631 115.888 23.9132C115.805 23.8301 115.706 23.7469 115.589 23.6804C115.54 23.6472 115.49 23.6305 115.44 23.5973H116.851L119.059 27.289H103.173L103.139 27.3223ZM105.347 23.6305H106.161C106.011 23.7636 105.845 23.8966 105.663 24.013L105.613 24.0463C105.513 24.0962 105.43 24.1627 105.347 24.2292C105.214 24.329 105.082 24.4454 104.949 24.5618C104.816 24.6782 104.7 24.7946 104.567 24.9276L105.331 23.6305H105.347ZM111.074 23.1316C111.074 23.1316 111.141 23.1649 111.174 23.1649C111.207 23.1649 111.24 23.1982 111.273 23.2148C111.373 23.2647 111.456 23.3312 111.539 23.3977C111.688 23.5141 111.805 23.6305 111.921 23.7636C112.103 23.9631 112.286 24.1627 112.485 24.3622C112.568 24.4454 112.635 24.5285 112.718 24.595C112.917 24.7946 113.116 24.9942 113.332 25.1771L113.365 25.2103H112.336C112.336 25.2103 112.319 25.2103 112.303 25.2103L112.236 25.1604C112.087 25.044 111.954 24.9276 111.821 24.8112C111.672 24.6616 111.506 24.5285 111.356 24.3789C111.024 24.0629 110.709 23.7137 110.394 23.3811C110.344 23.3146 110.294 23.2647 110.228 23.1982C110.111 23.0651 109.979 22.9487 109.846 22.8489C109.846 22.8489 109.979 22.7325 110.062 22.7159C110.111 22.6993 110.145 22.6826 110.194 22.6826C110.277 22.6826 110.36 22.6826 110.427 22.7159C110.46 22.7325 110.493 22.7492 110.526 22.7824C110.609 22.8489 110.692 22.9154 110.775 22.9653C110.875 23.0319 110.975 23.0817 111.074 23.1316V23.1316ZM115.274 23.8301H115.324C115.324 23.8301 115.407 23.88 115.44 23.9132C115.54 23.9797 115.623 24.0463 115.706 24.1128C115.755 24.1627 115.805 24.2126 115.855 24.2624C115.955 24.3789 116.054 24.4786 116.154 24.595C116.253 24.6948 116.336 24.778 116.436 24.8777C116.552 24.9942 116.668 25.0939 116.785 25.2103C116.785 25.2103 116.785 25.2103 116.785 25.227H116.204H116.17C116.054 25.1438 115.955 25.044 115.855 24.9443C115.755 24.8445 115.656 24.7613 115.556 24.6616C115.34 24.4454 115.125 24.2292 114.925 23.9964C114.876 23.9465 114.842 23.8966 114.793 23.8467C114.693 23.7469 114.577 23.6472 114.461 23.564C114.461 23.564 114.56 23.4975 114.627 23.4809C114.676 23.4809 114.743 23.4809 114.793 23.5141C114.809 23.5141 114.826 23.5474 114.842 23.5474C114.975 23.6472 115.108 23.7469 115.274 23.8134V23.8301ZM114.494 23.9132C114.494 23.9132 114.643 24.0629 114.71 24.1294C114.859 24.2957 115.008 24.462 115.174 24.6283C115.324 24.778 115.457 24.911 115.606 25.0607C115.672 25.1106 115.722 25.1771 115.789 25.227H114.975C114.975 25.227 114.959 25.227 114.942 25.227C114.892 25.1771 114.826 25.1438 114.776 25.0939C114.627 24.9609 114.477 24.8279 114.328 24.6948C114.245 24.6117 114.162 24.5285 114.079 24.4454C113.863 24.2292 113.647 24.013 113.448 23.7802C113.398 23.7303 113.365 23.6804 113.315 23.6305C113.232 23.5474 113.166 23.4809 113.083 23.4143C113.083 23.4143 113.199 23.3146 113.249 23.2979C113.282 23.2979 113.332 23.2647 113.382 23.2647C113.431 23.2647 113.465 23.2647 113.514 23.2979C113.548 23.2979 113.564 23.3312 113.597 23.3478C113.73 23.4476 113.863 23.5474 114.012 23.6139C114.046 23.6305 114.095 23.6472 114.145 23.6638C114.178 23.6638 114.228 23.697 114.261 23.7137C114.361 23.7636 114.444 23.8301 114.527 23.8966L114.494 23.9132ZM113.232 23.9132C113.348 24.0463 113.465 24.1793 113.581 24.2957C113.697 24.4121 113.797 24.5285 113.913 24.6449C114.095 24.8279 114.295 25.0274 114.494 25.1937L114.544 25.227H113.813C113.813 25.227 113.797 25.227 113.78 25.227C113.73 25.1771 113.664 25.1438 113.614 25.0939C113.431 24.9443 113.265 24.7946 113.116 24.6283C113.033 24.5452 112.933 24.462 112.85 24.3622C112.618 24.1294 112.386 23.8966 112.17 23.6472C112.12 23.5973 112.07 23.5307 112.02 23.4809C111.888 23.3478 111.755 23.2148 111.589 23.115C111.522 23.0651 111.439 23.0152 111.356 22.982C111.356 22.982 111.489 22.8988 111.572 22.8822C111.605 22.8822 111.655 22.8822 111.688 22.8822C111.738 22.8822 111.788 22.8988 111.821 22.9321C111.854 22.9487 111.888 22.9653 111.904 22.9986C112.07 23.1316 112.236 23.248 112.419 23.3312C112.452 23.3312 112.469 23.3478 112.502 23.3644C112.552 23.3811 112.585 23.3977 112.635 23.431C112.734 23.4809 112.817 23.5474 112.917 23.6305C113.033 23.7137 113.133 23.8301 113.216 23.9299L113.232 23.9132ZM109.979 23.2979C109.979 23.2979 110.111 23.4476 110.178 23.5141C110.261 23.5973 110.327 23.6804 110.41 23.7636C110.543 23.9132 110.692 24.0629 110.825 24.1959C111.074 24.4454 111.323 24.7114 111.589 24.9443C111.688 25.044 111.788 25.1272 111.904 25.2103H104.633L104.733 25.1106C104.849 25.0108 104.949 24.8944 105.065 24.7946C105.198 24.6782 105.347 24.5452 105.48 24.4287C105.563 24.3622 105.663 24.2957 105.762 24.2458C105.795 24.2458 105.812 24.2126 105.845 24.1959C106.078 24.0296 106.293 23.8633 106.493 23.6638C106.609 23.5474 106.725 23.431 106.825 23.3146V23.2813C106.924 23.1483 107.024 23.0152 107.123 22.8822C107.206 22.7824 107.289 22.6826 107.389 22.5995C107.489 22.4997 107.588 22.4166 107.704 22.3334C107.771 22.2835 107.854 22.2336 107.937 22.217C107.987 22.2004 108.053 22.1837 108.103 22.1671C108.202 22.1671 108.302 22.1671 108.402 22.217C108.435 22.2336 108.485 22.2669 108.518 22.3002C108.601 22.3667 108.684 22.4332 108.767 22.4997C108.866 22.5662 108.983 22.6327 109.082 22.6826C109.149 22.7159 109.198 22.7325 109.265 22.7658C109.298 22.7658 109.348 22.799 109.381 22.8157C109.481 22.8656 109.58 22.9321 109.68 22.9986C109.779 23.0817 109.879 23.1649 109.979 23.2647V23.2979ZM108.335 27.8212C108.734 28.1205 109.149 28.2868 109.514 28.3866C109.232 28.4697 107.406 28.952 105.829 27.8212H108.335V27.8212ZM110.842 29.3179C110.842 29.3179 111.024 28.4032 111.124 27.8212C111.224 28.4032 111.406 29.3179 111.406 29.3179C111.506 29.7669 111.141 30.166 111.124 30.166C111.124 30.166 110.742 29.7669 110.842 29.3179ZM113.896 27.8212H116.403C114.842 28.952 113 28.4697 112.718 28.3866C113.066 28.2868 113.481 28.1205 113.896 27.8212V27.8212ZM120.287 18.8246C120.287 18.8246 120.254 18.758 120.271 18.7248C120.271 18.7248 120.271 18.6915 120.304 18.6749H120.32C120.42 18.7414 120.486 18.8246 120.536 18.9077C120.536 18.941 120.536 18.9742 120.536 19.0075C120.387 18.9909 120.287 18.8246 120.287 18.8246V18.8246ZM118.312 14.4343C118.312 14.4343 118.212 14.4676 118.162 14.4343C118.162 14.4343 118.03 14.3179 118.013 14.1849C118.162 14.1683 118.279 14.3013 118.279 14.3013C118.328 14.3512 118.345 14.4177 118.312 14.451V14.4343ZM118.096 13.7193L118.378 13.6195L118.312 13.9022L118.079 13.9355V13.7026L118.096 13.7193ZM117.581 13.7692C117.581 13.7692 117.615 13.7359 117.648 13.7359C117.681 13.7359 117.714 13.7359 117.747 13.7692C117.747 13.7692 117.88 13.8689 117.897 14.0186C117.88 14.0186 117.864 14.0186 117.847 14.0186C117.731 14.002 117.615 13.9022 117.615 13.9022C117.565 13.8523 117.548 13.7858 117.581 13.7525V13.7692ZM111.473 10.3601H111.506C111.506 10.3601 111.622 10.41 111.622 10.4599C111.622 10.5097 111.572 10.5596 111.506 10.5596C111.506 10.5596 111.307 10.5596 111.207 10.4599C111.29 10.3767 111.406 10.3601 111.473 10.3601ZM111.124 9.79467L111.273 10.0607L111.124 10.2437L110.975 10.0607L111.124 9.79467ZM110.742 10.543C110.742 10.543 110.676 10.543 110.643 10.5097C110.643 10.5097 110.609 10.4765 110.609 10.4599C110.609 10.4432 110.609 10.41 110.643 10.41C110.659 10.3933 110.692 10.3767 110.742 10.3767C110.742 10.3767 110.925 10.3601 111.024 10.4765C110.925 10.5763 110.742 10.5763 110.726 10.5763L110.742 10.543ZM111.058 12.2891C111.058 12.2891 111.257 11.9732 111.356 11.574C111.489 12.4388 111.323 13.0873 111.257 13.2703L111.124 13.0375L110.676 13.7858C110.643 13.5031 110.659 12.921 111.058 12.2725V12.2891ZM104.517 13.7858C104.517 13.7858 104.584 13.7525 104.617 13.7525C104.617 13.7525 104.65 13.7525 104.667 13.7858C104.683 13.8024 104.683 13.8357 104.683 13.8523C104.683 13.8856 104.667 13.9188 104.633 13.9521C104.633 13.9521 104.501 14.0851 104.368 14.0851C104.368 13.9355 104.517 13.819 104.517 13.819V13.7858ZM103.87 13.6195L104.152 13.7193V13.9521L103.92 13.9188L103.853 13.6361L103.87 13.6195ZM104.003 14.4676C104.003 14.4676 103.969 14.4676 103.953 14.4343C103.936 14.4177 103.936 14.3845 103.936 14.3678C103.936 14.3346 103.953 14.3013 103.986 14.268C103.986 14.268 104.102 14.135 104.252 14.135H104.268C104.268 14.2847 104.119 14.4011 104.119 14.4011C104.086 14.4343 104.052 14.4343 104.019 14.4343L104.003 14.4676ZM101.977 18.8412C101.977 18.8412 101.878 19.0075 101.728 19.0241C101.728 18.9909 101.728 18.9576 101.728 18.941C101.795 18.8578 101.861 18.7747 101.961 18.7082H101.977C101.977 18.7082 101.994 18.7082 102.011 18.7414C102.011 18.7747 102.011 18.8079 101.977 18.8412V18.8412ZM100.251 22.9653C100.251 22.9653 100.284 22.8656 100.301 22.799C100.317 22.7824 100.351 22.7658 100.367 22.7658C100.467 22.7658 100.6 22.6826 100.683 22.6327C100.766 22.5829 100.782 22.533 100.998 22.4498C101.197 22.3667 101.197 22.1837 101.396 21.8512C101.579 21.5019 101.496 20.8367 101.496 20.8367C101.479 20.9033 101.297 21.0696 101.131 21.186C101.131 21.0363 101.098 20.8534 101.081 20.7702C101.064 20.6372 101.081 20.4543 101.081 20.4543C100.616 20.7037 100.55 21.1527 100.351 21.3855C100.417 20.8866 100.5 20.3711 100.616 19.8722C100.616 19.8722 100.799 19.7059 100.981 19.656C101.064 19.6394 101.164 19.5396 101.264 19.4399C101.264 19.4399 101.297 19.5396 101.33 19.5729C101.363 19.5895 101.396 19.6062 101.43 19.6062C101.43 19.6062 101.463 19.6062 101.479 19.6062C101.513 19.6062 101.529 19.5895 101.546 19.5729L101.496 19.839C101.496 19.839 101.463 19.9554 101.679 20.0053C101.629 20.5707 101.297 24.7447 102.691 27.1726L102.592 27.3389C102.475 27.2392 102.243 26.9066 102.193 26.8068C102.193 26.8068 102.226 27.023 102.143 27.1227C102.077 27.2225 102.044 27.4221 102.044 27.5884C102.011 27.4553 101.977 27.3389 101.994 27.2391C102.011 27.0729 102.077 26.9731 102.044 26.6904C102.027 26.4077 101.944 26.0584 101.944 26.0584C101.911 26.3412 101.695 26.3412 101.596 26.6405C101.513 26.8733 101.496 26.8567 101.363 27.0729C101.28 27.2059 101.247 27.3223 101.23 27.4387C101.114 27.0895 100.998 26.7403 100.898 26.4077C100.932 26.3578 100.948 26.1915 100.965 25.9919C101.081 25.8755 101.197 25.8755 101.247 25.809C101.297 25.7259 101.28 25.6261 101.33 25.5263C101.38 25.4265 101.496 25.2436 101.513 25.1604C101.562 24.8777 101.728 24.5452 101.596 24.2458C101.596 24.2458 101.529 24.2624 101.446 24.2957C101.446 24.2292 101.463 24.1627 101.479 24.1294C101.529 24.0296 101.496 23.2979 101.43 23.1316C101.43 23.1316 101.214 23.2979 101.114 23.4143C101.015 23.5474 100.832 23.5973 100.766 23.7636C100.716 23.9299 100.6 23.9299 100.533 24.0795C100.467 24.1959 100.417 24.3456 100.417 24.5119C100.317 24.0296 100.268 23.6472 100.251 23.431C100.251 23.3146 100.251 23.1815 100.251 23.0319V22.9653ZM112.203 33.9575C111.854 33.9575 111.605 34.0906 111.522 34.1238C111.639 33.9243 112.12 33.126 112.452 32.7436C112.502 32.86 112.684 33.3921 112.22 33.9575H112.203ZM110.792 34.1238C110.709 34.0739 110.46 33.9575 110.111 33.9575C109.647 33.3921 109.829 32.86 109.879 32.7436C110.211 33.1094 110.692 33.9243 110.809 34.1072L110.792 34.1238ZM118.943 30.7979C118.943 30.7979 118.976 30.7314 118.976 30.7147C118.992 30.5983 119.109 30.3489 119.075 30.2159C119.059 30.0828 118.992 29.7669 118.909 29.5839C118.826 29.401 118.644 28.952 118.461 28.8689C118.461 28.8689 118.312 29.3677 118.262 29.5507C118.212 29.7336 118.162 29.9498 118.079 30.0496C118.063 30.0828 118.013 30.166 117.963 30.2491C117.963 30.166 117.963 30.1826 117.963 29.8999C117.996 29.5507 117.432 29.0019 117.432 29.0019C117.482 29.1516 117.266 29.7669 117.166 29.8999C117.067 30.0329 116.901 30.432 116.884 30.6649C116.868 30.9143 116.751 31.064 116.668 31.1637C116.502 31.3799 116.685 32.2779 116.702 32.3943C116.353 32.6105 115.971 32.8267 115.639 32.993C115.54 33.0429 115.423 33.0928 115.291 33.1427C115.307 33.126 115.34 33.1094 115.357 33.0761C115.838 32.5606 115.822 32.3943 115.888 32.2613C116.054 32.228 115.672 32.1948 115.44 32.2114C115.573 32.0119 115.755 31.7458 115.872 31.513C115.971 31.33 115.025 31.5795 115.025 31.5795C114.925 31.6294 114.842 31.646 114.776 31.6793C114.859 31.3966 114.942 31.0806 114.925 31.0141C114.925 30.9309 114.527 31.064 114.195 31.197C113.913 31.3134 113.763 31.5296 113.531 31.6793C113.249 31.8622 113.216 32.3112 113.083 32.5274C113 32.677 112.95 32.7934 112.917 32.8766C112.884 32.6604 112.817 32.5606 112.734 32.5274H112.701C112.701 32.5274 112.668 32.5107 112.651 32.4941C112.585 32.4941 112.485 32.4609 112.336 32.4442C112.12 32.4276 111.788 32.4442 111.622 32.7436C111.473 33.0263 111.34 33.7081 111.273 33.8577C111.24 33.8577 111.19 33.8245 111.157 33.8245C111.124 33.8245 111.074 33.8245 111.041 33.8577C110.975 33.6914 110.842 33.0096 110.692 32.7436C110.526 32.4442 110.194 32.4276 109.979 32.4442C109.829 32.4609 109.73 32.4775 109.663 32.4941C109.647 32.4941 109.63 32.4941 109.613 32.4941H109.58C109.481 32.5606 109.381 32.6937 109.381 32.993C109.364 32.8766 109.315 32.7269 109.182 32.4941C109.049 32.2779 109.016 31.8289 108.734 31.646C108.501 31.4963 108.335 31.2801 108.07 31.1637C107.754 31.0307 107.356 30.8977 107.339 30.9808C107.339 31.0473 107.422 31.3633 107.489 31.646C107.422 31.6127 107.339 31.5961 107.24 31.5462C107.24 31.5462 106.293 31.2968 106.393 31.4797C106.526 31.7125 106.708 31.9786 106.825 32.1781C106.592 32.1615 106.21 32.1948 106.376 32.228C106.443 32.3611 106.41 32.5274 106.908 33.0429C106.924 33.0595 106.957 33.0928 106.974 33.1094C106.841 33.0595 106.725 33.0096 106.625 32.9597C106.277 32.7934 105.912 32.5773 105.563 32.3611C105.58 32.2613 105.762 31.3467 105.596 31.1305C105.513 31.0307 105.414 30.8644 105.38 30.6316C105.364 30.3988 105.198 29.9997 105.098 29.8666C104.999 29.7336 104.783 29.1183 104.833 28.9686C104.833 28.9686 104.285 29.5174 104.301 29.8666C104.318 30.1493 104.318 30.1493 104.301 30.2159C104.252 30.1327 104.202 30.0496 104.185 30.0163C104.102 29.9165 104.052 29.7003 104.003 29.5174C103.953 29.3345 103.803 28.8356 103.803 28.8356C103.621 28.9187 103.438 29.3677 103.355 29.5507C103.272 29.7336 103.222 30.0496 103.189 30.1826C103.156 30.3156 103.272 30.5651 103.289 30.6815C103.289 30.6981 103.289 30.7314 103.322 30.7646C102.924 30.4653 102.592 30.1826 102.276 29.7003C102.309 29.5673 102.326 29.4675 102.392 29.4176C102.475 29.3345 102.741 29.0185 102.791 28.8023C102.841 28.5861 102.791 28.4365 102.791 28.3201C102.791 28.2037 102.874 27.8544 102.874 27.8544V27.8212H103.305C104.102 28.4032 106.941 30.1992 110.277 28.7358C110.261 28.7857 110.244 28.8356 110.228 28.8522C110.228 28.8522 109.514 29.8334 111.124 30.166C112.751 29.8334 112.02 28.8522 112.02 28.8522C112.004 28.8356 111.987 28.7857 111.971 28.7358C115.307 30.1992 118.146 28.4032 118.943 27.8212H119.391V27.8544C119.391 27.8544 119.457 28.2203 119.457 28.3201C119.457 28.4199 119.407 28.5861 119.457 28.8023C119.507 29.0019 119.773 29.3345 119.856 29.4176C119.905 29.4675 119.939 29.5673 119.972 29.7003C119.656 30.1826 119.324 30.4653 118.926 30.7646L118.943 30.7979Z" fill="#333A45"/>
<path d="M116.351 31.6465C116.251 31.6465 116.185 31.713 116.185 31.7962C116.185 31.8959 116.251 31.9624 116.351 31.9624C116.434 31.9624 116.517 31.8959 116.517 31.7962C116.517 31.713 116.434 31.6465 116.351 31.6465Z" fill="#333A45"/>
<path d="M117.247 32.7607C117.147 32.7607 117.081 32.8439 117.081 32.927C117.081 33.0268 117.147 33.0933 117.247 33.0933C117.33 33.0933 117.413 33.0268 117.413 32.927C117.413 32.8439 117.33 32.7607 117.247 32.7607Z" fill="#333A45"/>
<path d="M119.341 29.2676C119.258 29.2676 119.175 29.3341 119.175 29.4339C119.175 29.517 119.258 29.6002 119.341 29.6002C119.44 29.6002 119.507 29.517 119.507 29.4339C119.507 29.3341 119.44 29.2676 119.341 29.2676Z" fill="#333A45"/>
<path d="M120.449 30.0657C120.449 30.1655 120.532 30.2487 120.632 30.2487C120.731 30.2487 120.814 30.1655 120.814 30.0657C120.814 29.9826 120.731 29.8828 120.632 29.8828C120.532 29.8828 120.449 29.966 120.449 30.0657Z" fill="#333A45"/>
<path d="M120.866 26.3073C120.966 26.3073 121.049 26.2241 121.049 26.1243C121.049 26.0246 120.966 25.9414 120.866 25.9414C120.767 25.9414 120.684 26.0246 120.684 26.1243C120.684 26.2241 120.767 26.3073 120.866 26.3073Z" fill="#333A45"/>
<path d="M121.398 22.7988C121.299 22.7988 121.216 22.882 121.216 22.9818C121.216 23.0815 121.299 23.1647 121.398 23.1647C121.498 23.1647 121.581 23.0815 121.581 22.9818C121.581 22.882 121.498 22.7988 121.398 22.7988Z" fill="#333A45"/>
<path d="M122.379 19.9391C122.478 19.9391 122.561 19.8559 122.561 19.7728C122.561 19.673 122.478 19.5898 122.379 19.5898C122.279 19.5898 122.196 19.673 122.196 19.7728C122.196 19.8559 122.279 19.9391 122.379 19.9391Z" fill="#333A45"/>
<path d="M121.132 20.2545C121.231 20.2545 121.314 20.1714 121.314 20.0716C121.314 19.9718 121.231 19.8887 121.132 19.8887C121.032 19.8887 120.949 19.9718 120.949 20.0716C120.949 20.1714 121.032 20.2545 121.132 20.2545Z" fill="#333A45"/>
<path d="M120.084 17.4114C120.084 17.3116 120.001 17.2451 119.901 17.2451C119.802 17.2451 119.719 17.3283 119.719 17.4114C119.719 17.5112 119.802 17.5943 119.901 17.5943C120.001 17.5943 120.084 17.5112 120.084 17.4114Z" fill="#333A45"/>
<path d="M120.85 16.8463C120.949 16.8463 121.032 16.7632 121.032 16.6634C121.032 16.5636 120.949 16.4805 120.85 16.4805C120.75 16.4805 120.667 16.5636 120.667 16.6634C120.667 16.7632 120.75 16.8463 120.85 16.8463Z" fill="#333A45"/>
<path d="M122.592 22.9993C122.592 23.0825 122.675 23.1656 122.774 23.1656C122.874 23.1656 122.94 23.0825 122.94 22.9993C122.94 22.9162 122.857 22.833 122.774 22.833C122.675 22.833 122.592 22.9162 122.592 22.9993Z" fill="#333A45"/>
<path d="M105.922 31.6465C105.839 31.6465 105.756 31.713 105.756 31.7962C105.756 31.8959 105.839 31.9624 105.922 31.9624C106.021 31.9624 106.088 31.8959 106.088 31.7962C106.088 31.713 106.021 31.6465 105.922 31.6465Z" fill="#333A45"/>
<path d="M105.181 32.9104C105.181 32.8273 105.114 32.7441 105.015 32.7441C104.932 32.7441 104.849 32.8273 104.849 32.9104C104.849 33.0102 104.932 33.0767 105.015 33.0767C105.098 33.0767 105.181 33.0102 105.181 32.9104Z" fill="#333A45"/>
<path d="M102.933 29.2676C102.85 29.2676 102.767 29.3341 102.767 29.4339C102.767 29.517 102.833 29.6002 102.933 29.6002C103.016 29.6002 103.099 29.517 103.099 29.4339C103.099 29.3341 103.016 29.2676 102.933 29.2676Z" fill="#333A45"/>
<path d="M101.65 30.233C101.733 30.233 101.833 30.1499 101.833 30.0501C101.833 29.967 101.75 29.8672 101.65 29.8672C101.551 29.8672 101.468 29.9503 101.468 30.0501C101.468 30.1499 101.551 30.233 101.65 30.233Z" fill="#333A45"/>
<path d="M101.408 25.96C101.309 25.96 101.226 26.0431 101.226 26.1429C101.226 26.2427 101.309 26.3258 101.408 26.3258C101.508 26.3258 101.591 26.2427 101.591 26.1429C101.591 26.0431 101.508 25.96 101.408 25.96Z" fill="#333A45"/>
<path d="M100.498 26.4573C100.498 26.3576 100.415 26.2744 100.315 26.2744C100.232 26.2744 100.133 26.3576 100.133 26.4573C100.133 26.5571 100.216 26.6403 100.315 26.6403C100.415 26.6403 100.498 26.5571 100.498 26.4573Z" fill="#333A45"/>
<path d="M100.876 23.1491C100.976 23.1491 101.059 23.0659 101.059 22.9661C101.059 22.8664 100.976 22.7832 100.876 22.7832C100.776 22.7832 100.693 22.8664 100.693 22.9661C100.693 23.0659 100.776 23.1491 100.876 23.1491Z" fill="#333A45"/>
<path d="M99.9033 19.9391C100.003 19.9391 100.086 19.8559 100.086 19.7728C100.086 19.673 100.003 19.5898 99.9033 19.5898C99.8037 19.5898 99.7207 19.673 99.7207 19.7728C99.7207 19.8725 99.8037 19.9391 99.9033 19.9391Z" fill="#333A45"/>
<path d="M101.146 19.9053C101.047 19.9053 100.964 19.9884 100.964 20.0882C100.964 20.188 101.047 20.2711 101.146 20.2711C101.246 20.2711 101.329 20.188 101.329 20.0882C101.329 19.9884 101.246 19.9053 101.146 19.9053Z" fill="#333A45"/>
<path d="M102.189 17.4114C102.189 17.5112 102.272 17.5943 102.372 17.5943C102.472 17.5943 102.555 17.5112 102.555 17.4114C102.555 17.3116 102.472 17.2451 102.372 17.2451C102.272 17.2451 102.189 17.3283 102.189 17.4114Z" fill="#333A45"/>
<path d="M101.429 16.8463C101.528 16.8463 101.611 16.7632 101.611 16.6634C101.611 16.5802 101.528 16.4805 101.429 16.4805C101.329 16.4805 101.246 16.5636 101.246 16.6634C101.246 16.7632 101.329 16.8463 101.429 16.8463Z" fill="#333A45"/>
<path d="M99.6826 22.9993C99.6826 22.8995 99.5996 22.833 99.5 22.833C99.4004 22.833 99.334 22.9162 99.334 22.9993C99.334 23.0825 99.417 23.1656 99.5 23.1656C99.5996 23.1656 99.6826 23.0825 99.6826 22.9993Z" fill="#333A45"/>
<path d="M109.081 20.5375C109.081 20.5375 109.181 20.5375 109.214 20.6206H109.264L109.214 20.5042L109.513 20.3712L109.479 20.3047L109.048 20.4876V20.5375H109.081Z" fill="#333A45"/>
<path d="M108.985 19.9889H108.919L108.969 20.2383H109.234V20.1718C109.234 20.1718 109.168 20.1219 109.151 20.0886C109.151 20.0387 109.151 19.9889 109.234 19.9722C109.317 19.9556 109.351 19.9722 109.367 20.0387C109.367 20.0886 109.367 20.1385 109.317 20.1552V20.2217C109.434 20.1884 109.434 20.1053 109.417 20.0387C109.384 19.8891 109.268 19.8891 109.218 19.9057C109.118 19.9223 109.085 20.0055 109.102 20.0886C109.102 20.1219 109.135 20.1552 109.151 20.1718H109.019L108.969 19.9889H108.985Z" fill="#333A45"/>
<path d="M108.996 19.6227C109.079 19.6227 109.096 19.5561 109.112 19.5229L109.145 19.4231C109.145 19.4231 109.179 19.3233 109.245 19.3233C109.311 19.3233 109.328 19.4065 109.311 19.4564C109.311 19.5229 109.278 19.5894 109.195 19.5728V19.6393C109.195 19.6393 109.278 19.6393 109.311 19.606C109.311 19.606 109.361 19.5561 109.361 19.473C109.361 19.3898 109.361 19.2901 109.228 19.2734C109.162 19.2734 109.112 19.3067 109.096 19.3732L109.046 19.5063C109.046 19.5063 109.029 19.5561 108.979 19.5561C108.913 19.5561 108.896 19.473 108.913 19.4397C108.913 19.3898 108.946 19.34 109.013 19.34V19.2734C109.013 19.2734 108.863 19.2734 108.847 19.4564C108.847 19.5728 108.913 19.6227 108.979 19.6393L108.996 19.6227Z" fill="#333A45"/>
<path d="M109.491 18.8909L109.441 18.8742L109.342 19.1403L109.192 19.0904L109.275 18.841L109.226 18.8244L109.143 19.0738L109.01 19.0239L109.093 18.7578L109.043 18.7412L108.927 19.0738L109.392 19.2235L109.491 18.8909Z" fill="#333A45"/>
<path d="M109.557 18.7758L109.374 18.6594L109.457 18.5264C109.507 18.4266 109.474 18.3601 109.407 18.3268C109.374 18.3102 109.341 18.2936 109.308 18.3268C109.274 18.3268 109.241 18.3601 109.208 18.3933L109.108 18.5763L109.507 18.8257L109.54 18.7758H109.557ZM109.208 18.543L109.274 18.4266C109.274 18.4266 109.308 18.3767 109.341 18.3767C109.341 18.3767 109.357 18.3767 109.374 18.3933C109.424 18.4266 109.424 18.4599 109.374 18.5097L109.308 18.6095L109.175 18.5264L109.208 18.543Z" fill="#333A45"/>
<path d="M109.524 18.1088L109.84 18.3915L109.873 18.3416L109.574 18.0589L109.69 17.9425L109.641 17.8926L109.375 18.1753L109.425 18.2252L109.524 18.1088Z" fill="#333A45"/>
<path d="M110.095 18.1764L109.796 17.7939L109.763 17.8272L110.045 18.2097L110.095 18.1764Z" fill="#333A45"/>
<path d="M110.476 17.9431L110.459 17.8932L110.193 18.0262L110.127 17.8932L110.359 17.7768L110.343 17.7103L110.094 17.8433L110.027 17.7103L110.276 17.5772L110.26 17.5273L109.944 17.6936L110.16 18.1094L110.476 17.9431Z" fill="#333A45"/>
<path d="M110.587 17.9092L110.52 17.6265C110.52 17.6265 110.504 17.5599 110.487 17.51L110.703 17.8759H110.769L110.819 17.4435C110.819 17.4435 110.836 17.5433 110.836 17.5599L110.902 17.826H110.969L110.869 17.3438H110.769L110.72 17.7927L110.504 17.4269H110.404L110.504 17.9092H110.57H110.587Z" fill="#333A45"/>
<path d="M111.257 17.8446C111.356 17.8446 111.423 17.7947 111.423 17.7115C111.423 17.6284 111.373 17.6117 111.34 17.5951C111.39 17.5785 111.406 17.5286 111.406 17.4953C111.406 17.4288 111.373 17.3789 111.273 17.3623H111.058V17.8279H111.24L111.257 17.8446ZM111.141 17.4288H111.24C111.24 17.4288 111.34 17.4621 111.34 17.512C111.34 17.5619 111.307 17.5785 111.24 17.5785H111.124V17.4455L111.141 17.4288ZM111.257 17.645C111.257 17.645 111.356 17.645 111.356 17.7282C111.356 17.778 111.323 17.8113 111.257 17.8113H111.141V17.645H111.257V17.645Z" fill="#333A45"/>
<path d="M111.588 17.6772L111.737 17.7271C111.737 17.7271 111.804 17.7936 111.804 17.8269C111.804 17.8269 111.77 17.91 111.787 17.9433H111.87C111.87 17.9433 111.87 17.9433 111.87 17.9101V17.8269C111.87 17.8269 111.87 17.7438 111.87 17.7271C111.903 17.7271 111.953 17.7105 111.97 17.6273C112.003 17.5276 111.936 17.4777 111.853 17.461L111.638 17.3945L111.505 17.8602H111.571L111.621 17.6772H111.588ZM111.671 17.4777L111.804 17.5276C111.804 17.5276 111.887 17.5442 111.853 17.6107C111.853 17.6772 111.787 17.6606 111.754 17.6606L111.621 17.6273L111.671 17.4777V17.4777Z" fill="#333A45"/>
<path d="M112.195 18.1768L112.228 18.1269L111.979 17.9772L112.062 17.8442L112.278 17.9772L112.311 17.9273L112.096 17.7943L112.162 17.6779L112.411 17.8109L112.444 17.761L112.129 17.5947L111.896 17.9938L112.195 18.1768Z" fill="#333A45"/>
<path d="M112.497 18.4754C112.597 18.5918 112.729 18.5419 112.812 18.4754C112.912 18.3922 112.945 18.2592 112.862 18.176L112.729 18.0264L112.364 18.3257L112.48 18.4754H112.497ZM112.812 18.2093C112.812 18.2093 112.862 18.3423 112.779 18.4088C112.696 18.4754 112.613 18.4754 112.563 18.4088L112.497 18.3257L112.746 18.1095L112.812 18.1927V18.2093Z" fill="#333A45"/>
<path d="M112.829 18.9911L112.879 18.9745L112.746 18.7084L112.895 18.6419L113.012 18.8913L113.061 18.8581L112.929 18.6253L113.078 18.5587L113.194 18.8082L113.244 18.7915L113.095 18.4756L112.663 18.6918L112.829 18.9911Z" fill="#333A45"/>
<path d="M113.229 19.3068L112.897 19.3567V19.4232L113.362 19.3567V19.3068C113.279 19.3068 113.263 19.2735 113.246 19.207H113.196V19.3234L113.229 19.3068Z" fill="#333A45"/>
<path d="M113.263 19.5733C113.263 19.5733 113.18 19.5899 113.163 19.6398C113.163 19.5899 113.113 19.5567 113.047 19.54C113.03 19.54 112.98 19.54 112.931 19.5899C112.897 19.6232 112.897 19.6731 112.897 19.7063C112.897 19.8061 112.964 19.8726 113.03 19.8726C113.063 19.8726 113.113 19.8726 113.146 19.8061C113.146 19.8227 113.18 19.8726 113.246 19.8726C113.312 19.8726 113.379 19.8394 113.379 19.7396C113.379 19.6398 113.312 19.5899 113.263 19.5899V19.5733ZM113.047 19.8061C113.047 19.8061 112.964 19.7562 112.964 19.7063C112.964 19.6398 113.014 19.6232 113.047 19.6232C113.08 19.6232 113.13 19.6564 113.113 19.723C113.113 19.7729 113.097 19.8061 113.03 19.8061H113.047ZM113.263 19.8061C113.263 19.8061 113.196 19.7562 113.196 19.723C113.196 19.6897 113.229 19.6564 113.263 19.6564C113.296 19.6564 113.329 19.6564 113.329 19.7396C113.329 19.8061 113.296 19.8227 113.263 19.8227V19.8061Z" fill="#333A45"/>
<path d="M113.194 19.9718V20.0383C113.194 20.0383 113.294 20.0716 113.277 20.1547C113.277 20.2212 113.211 20.2379 113.178 20.2212C113.111 20.2212 113.095 20.1713 113.078 20.1215V20.0549C113.078 20.0549 112.995 19.9385 112.895 19.9053L112.812 20.2212H112.862L112.929 19.9884C112.929 19.9884 112.978 20.0217 112.995 20.0882V20.1381C113.028 20.2212 113.061 20.2878 113.128 20.3044C113.211 20.321 113.277 20.2711 113.31 20.2046C113.31 20.1547 113.327 20.0383 113.178 20.0051L113.194 19.9718Z" fill="#333A45"/>
<path d="M113.113 20.421L113.063 20.5208L112.765 20.3711L112.731 20.4376L113.163 20.6372V20.5873C113.163 20.5873 113.13 20.5041 113.163 20.4376H113.113V20.421Z" fill="#333A45"/>
<path d="M110.553 22.1001H110.603L110.951 20.6699C110.951 20.6699 110.918 20.6699 110.901 20.6699L110.553 22.1001V22.1001Z" fill="#333A45"/>
<path d="M110.505 21.4858H110.555L110.853 20.6543H110.804L110.521 21.4858H110.505Z" fill="#333A45"/>
<path d="M110.013 22.0004H110.062L110.743 20.6035H110.693L110.029 22.0004H110.013Z" fill="#333A45"/>
<path d="M109.893 21.7687L110.623 20.5547H110.573L109.843 21.7354L109.893 21.7687Z" fill="#333A45"/>
<path d="M109.447 21.7844L109.48 21.8343L110.526 20.504C110.526 20.504 110.493 20.4873 110.493 20.4707L109.464 21.8011L109.447 21.7844Z" fill="#333A45"/>
<path d="M109.513 21.4676L110.442 20.4366L110.409 20.4033L109.479 21.4344L109.513 21.4676Z" fill="#333A45"/>
<path d="M110.354 20.3545C110.354 20.3545 110.338 20.3213 110.321 20.3213L108.96 21.5353L108.993 21.5685L110.354 20.3712V20.3545Z" fill="#333A45"/>
<path d="M110.292 20.2715C110.292 20.2715 110.275 20.2383 110.259 20.2383L109.545 20.7538L109.578 20.8037L110.309 20.2882L110.292 20.2715Z" fill="#333A45"/>
<path d="M110.233 20.171V20.1211L109.702 20.4038L109.735 20.4537L110.233 20.171Z" fill="#333A45"/>
<path d="M109.613 20.2709V20.3208L110.161 20.088C110.161 20.088 110.144 20.0547 110.128 20.0381L109.597 20.2709H109.613Z" fill="#333A45"/>
<path d="M109.557 20.1058L109.573 20.1556L110.104 19.9893H110.121L110.104 19.9395L109.557 20.1058Z" fill="#333A45"/>
<path d="M110.098 19.8722V19.8223L109.517 19.9387V19.9886L110.098 19.8555V19.8722Z" fill="#333A45"/>
<path d="M109.479 19.7716V19.8215L110.077 19.755V19.7051L109.479 19.7716Z" fill="#333A45"/>
<path d="M109.479 19.6563H110.06V19.6064H109.479V19.6563Z" fill="#333A45"/>
<path d="M109.479 19.4903L110.06 19.5402V19.4903L109.496 19.4404V19.4903H109.479Z" fill="#333A45"/>
<path d="M109.488 19.3077L110.069 19.4407V19.3908L109.505 19.2578V19.3077H109.488Z" fill="#333A45"/>
<path d="M109.545 19.1573L110.093 19.3402V19.2903L109.562 19.1074V19.1573H109.545Z" fill="#333A45"/>
<path d="M109.633 18.958V19.0079L110.147 19.2407V19.1908L109.633 18.958Z" fill="#333A45"/>
<path d="M109.682 18.8409L110.196 19.1236V19.0737L109.698 18.791L109.665 18.8409H109.682Z" fill="#333A45"/>
<path d="M109.778 18.709L110.243 19.0416C110.243 19.0416 110.26 19.0084 110.276 19.0084L109.812 18.6758L109.778 18.7257V18.709Z" fill="#333A45"/>
<path d="M109.908 18.5244L109.875 18.5577L110.307 18.9235C110.307 18.9235 110.323 18.9069 110.34 18.8903L109.908 18.5244Z" fill="#333A45"/>
<path d="M110.046 18.4092L110.013 18.4424L110.411 18.8582L110.444 18.8249L110.062 18.4092H110.046Z" fill="#333A45"/>
<path d="M110.175 18.292L110.142 18.3253L110.507 18.7743C110.507 18.7743 110.54 18.7576 110.54 18.741L110.191 18.3086L110.175 18.292Z" fill="#333A45"/>
<path d="M110.341 18.21L110.291 18.2432L110.573 18.7255H110.623L110.341 18.2266V18.21Z" fill="#333A45"/>
<path d="M110.486 18.1436H110.437L110.669 18.6757H110.719L110.486 18.1602V18.1436Z" fill="#333A45"/>
<path d="M110.659 18.0762H110.609L110.792 18.6249H110.842L110.659 18.0928V18.0762Z" fill="#333A45"/>
<path d="M110.825 18.0264H110.775L110.892 18.5918H110.941L110.825 18.043V18.0264Z" fill="#333A45"/>
<path d="M111.002 18.5762H111.052L111.002 17.9941H110.952L111.002 18.5762Z" fill="#333A45"/>
<path d="M111.159 18.0098H111.109V18.5752C111.109 18.5752 111.143 18.5752 111.159 18.5752V18.0098Z" fill="#333A45"/>
<path d="M111.202 18.5752H111.252L111.302 18.0098H111.252L111.202 18.5752Z" fill="#333A45"/>
<path d="M111.378 18.6084L111.494 18.043H111.444L111.328 18.5917H111.361L111.378 18.6084Z" fill="#333A45"/>
<path d="M111.653 18.0928H111.603L111.421 18.6083L111.471 18.6416L111.653 18.1094V18.0928Z" fill="#333A45"/>
<path d="M111.819 18.1592H111.77L111.537 18.6414C111.537 18.6414 111.57 18.6581 111.587 18.6747L111.819 18.1592V18.1592Z" fill="#333A45"/>
<path d="M111.9 18.21L111.635 18.6922L111.618 18.7088L111.668 18.7255L111.95 18.2266L111.9 18.21Z" fill="#333A45"/>
<path d="M111.711 18.7576L111.744 18.7909L112.093 18.3419L112.06 18.292L111.711 18.741V18.7576Z" fill="#333A45"/>
<path d="M111.804 18.8249L111.837 18.8582L112.219 18.4424H112.235L112.186 18.4092L111.804 18.8249Z" fill="#333A45"/>
<path d="M111.881 18.9069L111.914 18.9402L112.346 18.5577L112.296 18.5244L111.881 18.9069Z" fill="#333A45"/>
<path d="M111.969 18.9908C111.969 18.9908 111.985 19.0241 112.002 19.0407L112.45 18.7081L112.417 18.6582L111.969 18.9908Z" fill="#333A45"/>
<path d="M112.018 19.0737V19.1236L112.532 18.8409L112.499 18.791L112.001 19.0737H112.018Z" fill="#333A45"/>
<path d="M112.062 19.1732C112.062 19.1732 112.062 19.2065 112.079 19.2231L112.594 18.9903V18.9404L112.046 19.1732H112.062Z" fill="#333A45"/>
<path d="M112.118 19.2903V19.3402L112.666 19.1573V19.1074L112.118 19.2903Z" fill="#333A45"/>
<path d="M112.135 19.3742V19.4241L112.699 19.2911V19.2412L112.135 19.3742Z" fill="#333A45"/>
<path d="M112.151 19.4903V19.5402L112.699 19.4903V19.4404L112.135 19.4903H112.151Z" fill="#333A45"/>
<path d="M112.167 19.6231H112.731V19.5898H112.167V19.6231Z" fill="#333A45"/>
<path d="M112.154 19.8223V19.8722L112.685 19.9886V19.9387L112.154 19.8223Z" fill="#333A45"/>
<path d="M112.719 19.8215V19.7716L112.154 19.7051V19.755L112.702 19.8215H112.719Z" fill="#333A45"/>
<path d="M112.633 20.1556V20.1058L112.135 19.9395V19.9893L112.633 20.1556Z" fill="#333A45"/>
<path d="M112.091 20.0225C112.091 20.0225 112.091 20.0557 112.074 20.0723L112.572 20.3052V20.2553L112.091 20.0225Z" fill="#333A45"/>
<path d="M112.018 20.171L112.482 20.4371L112.516 20.4038L112.034 20.1211L112.001 20.171H112.018Z" fill="#333A45"/>
<path d="M111.949 20.255L112.646 20.7705L112.68 20.7206L111.982 20.2051C111.982 20.2051 111.966 20.2383 111.949 20.2383V20.255Z" fill="#333A45"/>
<path d="M111.914 20.3047L111.881 20.3379L113.176 21.5353L113.209 21.502L111.897 20.3047H111.914Z" fill="#333A45"/>
<path d="M111.804 20.421L112.684 21.452L112.717 21.4187L111.837 20.3877H111.804V20.421Z" fill="#333A45"/>
<path d="M111.711 20.4874L112.707 21.8177L112.74 21.7845L111.744 20.4541C111.744 20.4541 111.711 20.4707 111.711 20.4874Z" fill="#333A45"/>
<path d="M111.618 20.5537L112.315 21.7511H112.365L111.668 20.5371H111.618V20.5537Z" fill="#333A45"/>
<path d="M111.521 20.6045L112.169 22.0014H112.219L111.571 20.5713C111.571 20.5713 111.538 20.5879 111.521 20.5879V20.6045Z" fill="#333A45"/>
<path d="M111.421 20.6377L111.703 21.4692H111.753L111.471 20.6211H111.421V20.6377Z" fill="#333A45"/>
<path d="M111.3 20.6543L111.632 22.0845H111.682L111.35 20.6377H111.3V20.6543Z" fill="#333A45"/>
<path d="M106.291 30.166C106.291 30.166 106.125 30.3489 106.224 30.5152C106.224 30.5152 106.39 30.7148 106.623 30.5152C106.623 30.5152 106.224 30.5152 106.291 30.166V30.166Z" fill="#333A45"/>
<path d="M115.652 30.5152C115.901 30.7148 116.051 30.5152 116.051 30.5152C116.134 30.3489 115.984 30.166 115.984 30.166C116.051 30.5152 115.652 30.5152 115.652 30.5152Z" fill="#333A45"/>
<path d="M107.749 29.9669L107.666 29.917L107.45 30.2662L107.533 30.3161C107.633 30.3826 107.749 30.3494 107.815 30.2496C107.882 30.1332 107.849 30.0334 107.749 29.9669Z" fill="#333A45"/>
<path d="M108.447 30.333C108.347 30.2832 108.231 30.333 108.181 30.4328C108.131 30.5492 108.181 30.6656 108.264 30.7155C108.364 30.7654 108.48 30.7155 108.53 30.5991C108.579 30.4993 108.53 30.3663 108.43 30.333H108.447Z" fill="#333A45"/>
<path d="M110.825 30.9482C110.709 30.9482 110.626 31.0314 110.609 31.1478C110.609 31.2642 110.692 31.364 110.792 31.364C110.892 31.364 110.991 31.2808 111.008 31.1644C111.008 31.048 110.925 30.9482 110.825 30.9482Z" fill="#333A45"/>
<path d="M112.751 30.9643L112.635 30.9975L112.685 31.1805L112.801 31.1472C112.801 31.1472 112.884 31.0807 112.867 31.0308C112.867 30.9809 112.801 30.9477 112.751 30.9643Z" fill="#333A45"/>
<path d="M112.782 30.8143C112.782 30.8143 112.732 30.7478 112.683 30.7644L112.566 30.7976L112.6 30.9473L112.716 30.9141C112.716 30.9141 112.782 30.8642 112.766 30.8143H112.782Z" fill="#333A45"/>
<path d="M113.522 30.4825C113.522 30.4825 113.489 30.4825 113.456 30.4825L113.373 30.5157L113.439 30.6986L113.539 30.6654C113.539 30.6654 113.622 30.5989 113.589 30.5323C113.589 30.4991 113.556 30.4824 113.522 30.4658V30.4825Z" fill="#333A45"/>
<path d="M114.225 30.2325L114.258 30.4155L114.407 30.3323L114.274 30.2159L114.225 30.166C114.225 30.166 114.225 30.2159 114.241 30.2492L114.225 30.2325Z" fill="#333A45"/>
<path d="M115.787 30.2657L115.621 30.1992C115.787 30.1493 115.92 30.1327 116.003 30.1659L115.787 29.983C115.057 29.3178 114.227 29.7834 114.227 29.7834C113.413 30.2491 112.351 30.6648 111.156 30.6648C109.961 30.6648 108.898 30.2491 108.085 29.7834C108.085 29.7834 107.255 29.3178 106.524 29.983L106.309 30.1659C106.309 30.1659 106.524 30.1659 106.69 30.1992L106.524 30.2657C106.74 30.3489 106.657 30.5151 106.657 30.5151L106.923 30.2823C107.454 30.4819 108.101 30.8644 108.101 30.8644C108.898 31.3466 109.977 31.646 111.172 31.646C112.368 31.646 113.463 31.3466 114.243 30.8644C114.243 30.8644 114.891 30.4819 115.422 30.2823L115.688 30.5151C115.688 30.5151 115.605 30.3489 115.82 30.2657H115.787ZM107.52 30.3821L107.371 30.2823L107.653 29.8167L107.803 29.9165C107.952 29.9996 107.985 30.1493 107.902 30.2823C107.819 30.432 107.67 30.4653 107.52 30.3821V30.3821ZM107.902 30.5983L107.836 30.565L108.085 30.0828L108.151 30.116L107.902 30.5983ZM108.234 30.7646C108.085 30.6981 108.035 30.5318 108.101 30.3821C108.168 30.2324 108.334 30.1826 108.467 30.2491C108.616 30.3156 108.666 30.4819 108.599 30.6149C108.533 30.7646 108.367 30.8145 108.218 30.748L108.234 30.7646ZM108.998 30.5983C108.998 30.5983 108.965 30.5318 108.898 30.5151C108.848 30.4985 108.799 30.5151 108.782 30.5484C108.749 30.6482 108.998 30.7147 108.931 30.881C108.898 30.9641 108.815 30.9974 108.716 30.9641C108.616 30.9143 108.566 30.8311 108.566 30.8311L108.633 30.7979C108.633 30.7979 108.666 30.881 108.749 30.8976C108.799 30.9143 108.848 30.8976 108.865 30.8644C108.915 30.748 108.649 30.6814 108.716 30.5318C108.749 30.4486 108.832 30.4154 108.931 30.4486C109.031 30.4819 109.048 30.5484 109.048 30.5484L108.998 30.5983ZM109.446 31.2136C109.33 31.1803 109.263 31.0806 109.297 30.9641L109.38 30.6316H109.446L109.363 30.9974C109.363 30.9974 109.38 31.1304 109.463 31.1637C109.546 31.1803 109.612 31.1637 109.629 31.0639L109.712 30.7313H109.778L109.695 31.0972C109.662 31.2136 109.562 31.2635 109.429 31.2302L109.446 31.2136ZM110.226 31.3633H110.16L109.977 30.9641L109.944 30.881C109.944 30.881 109.944 30.9309 109.944 30.9641L109.878 31.3134H109.795L109.894 30.7646H109.961L110.143 31.1637L110.176 31.2469C110.176 31.2469 110.176 31.197 110.176 31.1637L110.243 30.8145H110.326L110.226 31.3633ZM110.425 31.3799H110.342L110.409 30.8311H110.492L110.425 31.3799ZM110.807 31.4131C110.658 31.4131 110.542 31.2801 110.542 31.1138C110.542 30.9641 110.674 30.8477 110.84 30.8477C110.99 30.8477 111.106 30.9808 111.106 31.1304C111.106 31.2967 110.973 31.4131 110.807 31.3965V31.4131ZM111.554 31.4131L111.305 31.0639L111.255 30.9808C111.255 30.9808 111.255 31.0307 111.255 31.0639V31.4131H111.189V30.881H111.239L111.488 31.2136L111.538 31.2967C111.538 31.2967 111.538 31.2469 111.538 31.2136V30.8644H111.604V31.3965H111.554V31.4131ZM112.052 31.3633L111.969 30.8311H112.052L112.135 31.2967L112.368 31.2635V31.33L112.069 31.3799L112.052 31.3633ZM112.434 31.2967L112.318 30.7646H112.401L112.517 31.2801H112.434V31.2967ZM112.832 31.2136L112.65 31.2635L112.517 30.7313L112.7 30.6814C112.783 30.6648 112.866 30.6814 112.882 30.7812C112.882 30.8311 112.882 30.881 112.849 30.9143C112.849 30.9143 112.949 30.9641 112.965 31.014C112.998 31.1138 112.932 31.1803 112.832 31.2136V31.2136ZM113.098 31.1304L112.932 30.6149L113.231 30.5151V30.5817L113.032 30.6648L113.081 30.8311L113.264 30.7646V30.8311L113.098 30.8976L113.148 31.0639L113.38 30.9808V31.0473L113.081 31.1471L113.098 31.1304ZM113.779 30.881L113.596 30.7313L113.496 30.7812L113.579 30.9808L113.513 31.014L113.314 30.5151L113.463 30.4486C113.463 30.4486 113.546 30.4154 113.563 30.4154C113.629 30.4154 113.679 30.4486 113.696 30.5151C113.729 30.5817 113.696 30.6482 113.662 30.6814H113.679L113.862 30.8477L113.779 30.881V30.881ZM114.044 30.7646L113.845 30.3322L113.679 30.4154L113.646 30.3488L114.044 30.1493L114.077 30.2158L113.911 30.299L114.111 30.7313L114.044 30.7646V30.7646ZM114.592 30.4819L114.476 30.3655L114.293 30.4653L114.326 30.6316L114.26 30.6648L114.177 30.0994L114.243 30.0661L114.675 30.4486L114.609 30.4819H114.592ZM114.874 30.3156L114.725 30.4154L114.443 29.9497L114.592 29.85C114.725 29.7668 114.874 29.7834 114.974 29.9331C115.057 30.0828 115.024 30.2158 114.891 30.3156H114.874Z" fill="#333A45"/>
<path d="M114.59 29.9168L114.507 29.9667L114.723 30.3159L114.806 30.2661C114.905 30.1995 114.938 30.0998 114.872 29.9834C114.806 29.8669 114.689 29.8503 114.59 29.9168V29.9168Z" fill="#333A45"/>
</g>
<path d="M139.318 26.017C139.318 26.8178 138.969 27.0249 138.214 27.0249H137.977V27.2873H142.449C145.986 27.2873 147.621 24.7882 147.621 22.7033C147.621 20.4252 145.986 18.575 142.296 18.575C141.569 18.575 140.716 18.5888 139.947 18.6165C139.179 18.6441 138.494 18.6717 137.977 18.6993V18.9616H138.256C139.081 18.9616 139.318 19.1825 139.318 20.08V26.017ZM140.479 18.8926C140.646 18.8788 141.024 18.8374 141.597 18.8374C143.554 18.8374 144.546 19.3206 145.189 19.9557C146.014 20.7704 146.307 21.9025 146.307 22.9243C146.307 24.3464 145.664 25.4095 145.147 25.9066C144.281 26.7626 143.498 27.0249 141.625 27.0249C140.521 27.0249 140.479 26.8317 140.479 26.2656V18.8926Z" fill="#333A45"/>
<path d="M154.872 21.5574H154.607C154.537 22.3582 154.299 22.5929 153.796 22.5929H151.294V19.1963H154.243C154.747 19.1963 155.096 19.4449 155.278 20.6185H155.529L155.418 18.6993H148.708V18.9616H149.016C149.952 18.9616 150.134 19.293 150.134 20.0662V25.8928C150.134 26.7212 149.938 27.0249 148.82 27.0249H148.429V27.2873H155.851L156.075 25.23H155.823C155.474 26.4174 155.18 26.7902 154.202 26.7902H152.049C151.532 26.7902 151.294 26.666 151.294 26.0308V23.0899H153.656C154.229 23.0899 154.495 23.2004 154.607 24.1807H154.872V21.5574Z" fill="#333A45"/>
<path d="M161.191 25.1886L161.485 27.2873H161.723C161.779 27.2044 161.876 27.1354 162.002 27.1354C162.198 27.1354 163.176 27.5082 163.945 27.5082C165.58 27.5082 166.797 26.5003 166.797 25.1472C166.797 22.6067 162.31 22.082 162.31 20.1214C162.31 19.3482 162.953 18.8236 163.875 18.8236C164.84 18.8236 165.734 19.4587 166.126 20.4528H166.363L166.126 18.6993H165.902C165.818 18.8098 165.762 18.8374 165.65 18.8374C165.161 18.8374 164.924 18.4922 163.749 18.4922C162.324 18.4922 161.261 19.3482 161.261 20.4942C161.261 22.9104 165.748 23.518 165.748 25.5062C165.748 26.5969 164.756 27.1354 163.819 27.1354C162.729 27.1354 161.751 26.4174 161.457 25.1886H161.191Z" fill="#333A45"/>
<path d="M173.341 23.4765L174.278 25.9894C174.334 26.1275 174.432 26.3346 174.432 26.5555C174.432 26.9421 174.138 27.0249 173.341 27.0249H172.978V27.2873H176.822V27.0249C176.123 27.0249 175.829 26.8869 175.55 26.1551L172.629 18.4922H171.413L171.538 18.7959L168.994 25.658C168.547 26.8593 168.393 27.0111 167.485 27.0249V27.2873H170.714V27.0249H170.49C169.721 27.0249 169.358 26.8869 169.358 26.5141C169.358 26.3208 169.539 25.9066 169.637 25.6442L170.448 23.4765H173.341ZM173.104 22.869H170.686L171.874 19.652L173.104 22.869Z" fill="#333A45"/>
<path d="M184.492 25.2715H184.241C183.36 26.4727 183.109 26.7902 182.284 26.7902H180.229C179.824 26.7902 179.67 26.6522 179.67 26.2794V19.9143C179.67 19.0583 179.908 18.9616 180.816 18.9616H181.333V18.6993H177.21V18.9616H177.406C178.286 18.9616 178.51 19.2654 178.51 19.9972V26.1137C178.51 26.8178 178.272 27.0249 177.629 27.0249H177.168V27.2873H183.416L184.492 25.2715Z" fill="#333A45"/>
<path d="M192.219 18.6993V18.9616C193.379 19.0169 193.589 19.2516 193.589 20.5771V23.7941C193.589 26.1413 191.981 26.7902 190.402 26.7902C188.319 26.7902 187.215 25.6719 187.215 23.8079V19.9695C187.215 19.1687 187.55 18.9616 188.319 18.9616H188.445V18.6993H184.852V18.9616C185.803 18.9754 186.054 19.1135 186.054 19.9972V24.0288C186.054 26.0032 187.424 27.5082 190.094 27.5082C193.127 27.5082 194.232 25.6719 194.232 23.9598V20.2319C194.232 19.3482 194.567 18.9754 195.504 18.9616V18.6993H192.219Z" fill="#333A45"/>
<path d="M197.223 26.017C197.223 26.8178 196.873 27.0249 196.118 27.0249H195.881V27.2873H200.354C203.89 27.2873 205.525 24.7882 205.525 22.7033C205.525 20.4252 203.89 18.575 200.2 18.575C199.473 18.575 198.62 18.5888 197.852 18.6165C197.083 18.6441 196.398 18.6717 195.881 18.6993V18.9616H196.16C196.985 18.9616 197.223 19.1825 197.223 20.08V26.017ZM198.383 18.8926C198.551 18.8788 198.928 18.8374 199.501 18.8374C201.458 18.8374 202.45 19.3206 203.093 19.9557C203.918 20.7704 204.212 21.9025 204.212 22.9243C204.212 24.3464 203.569 25.4095 203.051 25.9066C202.185 26.7626 201.402 27.0249 199.529 27.0249C198.425 27.0249 198.383 26.8317 198.383 26.2656V18.8926Z" fill="#333A45"/>
<defs>
<clipPath id="clip0_5071_44434">
<rect width="44.6667" height="46" fill="white" transform="translate(88.9307)"/>
</clipPath>
</defs>
</svg>
