<svg width="350" height="78" viewBox="0 0 350 78" fill="none" xmlns="http://www.w3.org/2000/svg">
<path d="M11.0602 46.2694L16.9618 33.7908H17.0092L17.6966 44.2794C17.7914 45.5202 16.7011 45.8245 15.5872 45.8245V46.2694H21.6784V45.8245C19.9482 45.8245 19.7586 45.8246 19.6164 43.6707L18.858 33.065C18.8106 32.269 19.2609 32.2456 20.4223 32.152V31.7305H16.9381L11.2498 43.5302L5.53771 31.7305H1.95878V32.152C3.42827 32.2456 3.47568 32.667 3.38087 34.2122L2.81203 43.3195C2.69353 45.45 2.48021 45.8245 0.75 45.8245V46.2694H5.67992V45.8245C4.61335 45.7777 3.71269 45.5202 3.7838 44.3262L4.42374 33.7908H4.47114L10.515 46.2694H11.0602Z" fill="#313945"/>
<path d="M29.002 45.8245C27.3666 45.8245 26.9874 45.3563 26.9874 43.975V34.0483C26.9874 32.4797 27.5088 32.152 29.002 32.152V31.7071H23.2426V32.152C24.5698 32.2222 25.0202 32.5734 25.0202 33.8376V43.8111C25.0202 45.3797 24.7121 45.7543 23.2426 45.8245V46.2694H29.002V45.8245Z" fill="#313945"/>
<path d="M46.7784 46.4333V33.3694C46.7784 32.4563 47.1576 32.152 48.9352 32.152V31.7071H43.3891V32.152C45.2852 32.1988 45.7118 32.4563 45.7118 33.8844V43.2024L34.5484 31.7071H30.8272V32.152C31.6568 32.1754 32.273 32.3627 32.8182 32.7373V44.2559C32.8182 45.3329 32.3441 45.8245 30.8746 45.8245H30.7798V46.2694H36.2786V45.8245C34.264 45.8245 33.8847 45.4734 33.8847 43.7877V33.744L46.1621 46.4333H46.7784Z" fill="#313945"/>
<path d="M56.1755 45.8245C54.5401 45.8245 54.1608 45.3563 54.1608 43.975V34.0483C54.1608 32.4797 54.6823 32.152 56.1755 32.152V31.7071H50.416V32.152C51.7433 32.2222 52.1936 32.5734 52.1936 33.8376V43.8111C52.1936 45.3797 51.8855 45.7543 50.416 45.8245V46.2694H56.1755V45.8245Z" fill="#313945"/>
<path d="M58.2851 42.7108L58.7828 46.2694H59.1857C59.2805 46.1289 59.4465 46.0118 59.6598 46.0118C59.9916 46.0118 61.6507 46.644 62.9543 46.644C65.7274 46.644 67.7894 44.9349 67.7894 42.6405C67.7894 38.3327 60.1812 37.4431 60.1812 34.1186C60.1812 32.8075 61.2715 31.9178 62.8358 31.9178C64.4712 31.9178 65.9881 32.9948 66.6517 34.6805H67.0547L66.6517 31.7071H66.2725C66.1303 31.8944 66.0355 31.9413 65.8459 31.9413C65.0163 31.9413 64.6134 31.356 62.6225 31.356C60.2049 31.356 58.4036 32.8075 58.4036 34.7507C58.4036 38.8478 66.0118 39.8779 66.0118 43.2492C66.0118 45.0988 64.329 46.0118 62.741 46.0118C60.8923 46.0118 59.2332 44.7944 58.7354 42.7108H58.2851Z" fill="#313945"/>
<path d="M77.8681 32.55H81.9922C82.9402 32.55 83.3669 33.0884 83.7224 35.1487H84.149L83.7698 31.356H83.3194C83.272 31.6369 82.9165 31.7071 82.5847 31.7071H71.1843C71.0184 31.7071 70.8525 31.6837 70.7102 31.6369C70.568 31.5901 70.4732 31.4964 70.4495 31.356H69.9992L69.62 35.1487H70.0466C70.4021 33.0884 70.8288 32.55 71.7768 32.55H75.9009V44.1155C75.9009 45.3797 75.4743 45.8245 74.0285 45.8245H73.1515V46.2694H80.6175V45.8245H79.7405C78.2947 45.8245 77.8681 45.3797 77.8681 44.1155V32.55Z" fill="#313945"/>
<path d="M95.8992 36.5534H95.4489C95.3304 37.9113 94.9275 38.3093 94.0742 38.3093H89.8316V32.55H94.8327C95.6859 32.55 96.2785 32.9714 96.5866 34.9614H97.0132L96.8236 31.7071H85.4468V32.152H85.9683C87.5563 32.152 87.8644 32.7139 87.8644 34.0249V43.9048C87.8644 45.3095 87.5326 45.8245 85.6365 45.8245H84.9728V46.2694H97.5583L97.9376 42.781H97.5109C96.9184 44.7944 96.4207 45.4265 94.7615 45.4265H91.1115C90.2346 45.4265 89.8316 45.2158 89.8316 44.1389V39.1521H93.8372C94.809 39.1521 95.2593 39.3394 95.4489 41.0017H95.8992V36.5534Z" fill="#313945"/>
<path d="M103.691 40.112C104.07 40.1354 104.378 40.1589 104.9 40.1589C105.54 40.1589 105.919 40.1354 106.512 40.112C107.08 40.4866 107.91 41.1656 108.953 42.1957L110.517 43.7409C112.627 45.8246 113.693 46.7142 117.841 46.5269V46.1055C116.016 45.9884 114.57 45.1222 113.172 43.7409L111.299 41.8913C110.185 40.791 109.474 40.1354 108.597 39.4565C110.541 38.8946 111.75 37.4197 111.75 35.6638C111.75 33.2757 109.782 31.4964 105.398 31.4964C103.857 31.4964 103.383 31.5198 102.411 31.5667C101.439 31.6135 99.9937 31.7071 99.4248 31.7071V32.152H99.9463C101.321 32.152 101.724 32.5734 101.724 34.0249V43.8814C101.724 45.45 101.226 45.8245 99.8278 45.8245H99.4248V46.2694H106.132V45.8245H105.587C104.26 45.8245 103.691 45.4734 103.691 44.0687V40.112ZM103.691 31.9881C104.118 31.9413 104.426 31.9413 104.876 31.9413C108.526 31.9413 109.522 33.6269 109.522 35.8042C109.522 38.6137 107.791 39.714 105.161 39.714C104.615 39.714 104.26 39.7374 103.691 39.6672V31.9881Z" fill="#313945"/>
<path d="M124.803 45.8245C123.168 45.8245 122.789 45.3563 122.789 43.975V34.0483C122.789 32.4797 123.31 32.152 124.803 32.152V31.7071H119.044V32.152C120.371 32.2222 120.822 32.5734 120.822 33.8376V43.8111C120.822 45.3797 120.513 45.7543 119.044 45.8245V46.2694H124.803V45.8245Z" fill="#313945"/>
<path d="M144.12 38.5903C144.12 34.3761 140.281 31.356 135.801 31.356C130.753 31.356 127.126 34.657 127.126 39.316C127.126 43.6941 131.037 46.644 135.683 46.644C140.281 46.644 144.12 43.3195 144.12 38.5903ZM141.892 39.3628C141.892 42.6873 140.044 46.0587 136.18 46.0587C132.364 46.0587 129.354 42.9683 129.354 38.5903C129.354 35.7808 131.013 31.9413 135.185 31.9413C139.096 31.9413 141.892 35.0082 141.892 39.3628Z" fill="#313945"/>
<g clip-path="url(#clip0_3254_73558)">
<path d="M189.269 -0.00012207L190.338 2.17113L192.731 2.5095L190.986 4.20139L191.408 6.59822L189.269 5.4703L187.13 6.59822L187.524 4.20139L185.807 2.5095L188.199 2.17113L189.269 -0.00012207Z" fill="#313945"/>
<path d="M204.961 4.03162L206.031 6.17467L208.423 6.54124L206.706 8.23313L207.1 10.6018L204.961 9.47384L202.822 10.6018L203.244 8.23313L201.499 6.54124L203.892 6.17467L204.961 4.03162Z" fill="#313945"/>
<path d="M217.022 13.787L218.092 15.9582L220.484 16.2966L218.767 17.9885L219.161 20.3853L217.022 19.2574L214.883 20.3853L215.305 17.9885L213.588 16.2966L215.952 15.9582L217.022 13.787Z" fill="#313945"/>
<path d="M223.919 27.7745L224.989 29.9458L227.381 30.3124L225.664 32.0042L226.058 34.3729L223.919 33.245L221.78 34.3729L222.202 32.0042L220.457 30.3124L222.85 29.9458L223.919 27.7745Z" fill="#313945"/>
<path d="M224.164 44.0177L225.233 46.1889L227.626 46.5555L225.909 48.2192L226.303 50.616L224.164 49.4881L222.024 50.616L222.447 48.2192L220.729 46.5555L223.122 46.1889L224.164 44.0177Z" fill="#313945"/>
<path d="M217.05 58.0872L218.12 60.2584L220.512 60.5968L218.767 62.2887L219.189 64.6855L217.05 63.5576L214.911 64.6855L215.333 62.2887L213.588 60.5968L215.98 60.2584L217.05 58.0872Z" fill="#313945"/>
<path d="M205.058 67.8724L206.127 70.0437L208.52 70.3821L206.775 72.0739L207.197 74.4426L205.058 73.3429L202.919 74.4426L203.313 72.0739L201.596 70.3821L203.988 70.0437L205.058 67.8724Z" fill="#313945"/>
<path d="M189.269 71.3131L190.338 73.4562L192.703 73.8227L190.986 75.5146L191.408 77.8833L189.269 76.7553L187.13 77.8833L187.524 75.5146L185.807 73.8227L188.199 73.4562L189.269 71.3131Z" fill="#313945"/>
<path d="M173.809 67.8724L174.878 70.0437L177.271 70.3821L175.526 72.0739L175.948 74.4708L173.809 73.3429L171.67 74.4708L172.064 72.0739L170.347 70.3821L172.739 70.0437L173.809 67.8724Z" fill="#313945"/>
<path d="M161.788 58.0875L162.858 60.2588L165.25 60.6253L163.533 62.3172L163.928 64.6859L161.788 63.5579L159.649 64.6859L160.071 62.3172L158.326 60.6253L160.719 60.2588L161.788 58.0875Z" fill="#313945"/>
<path d="M154.653 44.13L155.722 46.3013L158.115 46.6396L156.398 48.3315L156.792 50.7284L154.653 49.6004L152.514 50.7284L152.936 48.3315L151.219 46.6396L153.583 46.3013L154.653 44.13Z" fill="#313945"/>
<path d="M154.653 27.774L155.722 29.9453L158.115 30.3119L156.398 32.0038L156.792 34.3724L154.653 33.2445L152.514 34.3724L152.936 32.0038L151.219 30.3119L153.583 29.9453L154.653 27.774Z" fill="#313945"/>
<path d="M161.426 13.8185L162.496 15.9897L164.888 16.3281L163.171 18.02L163.565 20.4168L161.426 19.2889L159.287 20.4168L159.709 18.02L157.964 16.3281L160.356 15.9897L161.426 13.8185Z" fill="#313945"/>
<path d="M173.781 4.03162L174.851 6.20287L177.244 6.54124L175.499 8.23313L175.921 10.63L173.781 9.50204L171.642 10.63L172.036 8.23313L170.319 6.54124L172.712 6.20287L173.781 4.03162Z" fill="#313945"/>
<path d="M207.579 44.5804H207.551C207.382 44.5804 207.241 44.6932 207.241 44.8624C207.241 45.0316 207.382 45.1726 207.551 45.1726H207.635C207.776 45.1726 207.945 45.0316 207.945 44.8624C207.945 44.6932 207.804 44.5522 207.635 44.5522H207.607L207.579 44.5804Z" fill="#313945"/>
<path d="M210.88 40.4074C210.88 40.4074 210.373 40.492 210.148 40.6894C210.035 40.774 209.894 40.8304 209.726 40.8586C209.81 40.7176 209.838 40.5202 209.838 40.2946C209.782 39.7589 209.782 38.8565 209.782 38.8565C209.782 38.8565 209.613 39.3923 209.332 39.5333C209.05 39.6743 208.572 39.8435 208.487 40.0127C208.403 40.1818 208.037 40.1818 207.896 40.7458C207.755 41.2816 207.755 41.2252 207.671 41.4226C207.671 41.479 207.615 41.5354 207.558 41.6199C207.727 40.8022 207.868 39.9563 207.868 39.2513C207.868 39.1385 207.868 38.9975 207.868 38.8847C208.009 38.7719 208.177 38.5746 208.177 38.5746C208.29 38.3772 209.669 37.8978 209.866 37.5312C210.063 37.1647 210.176 36.9109 210.26 36.7417C210.345 36.5725 210.514 35.9803 210.486 35.7266C210.486 35.4728 210.429 34.4858 210.317 34.3448C210.317 34.3448 209.894 34.5704 209.754 34.796C209.726 34.8524 209.669 34.9088 209.613 34.9652C209.613 34.8242 209.613 34.7114 209.557 34.5704C209.36 34.0911 209.078 33.4707 209.078 33.4707C209.078 33.4707 208.825 33.8655 208.684 34.1193C208.459 34.5986 208.206 34.6268 208.177 34.796C208.177 34.9934 207.868 35.1062 207.755 35.4728C207.727 35.6138 207.699 35.6984 207.671 35.7829C207.558 34.9934 207.446 34.2603 207.277 33.6117C207.333 33.4143 207.417 32.9349 207.615 32.794C207.896 32.5684 207.924 32.2582 207.924 31.8916C207.924 31.525 207.84 31.2713 207.783 31.0457C207.755 30.8201 207.052 29.8896 207.108 29.6076C207.108 29.6076 206.77 30.3689 206.629 30.6791C206.292 30.3407 205.785 29.946 205.503 29.805C205.335 29.523 205.166 29.2128 204.969 28.9026C204.969 28.818 204.969 28.6206 205.025 28.4233C205.081 28.1413 205.166 27.6901 205.081 27.4927C204.997 27.2671 204.8 27.0979 204.715 26.816C204.631 26.534 204.575 26.3648 204.349 26.1392C204.124 25.9136 203.815 25.6035 203.815 25.6035C203.815 25.6035 203.73 25.9982 203.646 26.3366C203.561 26.2802 203.477 26.252 203.421 26.252C203.364 26.252 203.252 26.1674 203.139 26.111C202.97 25.8854 202.829 25.688 202.689 25.5189C202.773 25.4625 202.829 25.3779 202.829 25.2651C202.829 25.0959 202.689 24.9549 202.52 24.9549C202.351 24.9549 202.21 25.0959 202.21 25.2651C202.21 25.4343 202.351 25.5753 202.52 25.5753C202.576 25.5753 202.632 25.5753 202.689 25.5189C202.717 25.5753 202.858 25.7726 203.026 26.0546C202.886 25.97 202.745 25.8854 202.689 25.8572C202.576 25.7726 202.52 26.675 202.773 27.1543H202.632C202.098 26.9852 201.591 27.0416 201.591 27.0416C201.732 27.0416 202.041 27.3799 202.069 27.5773C202.126 27.7465 202.435 28.1695 202.604 28.2541C202.773 28.3387 203.083 28.5642 203.28 28.7616C203.477 28.959 204.012 28.9872 204.406 28.9872C204.575 29.0718 204.715 29.1 204.8 29.0718C204.969 29.3538 205.138 29.664 205.306 29.946C205.25 30.1715 205.166 30.5663 205.194 30.7073C204.969 30.6791 204.209 30.4817 204.209 30.4817C204.293 30.9329 204.406 31.3841 204.603 31.6096C204.575 31.6378 204.518 31.6942 204.518 31.7506C204.518 31.8352 204.518 31.948 204.575 32.0326C204.575 32.0326 204.743 32.2864 204.997 32.3992L201.309 34.9934C201.591 30.5945 201.084 26.393 200.944 25.4625C201.394 25.2933 201.281 25.0959 201.281 25.0959L201.112 24.6447C201.112 24.6447 201.197 24.6729 201.253 24.6729C201.338 24.6729 201.422 24.6447 201.45 24.5883C201.563 24.4755 201.535 24.2499 201.394 24.1372C201.394 24.1372 201.281 23.9962 201.112 23.9398L201.647 23.8552L201.957 22.5863L200.718 23.0092V23.545C200.606 23.3758 200.465 23.2912 200.465 23.2912C200.324 23.1502 200.127 23.1502 200.015 23.2912C199.902 23.404 199.93 23.6296 200.071 23.7424C200.071 23.7424 200.268 23.9398 200.521 23.9962L194.329 30.8483L190.219 23.968C190.473 22.3043 189.572 19.7665 189.544 19.6819C189.6 19.4563 189.628 19.2307 189.628 19.0051C189.91 18.9205 189.994 18.6949 190.022 18.6103C190.022 18.6103 189.741 18.2156 189.544 18.0464C189.628 18.0464 189.713 18.0464 189.769 18.0464C189.966 18.0464 190.107 17.9054 190.107 17.7362C190.107 17.567 189.938 17.426 189.769 17.426C189.769 17.426 189.6 17.426 189.431 17.4542L189.769 17.0312L189.122 15.8751L188.502 17.0312L188.84 17.4542C188.671 17.3978 188.502 17.426 188.502 17.426C188.39 17.426 188.305 17.4542 188.249 17.5388C188.193 17.5952 188.165 17.6516 188.165 17.7362C188.165 17.8208 188.193 17.8772 188.249 17.9336C188.305 17.99 188.418 18.0464 188.502 18.0464H188.53C188.53 18.0464 188.643 18.0464 188.699 18.0464C188.587 18.131 188.446 18.3002 188.362 18.4129C188.333 18.4411 188.305 18.4693 188.277 18.5257V18.6103C188.277 18.6103 188.39 18.8077 188.474 18.8641C187.996 19.7383 186.842 22.2761 187.517 24.9267L183.971 30.8765L177.75 24.0244C178.003 23.9962 178.228 23.7988 178.257 23.7706C178.341 23.7142 178.369 23.6014 178.369 23.5168C178.369 23.4322 178.369 23.3758 178.313 23.3194C178.257 23.263 178.2 23.2348 178.116 23.2348C178.031 23.2348 177.919 23.263 177.862 23.3194C177.862 23.3194 177.722 23.4322 177.637 23.5732V23.0374L176.371 22.6145L176.68 23.8834L177.215 23.968C177.046 24.0526 176.934 24.1653 176.934 24.1653C176.849 24.2217 176.821 24.3345 176.821 24.4191C176.821 24.5037 176.821 24.5601 176.905 24.6165C176.962 24.6729 177.018 24.7011 177.102 24.7011C177.102 24.7011 177.187 24.7011 177.243 24.6729L177.074 25.0959C177.074 25.0959 176.962 25.2933 177.412 25.4625C177.271 26.393 176.765 30.5945 177.046 34.9934L173.359 32.3992C173.612 32.3146 173.781 32.0608 173.781 32.0608C173.837 31.9762 173.865 31.8916 173.837 31.807C173.837 31.7224 173.809 31.666 173.753 31.6378C173.95 31.4123 174.063 30.9611 174.147 30.5099C174.147 30.5099 173.387 30.6791 173.162 30.7355C173.162 30.5663 173.106 30.1715 173.049 29.9742C173.218 29.6922 173.387 29.382 173.556 29.1C173.64 29.1 173.781 29.1 173.95 29.0154C174.344 29.0154 174.907 28.9872 175.076 28.7898C175.245 28.5924 175.554 28.3669 175.751 28.2823C175.92 28.1977 176.23 27.8029 176.286 27.6055C176.314 27.4363 176.652 27.0698 176.765 27.0698C176.765 27.0698 176.286 27.0134 175.723 27.1543H175.583C175.864 26.7032 175.78 25.8008 175.667 25.8854C175.611 25.9136 175.47 25.9982 175.329 26.0828C175.498 25.8008 175.611 25.6317 175.667 25.5471C175.723 25.5753 175.78 25.6035 175.836 25.6035C176.005 25.6035 176.145 25.4625 176.145 25.2933C176.145 25.1241 176.005 24.9831 175.836 24.9831C175.667 24.9831 175.526 25.1241 175.526 25.2933C175.526 25.4061 175.583 25.4907 175.667 25.5471C175.526 25.7162 175.385 25.9136 175.217 26.1392C175.104 26.1956 174.963 26.252 174.935 26.2802C174.879 26.2802 174.794 26.3366 174.71 26.3648C174.625 26.0546 174.541 25.6316 174.541 25.6316C174.541 25.6316 174.231 25.9418 174.006 26.1674C173.781 26.393 173.725 26.5622 173.64 26.8442C173.556 27.1261 173.359 27.2953 173.274 27.5209C173.19 27.7465 173.274 28.1977 173.331 28.4515C173.359 28.6488 173.387 28.8462 173.387 28.9308C173.218 29.241 173.021 29.523 172.852 29.8332C172.571 29.9741 172.064 30.3689 171.726 30.7073C171.586 30.3971 171.276 29.6358 171.276 29.6358C171.332 29.9178 170.657 30.8483 170.6 31.0739C170.544 31.2995 170.46 31.5532 170.46 31.9198C170.46 32.2864 170.488 32.5966 170.769 32.8222C170.966 32.9631 171.023 33.4425 171.107 33.6399C170.966 34.2885 170.826 35.0216 170.713 35.8111C170.713 35.7266 170.685 35.642 170.629 35.501C170.516 35.1344 170.234 35.0216 170.206 34.8242C170.178 34.655 169.925 34.5986 169.7 34.1475C169.559 33.8937 169.306 33.4989 169.306 33.4989C169.306 33.4989 168.996 34.1193 168.827 34.5986C168.771 34.7396 168.771 34.8524 168.771 34.9934C168.714 34.937 168.658 34.9088 168.63 34.8242C168.489 34.5986 168.067 34.373 168.067 34.373C167.983 34.5422 167.926 35.501 167.898 35.7548C167.87 36.0085 168.039 36.6007 168.123 36.7699C168.208 36.9391 168.32 37.1929 168.517 37.5594C168.714 37.926 170.094 38.4054 170.206 38.6028C170.206 38.6028 170.375 38.8001 170.516 38.9129C170.516 39.0257 170.516 39.1667 170.516 39.2795C170.516 40.0127 170.629 40.8304 170.826 41.6481C170.769 41.5918 170.741 41.5072 170.713 41.4508C170.629 41.2816 170.629 41.3098 170.488 40.774C170.347 40.2382 169.981 40.2382 169.897 40.0409C169.812 39.8717 169.306 39.6743 169.052 39.5615C168.799 39.4205 168.602 38.8847 168.602 38.8847C168.602 38.8847 168.602 39.7871 168.546 40.3228C168.546 40.5484 168.574 40.7458 168.658 40.8868C168.489 40.8586 168.349 40.8022 168.236 40.7176C168.011 40.5484 167.504 40.4356 167.504 40.4356C167.476 40.6048 167.729 41.6199 167.786 41.8737C167.842 42.1557 168.18 42.6915 168.32 42.8043C168.461 42.9453 168.63 43.1708 168.94 43.481C169.249 43.7912 170.066 43.8758 170.966 44.1578C171.304 44.2706 171.501 44.4961 171.586 44.6371C171.614 44.7499 171.642 44.8627 171.67 44.9191C171.783 45.3139 171.895 45.7933 172.064 46.3008C171.811 45.9624 171.389 45.8779 170.882 45.7933C170.572 45.7369 169.362 45.4267 169.362 45.4267C169.643 45.6523 169.84 46.2444 170.009 46.7802C169.306 46.6392 168.602 46.7802 168.602 46.7802C168.743 46.8648 169.671 47.6825 169.812 48.1337C169.953 48.5849 170.431 49.3744 170.572 49.4872C170.713 49.5718 171.107 50.0794 171.389 50.3331C171.67 50.6151 172.74 50.4741 173.106 50.4741C173.331 50.4741 173.697 50.6433 173.922 50.7279C174.147 51.0381 174.541 51.4611 175.048 51.9122C174.766 51.7994 174.231 51.4611 174.063 51.2637C173.894 51.0381 174.063 52.0532 174.288 52.3916C174.006 52.3916 173.668 52.307 173.5 52.166C173.19 51.9404 173.471 52.9838 173.781 53.2657C174.485 53.8861 174.4 53.9707 174.513 54.0271C173.922 54.1399 173.106 54.3373 172.852 54.1963C172.543 54.0271 173.218 54.6475 173.64 54.8166C174.231 55.0422 174.147 55.437 174.794 55.6344C175.47 55.86 176.202 56.1137 176.596 56.0573C176.905 56.001 177.131 55.86 177.581 55.8036C177.975 55.7472 178.651 55.2396 179.382 55.1268C180.114 55.578 180.846 56.001 181.578 56.3393L181.691 56.3957C181.691 56.3957 181.522 56.3957 181.437 56.4239C181.156 56.4803 180.058 56.7341 179.777 56.5931C179.523 56.4521 180.058 57.1853 180.396 57.4673C179.861 57.58 179.129 57.6364 178.876 57.58C178.51 57.4955 179.608 58.5388 180.03 58.6516H180.086C179.748 58.7926 179.411 58.8772 179.27 58.849C178.904 58.849 180.452 59.8359 180.874 59.7795C182.253 59.5821 183.52 60.0615 184.168 59.7795C184.73 59.5539 185.068 59.4129 185.35 59.3001C185.631 59.1873 185.8 58.9336 185.969 58.8208C186.11 58.708 186.194 58.4824 186.673 58.2568C186.673 58.2568 187.545 58.3414 188.108 58.285C187.939 58.3414 187.742 58.4542 187.517 58.6516C186.813 58.8772 186.25 59.0745 186.053 59.1591C185.519 59.4411 184.139 60.6536 183.773 61.0484C183.773 61.0484 184.928 60.9638 185.125 60.9638C185.322 60.9638 185.716 60.1743 185.885 60.0333C185.941 60.0051 186.222 59.8359 186.673 59.6385C185.885 60.9074 187.039 61.9507 187.039 61.9507C186.729 61.5842 187.067 60.9638 187.067 60.9638L187.686 61.3586C186.898 60.0051 188.108 59.0745 188.53 58.849L188.671 58.7926C188.812 58.9618 188.981 59.0745 189.178 59.0745C189.375 59.0745 189.544 58.9618 189.656 58.8208C189.741 58.849 189.825 58.8772 189.91 58.9054C190.388 59.2155 191.401 60.0897 190.642 61.3586L191.261 60.9638C191.261 60.9638 191.599 61.5842 191.289 61.9507C191.289 61.9507 192.415 60.9356 191.683 59.6667C192.077 59.8359 192.33 59.9769 192.359 60.0051C192.527 60.1461 192.95 60.9356 193.118 60.9356C193.287 60.9356 194.47 61.0202 194.47 61.0202C194.104 60.6254 192.724 59.4129 192.19 59.1309C192.021 59.0463 191.486 58.8772 190.839 58.6516C190.585 58.4542 190.388 58.3414 190.219 58.2568C190.81 58.3132 191.655 58.2568 191.655 58.2568C192.077 58.4542 192.19 58.6798 192.302 58.7644C192.471 58.9054 192.64 59.1591 192.921 59.2437C193.203 59.3283 193.541 59.4975 194.104 59.7231C194.723 59.9769 196.018 59.5257 197.397 59.7231C197.819 59.7795 199.395 58.7644 199.001 58.7926C198.832 58.7926 198.523 58.708 198.185 58.5952H198.241C198.664 58.4542 199.761 57.4109 199.395 57.4955C199.142 57.5518 198.41 57.4955 197.875 57.3827C198.213 57.1007 198.72 56.3957 198.495 56.5085C198.213 56.6495 197.115 56.3957 196.834 56.3393C196.75 56.3393 196.665 56.3111 196.581 56.3111L196.693 56.2547C197.425 55.9164 198.157 55.4934 198.889 55.0422C199.649 55.1268 200.296 55.6626 200.69 55.719C201.141 55.7472 201.366 55.8882 201.675 55.9728C202.069 56.0574 202.801 55.7754 203.477 55.5498C204.124 55.3524 204.04 54.9576 204.631 54.732C205.053 54.5629 205.729 53.9425 205.419 54.1117C205.166 54.2527 204.349 54.0553 203.758 53.9425C203.871 53.9143 203.815 53.8015 204.49 53.1812C204.8 52.871 205.081 51.8276 204.772 52.0814C204.603 52.2224 204.293 52.2788 203.983 52.307C204.181 51.9686 204.378 50.9253 204.209 51.1791C204.04 51.4047 203.505 51.7148 203.223 51.8276C203.73 51.3483 204.124 50.9535 204.349 50.6433C204.575 50.5587 204.941 50.3895 205.166 50.3895C205.532 50.3895 206.601 50.5305 206.883 50.2486C207.164 49.9666 207.558 49.4872 207.699 49.4026C207.84 49.318 208.318 48.5003 208.459 48.0491C208.6 47.5979 209.529 46.7802 209.669 46.6956C209.669 46.6956 208.966 46.5546 208.262 46.6956C208.431 46.1598 208.628 45.5677 208.909 45.3421C208.909 45.3421 207.699 45.6523 207.389 45.7087C206.883 45.7933 206.46 45.8779 206.207 46.2162C206.376 45.7087 206.489 45.2293 206.601 44.8345C206.601 44.7499 206.658 44.6653 206.686 44.5525C206.77 44.4116 206.967 44.186 207.305 44.0732C208.206 43.763 209.022 43.7066 209.332 43.3964C209.641 43.0862 209.81 42.8607 209.951 42.7197C210.092 42.5787 210.429 42.0429 210.486 41.7891C210.514 41.5354 210.795 40.5484 210.767 40.351L210.88 40.4074ZM207.643 39.5333C207.643 39.8999 207.53 40.5484 207.361 41.3662C207.361 41.0842 207.249 40.8304 207.164 40.633C207.023 40.351 206.855 40.351 206.77 40.0973C206.686 39.8153 206.376 39.7307 206.179 39.5051C206.01 39.2795 205.644 39.0257 205.644 39.0257C205.503 39.3359 205.475 40.5484 205.56 40.7176C205.56 40.774 205.616 40.8868 205.616 40.9996C205.475 40.9432 205.363 40.915 205.363 40.915C205.138 41.4508 205.391 41.9865 205.503 42.4659C205.503 42.6351 205.729 42.9171 205.813 43.0862C205.898 43.2554 205.869 43.4246 205.954 43.5656C206.038 43.6784 206.235 43.7066 206.432 43.8758C206.432 44.2142 206.489 44.4961 206.545 44.5807C206.376 45.1729 206.179 45.7369 205.982 46.329C205.982 46.1316 205.898 45.9342 205.757 45.7087C205.532 45.3421 205.475 45.3703 205.363 44.9755C205.194 44.4961 204.828 44.4961 204.772 43.9886C204.772 43.9886 204.631 44.5807 204.603 45.0601C204.546 45.5395 204.631 45.7369 204.687 45.9906C204.715 46.1598 204.659 46.3572 204.603 46.5828C204.603 46.329 204.546 45.9624 204.434 45.7933C204.293 45.6241 204.349 45.2575 204.349 45.2575C204.265 45.4267 203.843 45.9906 203.674 46.1598L203.505 45.8779C205.869 41.7609 205.306 34.6832 205.222 33.7245C205.616 33.6399 205.532 33.4425 205.532 33.4425L205.447 32.9913C205.447 32.9913 205.532 33.0477 205.56 33.0477C205.56 33.0477 205.616 33.0477 205.644 33.0477C205.7 33.0477 205.757 33.0477 205.813 32.9913C205.869 32.9349 205.926 32.8785 205.926 32.7658C206.095 32.9349 206.263 33.1041 206.404 33.1323C206.714 33.2169 206.995 33.3579 207.023 33.4989C207.22 34.3167 207.389 35.219 207.474 36.0649C207.108 35.6702 207.023 34.9088 206.235 34.4858C206.235 34.4858 206.263 34.796 206.235 35.0216C206.207 35.1626 206.151 35.4728 206.151 35.7266C205.869 35.5292 205.588 35.2472 205.532 35.1344C205.532 35.1344 205.391 36.2341 205.7 36.8545C206.01 37.4466 206.01 37.7568 206.376 37.8696C206.742 38.0106 206.798 38.0952 206.911 38.1798C207.052 38.2644 207.277 38.4054 207.446 38.4054C207.502 38.4054 207.53 38.4336 207.558 38.4618C207.558 38.5464 207.615 38.631 207.643 38.7437C207.643 38.9975 207.643 39.1949 207.643 39.4205V39.5333ZM176.342 34.6832L178.735 36.3751C178.735 36.7699 178.735 37.9542 179.073 39.0257L177.102 42.3531C176.765 41.6481 175.948 39.3077 176.371 34.7114L176.342 34.6832ZM172.655 32.7376C172.655 32.7376 172.824 32.4556 173.077 32.4274C173.134 32.653 172.937 32.9349 172.908 32.9349C172.88 32.9913 172.824 33.0195 172.768 33.0195C172.711 33.0195 172.683 33.0195 172.655 33.0195C172.627 33.0195 172.599 32.9631 172.599 32.9067C172.599 32.8504 172.599 32.794 172.655 32.7376ZM180.48 27.2107L182.366 29.2974C182.338 29.8614 182.254 31.666 182.732 32.8222L181.015 35.7266C180.593 34.8806 179.748 32.3992 180.48 27.2107V27.2107ZM187.883 25.8572C188.727 25.7162 189.6 25.7162 190.416 25.8572L190.698 26.3084C189.684 26.0828 188.615 26.0828 187.602 26.3084L187.883 25.8572ZM188.108 25.4907L189.178 23.7142L190.219 25.4625C189.516 25.3779 188.812 25.3779 188.108 25.4625V25.4907ZM187.376 26.7032C188.53 26.3648 189.769 26.3648 190.923 26.7032L191.204 27.1825C190.557 26.957 189.853 26.8442 189.15 26.8442C188.446 26.8442 187.714 26.957 187.039 27.2107L187.32 26.7314L187.376 26.7032ZM186.785 27.6619C188.277 27.0134 189.994 26.9852 191.486 27.6619L198.776 39.8717H196.102C196.102 39.8717 195.849 39.7025 195.736 39.6179C195.708 39.5897 195.652 39.5615 195.624 39.5333C195.427 39.4205 195.23 39.3641 195.033 39.4205C194.92 39.4205 194.807 39.4769 194.723 39.5333C194.61 39.5897 194.526 39.6461 194.441 39.7025C194.441 39.7025 194.441 39.7025 194.413 39.7025C194.357 39.7025 194.329 39.6743 194.273 39.6461C194.047 39.5333 193.822 39.3923 193.625 39.2231C193.569 39.1667 193.484 39.1103 193.4 39.0821C193.287 39.0257 193.147 38.9975 193.006 38.9975C192.921 38.9975 192.809 38.9975 192.724 39.0539C192.584 39.0821 192.471 39.1667 192.359 39.2231C192.274 39.2795 192.218 39.3359 192.133 39.3923C192.133 39.3923 192.133 39.3923 192.105 39.3923C192.105 39.3923 191.824 39.2231 191.683 39.1667C191.542 39.1103 191.43 39.0539 191.289 38.9693C191.12 38.8565 190.951 38.7437 190.782 38.6028C190.726 38.5464 190.67 38.5182 190.613 38.49C190.473 38.4054 190.332 38.3772 190.191 38.349C190.079 38.349 189.994 38.349 189.882 38.349C189.741 38.3772 189.628 38.4336 189.487 38.49C189.431 38.5182 189.347 38.5746 189.29 38.6028V34.373C189.741 34.373 190.079 34.2039 190.079 34.0065C190.079 33.8091 189.769 32.5402 189.319 32.23C189.319 32.23 188.924 31.9198 188.446 32.23C188.446 32.23 187.883 32.5402 188.165 32.9913C188.165 32.9913 188.221 33.1323 188.474 33.0195C188.53 33.0195 188.643 32.9349 188.671 32.7658V32.8785C188.671 33.0477 188.446 33.1323 188.446 33.1323C188.305 33.5271 188.221 33.8937 188.221 34.0065C188.221 34.2039 188.559 34.3448 189.009 34.373V38.6592H188.981C188.784 38.5182 188.615 38.4054 188.446 38.2644C188.39 38.208 188.333 38.1798 188.249 38.1234C188.108 38.0388 187.967 38.0106 187.827 37.9824C187.714 37.9824 187.573 37.9824 187.461 37.9824C187.32 38.0106 187.179 38.067 187.039 38.1234C186.898 38.208 186.785 38.2926 186.645 38.3772C186.645 38.3772 186.645 38.3772 186.616 38.3772H186.588C186.588 38.3772 186.476 38.2926 186.419 38.2644C186.335 38.208 186.25 38.1798 186.166 38.1516C186.053 38.1234 185.941 38.067 185.856 38.0106C185.547 37.8414 185.293 37.6722 185.012 37.4466L184.928 37.3902C184.73 37.2492 184.505 37.1365 184.252 37.1083H184.055C183.886 37.1083 183.745 37.1647 183.576 37.221C183.408 37.3056 183.239 37.3902 183.098 37.503C182.929 37.6158 182.76 37.7568 182.591 37.8978C182.394 38.0952 182.197 38.2926 182.028 38.5182C181.859 38.7155 181.691 38.9411 181.55 39.1667C181.437 39.3359 181.325 39.4487 181.212 39.5615C181.128 39.6461 181.071 39.7025 180.987 39.7589H179.495L186.785 27.5773V27.6619ZM197.284 35.6984L195.567 32.794C196.074 31.666 195.99 29.8614 195.933 29.2692L197.819 27.1825C198.551 32.371 197.678 34.8524 197.284 35.6984ZM205.25 32.4274C205.503 32.4556 205.672 32.7376 205.672 32.7376C205.7 32.794 205.729 32.8504 205.729 32.8785C205.729 32.9349 205.729 32.9631 205.672 32.9913C205.644 32.9913 205.588 33.0195 205.56 32.9913C205.503 32.9913 205.475 32.9349 205.419 32.9067C205.419 32.9067 205.222 32.653 205.278 32.3992L205.25 32.4274ZM201.225 42.3249L199.255 38.9975C199.621 37.926 199.621 36.7417 199.592 36.3469L201.985 34.655C202.407 39.2513 201.563 41.5917 201.253 42.2967L201.225 42.3249ZM175.639 46.329L177.497 43.199H200.071C200.071 43.199 199.987 43.1426 199.958 43.1144C199.818 43.0298 199.705 42.9453 199.564 42.8325C199.339 42.6633 199.142 42.4659 198.917 42.2685C198.607 41.9865 198.326 41.7045 198.044 41.3944C197.847 41.197 197.678 40.9996 197.51 40.8022C197.425 40.7176 197.341 40.633 197.256 40.5484C197.115 40.4074 196.947 40.2664 196.75 40.1536C196.665 40.0973 196.581 40.0691 196.496 40.0127H198.889L202.632 46.2726H175.695L175.639 46.329ZM179.382 40.0691H180.762C180.508 40.2946 180.227 40.5202 179.917 40.7176L179.833 40.774C179.664 40.8586 179.523 40.9714 179.382 41.0842C179.157 41.2534 178.932 41.4508 178.707 41.6481C178.482 41.8455 178.285 42.0429 178.059 42.2685L179.354 40.0691H179.382ZM189.093 39.2231C189.093 39.2231 189.206 39.2795 189.262 39.2795C189.319 39.2795 189.375 39.3359 189.431 39.3641C189.6 39.4487 189.741 39.5615 189.882 39.6743C190.135 39.8717 190.332 40.0691 190.529 40.2946C190.839 40.633 191.148 40.9714 191.486 41.3098C191.627 41.4508 191.739 41.5917 191.88 41.7045C192.218 42.0429 192.556 42.3813 192.921 42.6915L192.978 42.7479H191.233C191.233 42.7479 191.204 42.7479 191.176 42.7479L191.064 42.6633C190.81 42.4659 190.585 42.2685 190.36 42.0711C190.107 41.8173 189.825 41.5917 189.572 41.338C189.009 40.8022 188.474 40.21 187.939 39.6461C187.855 39.5333 187.77 39.4487 187.658 39.3359C187.461 39.1103 187.236 38.9129 187.01 38.7437C187.01 38.7437 187.236 38.5464 187.376 38.5182C187.461 38.49 187.517 38.4618 187.602 38.4618C187.742 38.4618 187.883 38.4618 187.996 38.5182C188.052 38.5464 188.108 38.5746 188.165 38.631C188.305 38.7437 188.446 38.8565 188.587 38.9411C188.756 39.0539 188.924 39.1385 189.093 39.2231V39.2231ZM196.215 40.4074H196.299C196.299 40.4074 196.44 40.492 196.496 40.5484C196.665 40.6612 196.806 40.774 196.947 40.8868C197.031 40.9714 197.115 41.056 197.2 41.1406C197.369 41.338 197.538 41.5072 197.707 41.7045C197.875 41.8737 198.016 42.0147 198.185 42.1839C198.382 42.3813 198.579 42.5505 198.776 42.7479C198.776 42.7479 198.776 42.7479 198.776 42.7761H197.791H197.735C197.538 42.6351 197.369 42.4659 197.2 42.2967C197.031 42.1275 196.862 41.9865 196.693 41.8173C196.327 41.4508 195.961 41.0842 195.624 40.6894C195.539 40.6048 195.483 40.5202 195.398 40.4356C195.23 40.2664 195.033 40.0973 194.836 39.9563C194.836 39.9563 195.004 39.8435 195.117 39.8153C195.201 39.8153 195.314 39.8153 195.398 39.8717C195.427 39.8717 195.455 39.9281 195.483 39.9281C195.708 40.0973 195.933 40.2664 196.215 40.3792V40.4074ZM194.892 40.5484C194.892 40.5484 195.145 40.8022 195.258 40.915C195.511 41.197 195.764 41.479 196.046 41.7609C196.299 42.0147 196.524 42.2403 196.778 42.4941C196.89 42.5787 196.975 42.6915 197.087 42.7761H195.708C195.708 42.7761 195.68 42.7761 195.652 42.7761C195.567 42.6915 195.455 42.6351 195.37 42.5505C195.117 42.3249 194.864 42.0993 194.61 41.8737C194.47 41.7327 194.329 41.5917 194.188 41.4508C193.822 41.0842 193.456 40.7176 193.118 40.3228C193.034 40.2382 192.978 40.1536 192.893 40.0691C192.753 39.9281 192.64 39.8153 192.499 39.7025C192.499 39.7025 192.696 39.5333 192.781 39.5051C192.837 39.5051 192.921 39.4487 193.006 39.4487C193.09 39.4487 193.147 39.4487 193.231 39.5051C193.287 39.5051 193.316 39.5615 193.372 39.5897C193.597 39.7589 193.822 39.9281 194.076 40.0409C194.132 40.0691 194.216 40.0973 194.301 40.1254C194.357 40.1254 194.441 40.1818 194.498 40.21C194.667 40.2946 194.807 40.4074 194.948 40.5202L194.892 40.5484ZM192.753 40.5484C192.95 40.774 193.147 40.9996 193.344 41.197C193.541 41.3944 193.71 41.5917 193.907 41.7891C194.216 42.0993 194.554 42.4377 194.892 42.7197L194.976 42.7761H193.738C193.738 42.7761 193.71 42.7761 193.681 42.7761C193.597 42.6915 193.484 42.6351 193.4 42.5505C193.09 42.2967 192.809 42.0429 192.556 41.7609C192.415 41.6199 192.246 41.479 192.105 41.3098C191.711 40.915 191.317 40.5202 190.951 40.0973C190.867 40.0127 190.782 39.8999 190.698 39.8153C190.473 39.5897 190.247 39.3641 189.966 39.1949C189.853 39.1103 189.713 39.0257 189.572 38.9693C189.572 38.9693 189.797 38.8283 189.938 38.8001C189.994 38.8001 190.079 38.8001 190.135 38.8001C190.219 38.8001 190.304 38.8283 190.36 38.8847C190.416 38.9129 190.473 38.9411 190.501 38.9975C190.782 39.2231 191.064 39.4205 191.373 39.5615C191.43 39.5615 191.458 39.5897 191.514 39.6179C191.599 39.6461 191.655 39.6743 191.739 39.7307C191.908 39.8153 192.049 39.9281 192.218 40.0691C192.415 40.21 192.584 40.4074 192.724 40.5766L192.753 40.5484ZM187.236 39.5051C187.236 39.5051 187.461 39.7589 187.573 39.8717C187.714 40.0127 187.827 40.1536 187.967 40.2946C188.193 40.5484 188.446 40.8022 188.671 41.0278C189.093 41.4508 189.516 41.9019 189.966 42.2967C190.135 42.4659 190.304 42.6069 190.501 42.7479H178.172L178.341 42.5787C178.538 42.4095 178.707 42.2121 178.904 42.0429C179.129 41.8455 179.382 41.6199 179.608 41.4226C179.748 41.3098 179.917 41.197 180.086 41.1124C180.142 41.1124 180.171 41.056 180.227 41.0278C180.621 40.7458 180.987 40.4638 181.325 40.1254C181.522 39.9281 181.719 39.7307 181.888 39.5333V39.4769C182.056 39.2513 182.225 39.0257 182.394 38.8001C182.535 38.631 182.676 38.4618 182.845 38.3208C183.013 38.1516 183.182 38.0106 183.379 37.8696C183.492 37.785 183.633 37.7004 183.773 37.6722C183.858 37.644 183.971 37.6158 184.055 37.5876C184.224 37.5876 184.393 37.5876 184.562 37.6722C184.618 37.7004 184.702 37.7568 184.759 37.8132C184.899 37.926 185.04 38.0388 185.181 38.1516C185.35 38.2644 185.547 38.3772 185.716 38.4618C185.828 38.5182 185.913 38.5464 186.025 38.6028C186.082 38.6028 186.166 38.6592 186.222 38.6873C186.391 38.7719 186.56 38.8847 186.729 38.9975C186.898 39.1385 187.067 39.2795 187.236 39.4487V39.5051ZM184.449 47.175C185.125 47.6825 185.828 47.9645 186.448 48.1337C185.969 48.2747 182.873 49.0924 180.199 47.175H184.449V47.175ZM188.699 49.7128C188.699 49.7128 189.009 48.1619 189.178 47.175C189.347 48.1619 189.656 49.7128 189.656 49.7128C189.825 50.4741 189.206 51.1509 189.178 51.1509C189.178 51.1509 188.53 50.4741 188.699 49.7128ZM193.878 47.175H198.129C195.483 49.0924 192.359 48.2747 191.88 48.1337C192.471 47.9645 193.175 47.6825 193.878 47.175V47.175ZM204.715 31.9198C204.715 31.9198 204.659 31.807 204.687 31.7506C204.687 31.7506 204.687 31.6942 204.743 31.666H204.772C204.941 31.7788 205.053 31.9198 205.138 32.0608C205.138 32.1172 205.138 32.1736 205.138 32.23C204.884 32.2018 204.715 31.9198 204.715 31.9198V31.9198ZM201.366 24.4755C201.366 24.4755 201.197 24.5319 201.112 24.4755C201.112 24.4755 200.887 24.2781 200.859 24.0526C201.112 24.0244 201.309 24.2499 201.309 24.2499C201.394 24.3345 201.422 24.4473 201.366 24.5037V24.4755ZM201 23.263L201.478 23.0938L201.366 23.5732L200.972 23.6296V23.2348L201 23.263ZM200.127 23.3476C200.127 23.3476 200.184 23.2912 200.24 23.2912C200.296 23.2912 200.352 23.2912 200.409 23.3476C200.409 23.3476 200.634 23.5168 200.662 23.7706C200.634 23.7706 200.606 23.7706 200.578 23.7706C200.381 23.7424 200.184 23.5732 200.184 23.5732C200.099 23.4886 200.071 23.3758 200.127 23.3194V23.3476ZM189.769 17.567H189.825C189.825 17.567 190.022 17.6516 190.022 17.7362C190.022 17.8208 189.938 17.9054 189.825 17.9054C189.825 17.9054 189.487 17.9054 189.319 17.7362C189.459 17.5952 189.656 17.567 189.769 17.567ZM189.178 16.6083L189.431 17.0594L189.178 17.3696L188.924 17.0594L189.178 16.6083ZM188.53 17.8772C188.53 17.8772 188.418 17.8772 188.362 17.8208C188.362 17.8208 188.305 17.7644 188.305 17.7362C188.305 17.708 188.305 17.6516 188.362 17.6516C188.39 17.6234 188.446 17.5952 188.53 17.5952C188.53 17.5952 188.84 17.567 189.009 17.7644C188.84 17.9336 188.53 17.9336 188.502 17.9336L188.53 17.8772ZM189.065 20.838C189.065 20.838 189.403 20.3022 189.572 19.6255C189.797 21.0918 189.516 22.1915 189.403 22.5017L189.178 22.1069L188.418 23.3758C188.362 22.8964 188.39 21.9095 189.065 20.8098V20.838ZM177.975 23.3758C177.975 23.3758 178.088 23.3194 178.144 23.3194C178.144 23.3194 178.2 23.3194 178.228 23.3758C178.257 23.404 178.257 23.4604 178.257 23.4886C178.257 23.545 178.228 23.6014 178.172 23.6578C178.172 23.6578 177.947 23.8834 177.722 23.8834C177.722 23.6296 177.975 23.4322 177.975 23.4322V23.3758ZM176.877 23.0938L177.356 23.263V23.6578L176.962 23.6014L176.849 23.122L176.877 23.0938ZM177.102 24.5319C177.102 24.5319 177.046 24.5319 177.018 24.4755C176.99 24.4473 176.99 24.3909 176.99 24.3627C176.99 24.3063 177.018 24.2499 177.074 24.1935C177.074 24.1935 177.271 23.968 177.525 23.968H177.553C177.553 24.2217 177.3 24.4191 177.3 24.4191C177.243 24.4755 177.187 24.4755 177.131 24.4755L177.102 24.5319ZM173.668 31.948C173.668 31.948 173.5 32.23 173.246 32.2582C173.246 32.2018 173.246 32.1454 173.246 32.1172C173.359 31.9762 173.471 31.8352 173.64 31.7224H173.668C173.668 31.7224 173.697 31.7224 173.725 31.7788C173.725 31.8352 173.725 31.8916 173.668 31.948V31.948ZM170.741 38.9411C170.741 38.9411 170.797 38.7719 170.826 38.6592C170.854 38.631 170.91 38.6028 170.938 38.6028C171.107 38.6028 171.332 38.4618 171.473 38.3772C171.614 38.2926 171.642 38.208 172.008 38.067C172.346 37.926 172.346 37.6158 172.683 37.0519C172.993 36.4597 172.852 35.3318 172.852 35.3318C172.824 35.4446 172.514 35.7266 172.233 35.9239C172.233 35.6702 172.177 35.36 172.148 35.219C172.12 34.9934 172.148 34.6832 172.148 34.6832C171.36 35.1062 171.248 35.8675 170.91 36.2623C171.023 35.4164 171.163 34.5422 171.36 33.6963C171.36 33.6963 171.67 33.4143 171.98 33.3297C172.12 33.3015 172.289 33.1323 172.458 32.9631C172.458 32.9631 172.514 33.1323 172.571 33.1887C172.627 33.2169 172.683 33.2451 172.74 33.2451C172.74 33.2451 172.796 33.2451 172.824 33.2451C172.88 33.2451 172.908 33.2169 172.937 33.1887L172.852 33.6399C172.852 33.6399 172.796 33.8373 173.162 33.9219C173.077 34.8806 172.514 41.9583 174.879 46.0752L174.71 46.3572C174.513 46.188 174.119 45.6241 174.034 45.4549C174.034 45.4549 174.091 45.8215 173.95 45.9906C173.837 46.1598 173.781 46.4982 173.781 46.7802C173.725 46.5546 173.668 46.3572 173.697 46.188C173.725 45.906 173.837 45.7369 173.781 45.2575C173.753 44.7781 173.612 44.186 173.612 44.186C173.556 44.6653 173.19 44.6653 173.021 45.1729C172.88 45.5677 172.852 45.5395 172.627 45.9061C172.486 46.1316 172.43 46.329 172.402 46.5264C172.205 45.9342 172.008 45.3421 171.839 44.7781C171.895 44.6935 171.923 44.4116 171.951 44.0732C172.148 43.8758 172.346 43.8758 172.43 43.763C172.514 43.622 172.486 43.4528 172.571 43.2836C172.655 43.1144 172.852 42.8043 172.88 42.6633C172.965 42.1839 173.246 41.6199 173.021 41.1124C173.021 41.1124 172.908 41.1406 172.768 41.197C172.768 41.0842 172.796 40.9714 172.824 40.915C172.908 40.7458 172.852 39.5051 172.74 39.2231C172.74 39.2231 172.374 39.5051 172.205 39.7025C172.036 39.9281 171.726 40.0127 171.614 40.2946C171.529 40.5766 171.332 40.5766 171.22 40.8304C171.107 41.0278 171.023 41.2816 171.023 41.5636C170.854 40.7458 170.769 40.0973 170.741 39.7307C170.741 39.5333 170.741 39.3077 170.741 39.0539V38.9411ZM191.007 57.58C190.416 57.58 189.994 57.8056 189.853 57.862C190.05 57.5237 190.867 56.1701 191.43 55.5216C191.514 55.719 191.824 56.6213 191.036 57.58H191.007ZM188.615 57.862C188.474 57.7774 188.052 57.58 187.461 57.58C186.673 56.6213 186.982 55.719 187.067 55.5216C187.63 56.1419 188.446 57.5237 188.643 57.8338L188.615 57.862ZM202.435 52.2224C202.435 52.2224 202.492 52.1096 202.492 52.0814C202.52 51.884 202.717 51.4611 202.661 51.2355C202.632 51.0099 202.52 50.4741 202.379 50.164C202.238 49.8538 201.929 49.0924 201.619 48.9514C201.619 48.9514 201.366 49.7974 201.281 50.1076C201.197 50.4177 201.112 50.7843 200.972 50.9535C200.944 51.0099 200.859 51.1509 200.775 51.2919C200.775 51.1509 200.775 51.1791 200.775 50.6997C200.831 50.1076 199.874 49.177 199.874 49.177C199.958 49.4308 199.592 50.4741 199.424 50.6997C199.255 50.9253 198.973 51.6021 198.945 51.9968C198.917 52.4198 198.72 52.6736 198.579 52.8428C198.298 53.2093 198.607 54.732 198.635 54.9294C198.044 55.296 197.397 55.6626 196.834 55.9446C196.665 56.0292 196.468 56.1137 196.243 56.1983C196.271 56.1701 196.327 56.1419 196.355 56.0855C197.172 55.2114 197.144 54.9294 197.256 54.7038C197.538 54.6474 196.89 54.5911 196.496 54.6193C196.721 54.2809 197.031 53.8297 197.228 53.4349C197.397 53.1248 195.793 53.5477 195.793 53.5477C195.624 53.6323 195.483 53.6605 195.37 53.7169C195.511 53.2375 195.652 52.7018 195.624 52.589C195.624 52.448 194.948 52.6736 194.385 52.8992C193.907 53.0966 193.653 53.4631 193.259 53.7169C192.781 54.0271 192.724 54.7884 192.499 55.155C192.359 55.4088 192.274 55.6062 192.218 55.7472C192.161 55.3806 192.049 55.2114 191.908 55.155H191.852C191.852 55.155 191.796 55.1268 191.767 55.0986C191.655 55.0986 191.486 55.0422 191.233 55.014C190.867 54.9858 190.304 55.014 190.022 55.5216C189.769 56.001 189.544 57.1571 189.431 57.4109C189.375 57.4109 189.29 57.3545 189.234 57.3545C189.178 57.3545 189.093 57.3545 189.037 57.4109C188.924 57.1289 188.699 55.9728 188.446 55.5216C188.165 55.014 187.602 54.9858 187.236 55.014C186.982 55.0422 186.813 55.0704 186.701 55.0986C186.673 55.0986 186.645 55.0986 186.616 55.0986H186.56C186.391 55.2114 186.222 55.437 186.222 55.9446C186.194 55.7472 186.11 55.4934 185.885 55.0986C185.659 54.732 185.603 53.9707 185.125 53.6605C184.73 53.4067 184.449 53.0402 183.999 52.8428C183.464 52.6172 182.788 52.3916 182.76 52.5326C182.76 52.6454 182.901 53.1812 183.013 53.6605C182.901 53.6041 182.76 53.5759 182.591 53.4913C182.591 53.4913 180.987 53.0684 181.156 53.3785C181.381 53.7733 181.691 54.2245 181.888 54.5629C181.494 54.5347 180.846 54.5911 181.128 54.6474C181.24 54.873 181.184 55.155 182.028 56.0292C182.056 56.0574 182.113 56.1137 182.141 56.1419C181.916 56.0574 181.719 55.9728 181.55 55.8882C180.959 55.6062 180.339 55.2396 179.748 54.873C179.777 54.7038 180.086 53.153 179.805 52.7864C179.664 52.6172 179.495 52.3352 179.439 51.9404C179.411 51.5457 179.129 50.8689 178.96 50.6433C178.791 50.4177 178.425 49.3744 178.51 49.1206C178.51 49.1206 177.581 50.0512 177.609 50.6433C177.637 51.1227 177.637 51.1227 177.609 51.2355C177.525 51.0945 177.44 50.9535 177.412 50.8971C177.271 50.7279 177.187 50.3613 177.102 50.0512C177.018 49.741 176.765 48.895 176.765 48.895C176.455 49.036 176.145 49.7974 176.005 50.1076C175.864 50.4177 175.78 50.9535 175.723 51.1791C175.667 51.4047 175.864 51.8276 175.892 52.025C175.892 52.0532 175.892 52.1096 175.948 52.166C175.273 51.6585 174.71 51.1791 174.175 50.3613C174.231 50.1358 174.26 49.9666 174.372 49.882C174.513 49.741 174.963 49.2052 175.048 48.8386C175.132 48.4721 175.048 48.2183 175.048 48.0209C175.048 47.8235 175.188 47.2314 175.188 47.2314V47.175H175.92C177.271 48.1619 182.085 51.2073 187.742 48.7259C187.714 48.8105 187.686 48.895 187.658 48.9232C187.658 48.9232 186.448 50.5869 189.178 51.1509C191.936 50.5869 190.698 48.9232 190.698 48.9232C190.67 48.895 190.642 48.8105 190.613 48.7259C196.271 51.2073 201.084 48.1619 202.435 47.175H203.195V47.2314C203.195 47.2314 203.308 47.8517 203.308 48.0209C203.308 48.1901 203.224 48.4721 203.308 48.8386C203.392 49.177 203.843 49.741 203.983 49.882C204.068 49.9666 204.124 50.1358 204.181 50.3613C203.646 51.1791 203.083 51.6585 202.407 52.166L202.435 52.2224Z" fill="#313945"/>
<path d="M198.04 53.6613C197.871 53.6613 197.759 53.774 197.759 53.915C197.759 54.0842 197.871 54.197 198.04 54.197C198.181 54.197 198.322 54.0842 198.322 53.915C198.322 53.774 198.181 53.6613 198.04 53.6613Z" fill="#313945"/>
<path d="M199.561 55.5507C199.392 55.5507 199.279 55.6916 199.279 55.8326C199.279 56.0018 199.392 56.1146 199.561 56.1146C199.702 56.1146 199.842 56.0018 199.842 55.8326C199.842 55.6916 199.702 55.5507 199.561 55.5507Z" fill="#313945"/>
<path d="M203.111 49.6277C202.97 49.6277 202.829 49.7405 202.829 49.9097C202.829 50.0507 202.97 50.1916 203.111 50.1916C203.279 50.1916 203.392 50.0507 203.392 49.9097C203.392 49.7405 203.279 49.6277 203.111 49.6277Z" fill="#313945"/>
<path d="M204.989 50.981C204.989 51.1501 205.13 51.2911 205.299 51.2911C205.468 51.2911 205.609 51.1501 205.609 50.981C205.609 50.84 205.468 50.6708 205.299 50.6708C205.13 50.6708 204.989 50.8118 204.989 50.981Z" fill="#313945"/>
<path d="M205.697 44.6078C205.866 44.6078 206.007 44.4668 206.007 44.2976C206.007 44.1284 205.866 43.9874 205.697 43.9874C205.528 43.9874 205.388 44.1284 205.388 44.2976C205.388 44.4668 205.528 44.6078 205.697 44.6078Z" fill="#313945"/>
<path d="M206.6 38.6589C206.431 38.6589 206.29 38.7999 206.29 38.9691C206.29 39.1383 206.431 39.2793 206.6 39.2793C206.769 39.2793 206.909 39.1383 206.909 38.9691C206.909 38.7999 206.769 38.6589 206.6 38.6589Z" fill="#313945"/>
<path d="M208.263 33.8096C208.432 33.8096 208.572 33.6686 208.572 33.5276C208.572 33.3584 208.432 33.2174 208.263 33.2174C208.094 33.2174 207.953 33.3584 207.953 33.5276C207.953 33.6686 208.094 33.8096 208.263 33.8096Z" fill="#313945"/>
<path d="M206.148 34.3446C206.316 34.3446 206.457 34.2036 206.457 34.0344C206.457 33.8652 206.316 33.7242 206.148 33.7242C205.979 33.7242 205.838 33.8652 205.838 34.0344C205.838 34.2036 205.979 34.3446 206.148 34.3446Z" fill="#313945"/>
<path d="M204.371 29.5237C204.371 29.3545 204.23 29.2417 204.062 29.2417C203.893 29.2417 203.752 29.3827 203.752 29.5237C203.752 29.6929 203.893 29.8339 204.062 29.8339C204.23 29.8339 204.371 29.6929 204.371 29.5237Z" fill="#313945"/>
<path d="M205.669 28.5653C205.838 28.5653 205.979 28.4243 205.979 28.2551C205.979 28.0859 205.838 27.9449 205.669 27.9449C205.5 27.9449 205.359 28.0859 205.359 28.2551C205.359 28.4243 205.5 28.5653 205.669 28.5653Z" fill="#313945"/>
<path d="M208.623 38.9989C208.623 39.1399 208.764 39.2809 208.933 39.2809C209.102 39.2809 209.214 39.1399 209.214 38.9989C209.214 38.8579 209.073 38.7169 208.933 38.7169C208.764 38.7169 208.623 38.8579 208.623 38.9989Z" fill="#313945"/>
<path d="M180.358 53.6613C180.217 53.6613 180.076 53.774 180.076 53.915C180.076 54.0842 180.217 54.197 180.358 54.197C180.527 54.197 180.639 54.0842 180.639 53.915C180.639 53.774 180.527 53.6613 180.358 53.6613Z" fill="#313945"/>
<path d="M179.1 55.8046C179.1 55.6636 178.987 55.5226 178.819 55.5226C178.678 55.5226 178.537 55.6636 178.537 55.8046C178.537 55.9738 178.678 56.0865 178.819 56.0865C178.959 56.0865 179.1 55.9738 179.1 55.8046Z" fill="#313945"/>
<path d="M175.287 49.6272C175.147 49.6272 175.006 49.74 175.006 49.9092C175.006 50.0502 175.118 50.1912 175.287 50.1912C175.428 50.1912 175.569 50.0502 175.569 49.9092C175.569 49.74 175.428 49.6272 175.287 49.6272Z" fill="#313945"/>
<path d="M173.113 51.2648C173.254 51.2648 173.423 51.1238 173.423 50.9546C173.423 50.8136 173.282 50.6444 173.113 50.6444C172.944 50.6444 172.804 50.7854 172.804 50.9546C172.804 51.1238 172.944 51.2648 173.113 51.2648Z" fill="#313945"/>
<path d="M172.703 44.019C172.534 44.019 172.394 44.16 172.394 44.3292C172.394 44.4984 172.534 44.6394 172.703 44.6394C172.872 44.6394 173.013 44.4984 173.013 44.3292C173.013 44.16 172.872 44.019 172.703 44.019Z" fill="#313945"/>
<path d="M171.16 44.8624C171.16 44.6932 171.02 44.5522 170.851 44.5522C170.71 44.5522 170.541 44.6932 170.541 44.8624C170.541 45.0316 170.682 45.1726 170.851 45.1726C171.02 45.1726 171.16 45.0316 171.16 44.8624Z" fill="#313945"/>
<path d="M171.801 39.2527C171.97 39.2527 172.11 39.1117 172.11 38.9425C172.11 38.7733 171.97 38.6323 171.801 38.6323C171.632 38.6323 171.491 38.7733 171.491 38.9425C171.491 39.1117 171.632 39.2527 171.801 39.2527Z" fill="#313945"/>
<path d="M170.151 33.8096C170.32 33.8096 170.461 33.6686 170.461 33.5276C170.461 33.3584 170.32 33.2174 170.151 33.2174C169.983 33.2174 169.842 33.3584 169.842 33.5276C169.842 33.6968 169.983 33.8096 170.151 33.8096Z" fill="#313945"/>
<path d="M172.26 33.7523C172.091 33.7523 171.95 33.8933 171.95 34.0625C171.95 34.2317 172.091 34.3727 172.26 34.3727C172.429 34.3727 172.569 34.2317 172.569 34.0625C172.569 33.8933 172.429 33.7523 172.26 33.7523Z" fill="#313945"/>
<path d="M174.028 29.5237C174.028 29.6929 174.169 29.8339 174.338 29.8339C174.507 29.8339 174.648 29.6929 174.648 29.5237C174.648 29.3545 174.507 29.2417 174.338 29.2417C174.169 29.2417 174.028 29.3827 174.028 29.5237Z" fill="#313945"/>
<path d="M172.738 28.5653C172.907 28.5653 173.048 28.4243 173.048 28.2551C173.048 28.1141 172.907 27.9449 172.738 27.9449C172.569 27.9449 172.429 28.0859 172.429 28.2551C172.429 28.4243 172.569 28.5653 172.738 28.5653Z" fill="#313945"/>
<path d="M169.777 38.9987C169.777 38.8295 169.636 38.7167 169.467 38.7167C169.298 38.7167 169.186 38.8577 169.186 38.9987C169.186 39.1396 169.326 39.2806 169.467 39.2806C169.636 39.2806 169.777 39.1396 169.777 38.9987Z" fill="#313945"/>
<path d="M185.714 34.8243C185.714 34.8243 185.882 34.8243 185.939 34.9653H186.023L185.939 34.7679L186.445 34.5424L186.389 34.4296L185.657 34.7397V34.8243H185.714Z" fill="#313945"/>
<path d="M185.552 33.8941H185.439L185.524 34.317H185.974V34.2042C185.974 34.2042 185.862 34.1196 185.834 34.0632C185.834 33.9786 185.834 33.894 185.974 33.8659C186.115 33.8377 186.171 33.8659 186.199 33.9786C186.199 34.0632 186.199 34.1478 186.115 34.176V34.2888C186.312 34.2324 186.312 34.0914 186.284 33.9786C186.228 33.7249 186.031 33.7249 185.946 33.7531C185.777 33.7813 185.721 33.9222 185.749 34.0632C185.749 34.1196 185.805 34.176 185.834 34.2042H185.608L185.524 33.8941H185.552Z" fill="#313945"/>
<path d="M185.57 33.2734C185.71 33.2734 185.739 33.1606 185.767 33.1042L185.823 32.9351C185.823 32.9351 185.879 32.7659 185.992 32.7659C186.105 32.7659 186.133 32.9069 186.105 32.9915C186.105 33.1042 186.048 33.217 185.908 33.1888V33.3016C185.908 33.3016 186.048 33.3016 186.105 33.2452C186.105 33.2452 186.189 33.1606 186.189 33.0197C186.189 32.8787 186.189 32.7095 185.964 32.6813C185.851 32.6813 185.767 32.7377 185.739 32.8505L185.654 33.076C185.654 33.076 185.626 33.1606 185.542 33.1606C185.429 33.1606 185.401 33.0196 185.429 32.9633C185.429 32.8787 185.485 32.7941 185.598 32.7941V32.6813C185.598 32.6813 185.345 32.6813 185.316 32.9915C185.316 33.1888 185.429 33.2734 185.542 33.3016L185.57 33.2734Z" fill="#313945"/>
<path d="M186.408 32.0325L186.324 32.0043L186.155 32.4554L185.902 32.3708L186.042 31.9479L185.958 31.9197L185.817 32.3426L185.592 32.2581L185.733 31.8069L185.648 31.7787L185.451 32.3426L186.239 32.5964L186.408 32.0325Z" fill="#313945"/>
<path d="M186.521 31.8372L186.211 31.6399L186.352 31.4143C186.436 31.2451 186.38 31.1323 186.267 31.0759C186.211 31.0477 186.155 31.0195 186.099 31.0759C186.042 31.0759 185.986 31.1323 185.93 31.1887L185.761 31.4989L186.436 31.9218L186.493 31.8372H186.521ZM185.93 31.4425L186.042 31.2451C186.042 31.2451 186.099 31.1605 186.155 31.1605C186.155 31.1605 186.183 31.1605 186.211 31.1887C186.296 31.2451 186.296 31.3015 186.211 31.3861L186.099 31.5553L185.873 31.4143L185.93 31.4425Z" fill="#313945"/>
<path d="M186.465 30.7061L187 31.1854L187.056 31.1008L186.55 30.6215L186.747 30.4241L186.662 30.3395L186.212 30.8188L186.296 30.9034L186.465 30.7061Z" fill="#313945"/>
<path d="M187.432 30.8208L186.925 30.1722L186.869 30.2286L187.348 30.8772L187.432 30.8208Z" fill="#313945"/>
<path d="M188.078 30.4252L188.05 30.3406L187.6 30.5662L187.487 30.3406L187.881 30.1432L187.853 30.0304L187.431 30.256L187.318 30.0304L187.741 29.8048L187.713 29.7202L187.178 30.0022L187.544 30.7071L188.078 30.4252Z" fill="#313945"/>
<path d="M188.268 30.3675L188.155 29.8882C188.155 29.8882 188.127 29.7754 188.099 29.6908L188.465 30.3112H188.577L188.662 29.578C188.662 29.578 188.69 29.7472 188.69 29.7754L188.802 30.2266H188.915L188.746 29.4088H188.577L188.493 30.1702L188.127 29.5498H187.958L188.127 30.3675H188.239H188.268Z" fill="#313945"/>
<path d="M189.403 30.2581C189.572 30.2581 189.685 30.1735 189.685 30.0325C189.685 29.8915 189.6 29.8633 189.544 29.8351C189.628 29.8069 189.657 29.7223 189.657 29.6659C189.657 29.5531 189.6 29.4685 189.431 29.4403H189.065V30.2299H189.375L189.403 30.2581ZM189.206 29.5531H189.375C189.375 29.5531 189.544 29.6095 189.544 29.6941C189.544 29.7787 189.488 29.8069 189.375 29.8069H189.178V29.5813L189.206 29.5531ZM189.403 29.9197C189.403 29.9197 189.572 29.9197 189.572 30.0607C189.572 30.1453 189.516 30.2017 189.403 30.2017H189.206V29.9197H189.403V29.9197Z" fill="#313945"/>
<path d="M189.965 29.9744L190.218 30.059C190.218 30.059 190.331 30.1717 190.331 30.2281C190.331 30.2281 190.275 30.3691 190.303 30.4255H190.443C190.443 30.4255 190.443 30.4255 190.443 30.3691V30.2281C190.443 30.2281 190.443 30.0872 190.443 30.059C190.5 30.059 190.584 30.0308 190.612 29.8898C190.669 29.7206 190.556 29.636 190.415 29.6078L190.049 29.495L189.824 30.2845H189.937L190.021 29.9744H189.965ZM190.106 29.636L190.331 29.7206C190.331 29.7206 190.472 29.7488 190.415 29.8616C190.415 29.9744 190.303 29.9462 190.246 29.9462L190.021 29.8898L190.106 29.636V29.636Z" fill="#313945"/>
<path d="M190.994 30.8214L191.05 30.7368L190.628 30.483L190.769 30.2574L191.135 30.483L191.191 30.3984L190.825 30.1728L190.938 29.9755L191.36 30.201L191.416 30.1165L190.881 29.8345L190.487 30.5112L190.994 30.8214Z" fill="#313945"/>
<path d="M191.506 31.3274C191.675 31.5248 191.9 31.4402 192.041 31.3274C192.21 31.1864 192.266 30.9608 192.126 30.8198L191.9 30.566L191.281 31.0736L191.478 31.3274H191.506ZM192.041 30.8762C192.041 30.8762 192.126 31.1018 191.985 31.2146C191.844 31.3274 191.703 31.3274 191.619 31.2146L191.506 31.0736L191.929 30.707L192.041 30.848V30.8762Z" fill="#313945"/>
<path d="M192.07 32.2021L192.154 32.1739L191.929 31.7228L192.182 31.61L192.379 32.033L192.464 31.9766L192.238 31.5818L192.492 31.469L192.689 31.892L192.773 31.8638L192.52 31.328L191.788 31.6946L192.07 32.2021Z" fill="#313945"/>
<path d="M192.749 32.7375L192.186 32.8221V32.9349L192.974 32.8221V32.7375C192.833 32.7375 192.805 32.6812 192.777 32.5684H192.692V32.7657L192.749 32.7375Z" fill="#313945"/>
<path d="M192.805 33.1893C192.805 33.1893 192.664 33.2175 192.636 33.3021C192.636 33.2175 192.551 33.1611 192.439 33.1329C192.411 33.1329 192.326 33.1329 192.242 33.2175C192.186 33.2739 192.186 33.3585 192.186 33.4149C192.186 33.5841 192.298 33.6969 192.411 33.6969C192.467 33.6969 192.551 33.6969 192.608 33.5841C192.608 33.6123 192.664 33.6969 192.777 33.6969C192.889 33.6969 193.002 33.6405 193.002 33.4713C193.002 33.3021 192.889 33.2175 192.805 33.2175V33.1893ZM192.439 33.5841C192.439 33.5841 192.298 33.4995 192.298 33.4149C192.298 33.3021 192.383 33.2739 192.439 33.2739C192.495 33.2739 192.58 33.3303 192.551 33.4431C192.551 33.5277 192.523 33.5841 192.411 33.5841H192.439ZM192.805 33.5841C192.805 33.5841 192.692 33.4995 192.692 33.4431C192.692 33.3867 192.748 33.3303 192.805 33.3303C192.861 33.3303 192.917 33.3303 192.917 33.4713C192.917 33.5841 192.861 33.6123 192.805 33.6123V33.5841Z" fill="#313945"/>
<path d="M192.687 33.8649V33.9777C192.687 33.9777 192.856 34.0341 192.828 34.175C192.828 34.2878 192.716 34.316 192.659 34.2878C192.547 34.2878 192.519 34.2032 192.49 34.1187V34.0059C192.49 34.0059 192.35 33.8085 192.181 33.7521L192.04 34.2878H192.124L192.237 33.8931C192.237 33.8931 192.322 33.9495 192.35 34.0623V34.1468C192.406 34.2878 192.462 34.4006 192.575 34.4288C192.716 34.457 192.828 34.3724 192.884 34.2596C192.884 34.175 192.913 33.9777 192.659 33.9213L192.687 33.8649Z" fill="#313945"/>
<path d="M192.551 34.627L192.466 34.7961L191.96 34.5424L191.903 34.6552L192.635 34.9935V34.9089C192.635 34.9089 192.579 34.7679 192.635 34.6552H192.551V34.627Z" fill="#313945"/>
<path d="M188.209 37.474H188.293L188.885 35.049C188.885 35.049 188.828 35.049 188.8 35.049L188.209 37.474V37.474Z" fill="#313945"/>
<path d="M188.128 36.4318H188.212L188.719 35.0219H188.635L188.156 36.4318H188.128Z" fill="#313945"/>
<path d="M187.294 37.3047H187.378L188.532 34.936H188.448L187.322 37.3047H187.294Z" fill="#313945"/>
<path d="M187.09 36.912L188.329 34.8535H188.244L187.006 36.8556L187.09 36.912Z" fill="#313945"/>
<path d="M186.334 36.9389L186.39 37.0235L188.164 34.7677C188.164 34.7677 188.107 34.7395 188.107 34.7113L186.362 36.9671L186.334 36.9389Z" fill="#313945"/>
<path d="M186.446 36.4017L188.022 34.6534L187.966 34.597L186.39 36.3453L186.446 36.4017Z" fill="#313945"/>
<path d="M187.873 34.5143C187.873 34.5143 187.845 34.4579 187.817 34.4579L185.509 36.5163L185.565 36.5727L187.873 34.5425V34.5143Z" fill="#313945"/>
<path d="M187.767 34.3735C187.767 34.3735 187.738 34.3171 187.71 34.3171L186.5 35.1913L186.556 35.2759L187.795 34.4017L187.767 34.3735Z" fill="#313945"/>
<path d="M187.667 34.2029V34.1183L186.767 34.5977L186.823 34.6822L187.667 34.2029Z" fill="#313945"/>
<path d="M186.617 34.3723V34.4569L187.546 34.0621C187.546 34.0621 187.518 34.0057 187.49 33.9775L186.589 34.3723H186.617Z" fill="#313945"/>
<path d="M186.521 34.0919L186.549 34.1765L187.449 33.8945H187.478L187.449 33.8099L186.521 34.0919Z" fill="#313945"/>
<path d="M187.437 33.6962V33.6116L186.452 33.809V33.8936L187.437 33.668V33.6962Z" fill="#313945"/>
<path d="M186.39 33.5255V33.6101L187.403 33.4973V33.4127L186.39 33.5255Z" fill="#313945"/>
<path d="M186.39 33.3302H187.375V33.2456H186.39V33.3302Z" fill="#313945"/>
<path d="M186.39 33.0487L187.375 33.1333V33.0487L186.418 32.9641V33.0487H186.39Z" fill="#313945"/>
<path d="M186.403 32.7393L187.388 32.9648V32.8802L186.431 32.6547V32.7393H186.403Z" fill="#313945"/>
<path d="M186.5 32.4841L187.429 32.7943V32.7097L186.528 32.3995V32.4841H186.5Z" fill="#313945"/>
<path d="M186.649 32.1462V32.2308L187.522 32.6256V32.541L186.649 32.1462Z" fill="#313945"/>
<path d="M186.732 31.9475L187.605 32.4269V32.3423L186.76 31.8629L186.704 31.9475H186.732Z" fill="#313945"/>
<path d="M186.896 31.7245L187.684 32.2884C187.684 32.2884 187.712 32.2321 187.74 32.2321L186.952 31.6681L186.896 31.7527V31.7245Z" fill="#313945"/>
<path d="M187.116 31.411L187.06 31.4674L187.791 32.0878C187.791 32.0878 187.82 32.0596 187.848 32.0314L187.116 31.411Z" fill="#313945"/>
<path d="M187.35 31.2155L187.294 31.2719L187.969 31.9768L188.026 31.9204L187.378 31.2155H187.35Z" fill="#313945"/>
<path d="M187.569 31.017L187.513 31.0734L188.132 31.8347C188.132 31.8347 188.188 31.8065 188.188 31.7783L187.597 31.0452L187.569 31.017Z" fill="#313945"/>
<path d="M187.85 30.8773L187.766 30.9337L188.244 31.7515H188.329L187.85 30.9055V30.8773Z" fill="#313945"/>
<path d="M188.096 30.7651H188.012L188.406 31.6675H188.49L188.096 30.7933V30.7651Z" fill="#313945"/>
<path d="M188.389 30.6509H188.305L188.614 31.5814H188.699L188.389 30.6791V30.6509Z" fill="#313945"/>
<path d="M188.671 30.5663H188.587L188.784 31.525H188.868L188.671 30.5945V30.5663Z" fill="#313945"/>
<path d="M188.97 31.4987H189.055L188.97 30.5117H188.886L188.97 31.4987Z" fill="#313945"/>
<path d="M189.237 30.5382H189.152V31.4969C189.152 31.4969 189.209 31.4969 189.237 31.4969V30.5382Z" fill="#313945"/>
<path d="M189.311 31.4969H189.395L189.479 30.5382H189.395L189.311 31.4969Z" fill="#313945"/>
<path d="M189.608 31.5531L189.805 30.5944H189.72L189.523 31.5249H189.58L189.608 31.5531Z" fill="#313945"/>
<path d="M190.076 30.679H189.991L189.682 31.5531L189.766 31.6095L190.076 30.7072V30.679Z" fill="#313945"/>
<path d="M190.356 30.7916H190.272L189.878 31.6094C189.878 31.6094 189.934 31.6376 189.962 31.6658L190.356 30.7916V30.7916Z" fill="#313945"/>
<path d="M190.495 30.8773L190.045 31.6951L190.017 31.7233L190.101 31.7515L190.58 30.9055L190.495 30.8773Z" fill="#313945"/>
<path d="M190.173 31.8065L190.229 31.8629L190.82 31.1016L190.764 31.017L190.173 31.7783V31.8065Z" fill="#313945"/>
<path d="M190.331 31.9204L190.387 31.9768L191.035 31.2719H191.063L190.978 31.2155L190.331 31.9204Z" fill="#313945"/>
<path d="M190.461 32.0596L190.517 32.116L191.249 31.4674L191.165 31.411L190.461 32.0596Z" fill="#313945"/>
<path d="M190.61 32.2018C190.61 32.2018 190.638 32.2582 190.667 32.2864L191.427 31.7224L191.37 31.6378L190.61 32.2018Z" fill="#313945"/>
<path d="M190.693 32.3423V32.4269L191.566 31.9475L191.509 31.8629L190.665 32.3423H190.693Z" fill="#313945"/>
<path d="M190.769 32.5111C190.769 32.5111 190.769 32.5675 190.798 32.5957L191.67 32.2009V32.1163L190.741 32.5111H190.769Z" fill="#313945"/>
<path d="M190.864 32.7097V32.7943L191.793 32.4841V32.3995L190.864 32.7097Z" fill="#313945"/>
<path d="M190.893 32.8518V32.9364L191.85 32.7108V32.6262L190.893 32.8518Z" fill="#313945"/>
<path d="M190.921 33.0487V33.1333L191.85 33.0487V32.9641L190.893 33.0487H190.921Z" fill="#313945"/>
<path d="M190.946 33.2738H191.903V33.2174H190.946V33.2738Z" fill="#313945"/>
<path d="M190.926 33.6116V33.6962L191.827 33.8936V33.809L190.926 33.6116Z" fill="#313945"/>
<path d="M191.883 33.6101V33.5255L190.926 33.4127V33.4973L191.855 33.6101H191.883Z" fill="#313945"/>
<path d="M191.737 34.1765V34.0919L190.893 33.8099V33.8945L191.737 34.1765Z" fill="#313945"/>
<path d="M190.816 33.951C190.816 33.951 190.816 34.0074 190.788 34.0356L191.633 34.4304V34.3458L190.816 33.951Z" fill="#313945"/>
<path d="M190.693 34.2029L191.481 34.654L191.538 34.5977L190.721 34.1183L190.665 34.2029H190.693Z" fill="#313945"/>
<path d="M190.577 34.3452L191.759 35.2194L191.816 35.1348L190.633 34.2606C190.633 34.2606 190.605 34.317 190.577 34.317V34.3452Z" fill="#313945"/>
<path d="M190.517 34.4296L190.461 34.486L192.656 36.5162L192.713 36.4598L190.489 34.4296H190.517Z" fill="#313945"/>
<path d="M190.331 34.627L191.823 36.3752L191.879 36.3188L190.387 34.5706H190.331V34.627Z" fill="#313945"/>
<path d="M190.173 34.7393L191.862 36.9951L191.918 36.9387L190.229 34.6829C190.229 34.6829 190.173 34.7111 190.173 34.7393Z" fill="#313945"/>
<path d="M190.017 34.8519L191.199 36.8822H191.283L190.101 34.8237H190.017V34.8519Z" fill="#313945"/>
<path d="M189.852 34.9379L190.949 37.3065H191.034L189.936 34.8815C189.936 34.8815 189.88 34.9097 189.852 34.9097V34.9379Z" fill="#313945"/>
<path d="M189.682 34.9944L190.16 36.4043H190.245L189.766 34.9662H189.682V34.9944Z" fill="#313945"/>
<path d="M189.477 35.0225L190.04 37.4475H190.124L189.561 34.9943H189.477V35.0225Z" fill="#313945"/>
<path d="M180.982 51.1511C180.982 51.1511 180.701 51.4613 180.869 51.7433C180.869 51.7433 181.151 52.0817 181.545 51.7433C181.545 51.7433 180.869 51.7433 180.982 51.1511V51.1511Z" fill="#313945"/>
<path d="M196.856 51.7433C197.279 52.0817 197.532 51.7433 197.532 51.7433C197.673 51.4613 197.419 51.1511 197.419 51.1511C197.532 51.7433 196.856 51.7433 196.856 51.7433Z" fill="#313945"/>
<path d="M183.455 50.8132L183.314 50.7286L182.948 51.3208L183.089 51.4054C183.258 51.5182 183.455 51.4618 183.567 51.2926C183.68 51.0952 183.624 50.926 183.455 50.8132Z" fill="#313945"/>
<path d="M184.637 51.4342C184.468 51.3496 184.271 51.4342 184.187 51.6034C184.103 51.8008 184.187 51.9981 184.328 52.0827C184.497 52.1673 184.694 52.0827 184.778 51.8854C184.863 51.7162 184.778 51.4906 184.609 51.4342H184.637Z" fill="#313945"/>
<path d="M188.671 52.4778C188.474 52.4778 188.333 52.6188 188.305 52.8162C188.305 53.0135 188.445 53.1827 188.614 53.1827C188.783 53.1827 188.952 53.0417 188.98 52.8444C188.98 52.647 188.839 52.4778 188.671 52.4778Z" fill="#313945"/>
<path d="M191.936 52.5048L191.739 52.5612L191.824 52.8713L192.021 52.8149C192.021 52.8149 192.161 52.7022 192.133 52.6176C192.133 52.533 192.021 52.4766 191.936 52.5048Z" fill="#313945"/>
<path d="M191.99 52.2501C191.99 52.2501 191.906 52.1373 191.821 52.1655L191.624 52.2219L191.68 52.4757L191.877 52.4193C191.877 52.4193 191.99 52.3347 191.962 52.2501H191.99Z" fill="#313945"/>
<path d="M193.245 51.6877C193.245 51.6877 193.188 51.6877 193.132 51.6877L192.991 51.7441L193.104 52.0543L193.273 51.9979C193.273 51.9979 193.413 51.8851 193.357 51.7723C193.357 51.7159 193.301 51.6877 193.245 51.6595V51.6877Z" fill="#313945"/>
<path d="M194.436 51.2639L194.492 51.5741L194.745 51.4331L194.52 51.2357L194.436 51.1511C194.436 51.1511 194.436 51.2357 194.464 51.2921L194.436 51.2639Z" fill="#313945"/>
<path d="M197.085 51.3199L196.804 51.2071C197.085 51.1225 197.31 51.0943 197.451 51.1507L197.085 50.8406C195.847 49.7126 194.439 50.5022 194.439 50.5022C193.06 51.2917 191.258 51.9967 189.232 51.9967C187.205 51.9967 185.404 51.2917 184.024 50.5022C184.024 50.5022 182.617 49.7126 181.379 50.8406L181.013 51.1507C181.013 51.1507 181.379 51.1507 181.66 51.2071L181.379 51.3199C181.745 51.4609 181.604 51.7429 181.604 51.7429L182.054 51.3481C182.955 51.6865 184.053 52.3351 184.053 52.3351C185.404 53.1528 187.233 53.6604 189.26 53.6604C191.287 53.6604 193.144 53.1528 194.467 52.3351C194.467 52.3351 195.565 51.6865 196.466 51.3481L196.916 51.7429C196.916 51.7429 196.775 51.4609 197.141 51.3199H197.085ZM183.067 51.5173L182.814 51.3481L183.293 50.5586L183.546 50.7278C183.799 50.8688 183.856 51.1225 183.715 51.3481C183.574 51.6019 183.321 51.6583 183.067 51.5173V51.5173ZM183.715 51.8839L183.602 51.8275L184.024 51.0097L184.137 51.0661L183.715 51.8839ZM184.278 52.1659C184.024 52.0531 183.94 51.7711 184.053 51.5173C184.165 51.2635 184.447 51.1789 184.672 51.2917C184.925 51.4045 185.01 51.6865 184.897 51.9121C184.784 52.1659 184.503 52.2505 184.25 52.1377L184.278 52.1659ZM185.573 51.8839C185.573 51.8839 185.516 51.7711 185.404 51.7429C185.319 51.7147 185.235 51.7429 185.207 51.7993C185.15 51.9685 185.573 52.0813 185.46 52.3633C185.404 52.5042 185.263 52.5606 185.094 52.5042C184.925 52.4197 184.841 52.2787 184.841 52.2787L184.953 52.2223C184.953 52.2223 185.01 52.3633 185.15 52.3915C185.235 52.4197 185.319 52.3915 185.347 52.3351C185.432 52.1377 184.982 52.0249 185.094 51.7711C185.15 51.6301 185.291 51.5737 185.46 51.6301C185.629 51.6865 185.657 51.7993 185.657 51.7993L185.573 51.8839ZM186.333 52.9272C186.136 52.8708 186.023 52.7016 186.079 52.5042L186.22 51.9403H186.333L186.192 52.5606C186.192 52.5606 186.22 52.7862 186.361 52.8426C186.501 52.8708 186.614 52.8426 186.642 52.6734L186.783 52.1095H186.896L186.755 52.7298C186.699 52.9272 186.53 53.0118 186.304 52.9554L186.333 52.9272ZM187.656 53.181H187.543L187.233 52.5042L187.177 52.3633C187.177 52.3633 187.177 52.4479 187.177 52.5042L187.064 53.0964H186.924L187.093 52.1659H187.205L187.515 52.8426L187.571 52.9836C187.571 52.9836 187.571 52.899 187.571 52.8426L187.684 52.2505H187.824L187.656 53.181ZM187.993 53.2092H187.853L187.965 52.2787H188.106L187.993 53.2092ZM188.641 53.2656C188.387 53.2656 188.19 53.04 188.19 52.758C188.19 52.5042 188.416 52.3069 188.697 52.3069C188.95 52.3069 189.147 52.5324 189.147 52.7862C189.147 53.0682 188.922 53.2656 188.641 53.2374V53.2656ZM189.907 53.2656L189.485 52.6734L189.401 52.5324C189.401 52.5324 189.401 52.617 189.401 52.6734V53.2656H189.288V52.3633H189.373L189.795 52.9272L189.879 53.0682C189.879 53.0682 189.879 52.9836 189.879 52.9272V52.3351H189.992V53.2374H189.907V53.2656ZM190.752 53.181L190.611 52.2787H190.752L190.893 53.0682L191.287 53.0118V53.1246L190.78 53.2092L190.752 53.181ZM191.399 53.0682L191.202 52.1659H191.343L191.54 53.04H191.399V53.0682ZM192.075 52.9272L191.765 53.0118L191.54 52.1095L191.85 52.0249C191.99 51.9967 192.131 52.0249 192.159 52.1941C192.159 52.2787 192.159 52.3633 192.103 52.4197C192.103 52.4197 192.272 52.5042 192.3 52.5888C192.356 52.758 192.244 52.8708 192.075 52.9272V52.9272ZM192.525 52.7862L192.244 51.9121L192.75 51.7429V51.8557L192.412 51.9967L192.497 52.2787L192.807 52.1659V52.2787L192.525 52.3915L192.61 52.6734L193.004 52.5324V52.6452L192.497 52.8144L192.525 52.7862ZM193.679 52.3633L193.37 52.1095L193.201 52.1941L193.341 52.5324L193.229 52.5888L192.891 51.7429L193.144 51.6301C193.144 51.6301 193.285 51.5737 193.313 51.5737C193.426 51.5737 193.51 51.6301 193.538 51.7429C193.595 51.8557 193.538 51.9685 193.482 52.0249H193.51L193.82 52.3069L193.679 52.3633V52.3633ZM194.13 52.1659L193.792 51.4327L193.51 51.5737L193.454 51.4609L194.13 51.1225L194.186 51.2353L193.904 51.3763L194.242 52.1095L194.13 52.1659V52.1659ZM195.058 51.6865L194.861 51.4891L194.552 51.6583L194.608 51.9403L194.495 51.9967L194.355 51.0379L194.467 50.9816L195.199 51.6301L195.087 51.6865H195.058ZM195.537 51.4045L195.284 51.5737L194.805 50.7842L195.058 50.615C195.284 50.474 195.537 50.5022 195.706 50.756C195.847 51.0097 195.79 51.2353 195.565 51.4045H195.537Z" fill="#313945"/>
<path d="M195.055 50.7284L194.914 50.813L195.28 51.4052L195.421 51.3206C195.59 51.2078 195.646 51.0386 195.533 50.8412C195.421 50.6439 195.224 50.6157 195.055 50.7284V50.7284Z" fill="#313945"/>
</g>
<path d="M236.985 44.1155C236.985 45.4734 236.393 45.8246 235.113 45.8246H234.71V46.2694H242.294C248.291 46.2694 251.064 42.0318 251.064 38.4966C251.064 34.6336 248.291 31.4964 242.034 31.4964C240.801 31.4964 239.355 31.5198 238.052 31.5667C236.748 31.6135 235.587 31.6603 234.71 31.7071V32.152H235.184C236.582 32.152 236.985 32.5266 236.985 34.0483V44.1155ZM238.953 32.0349C239.237 32.0115 239.877 31.9413 240.849 31.9413C244.167 31.9413 245.85 32.7607 246.94 33.8376C248.338 35.2189 248.836 37.1387 248.836 38.8712C248.836 41.2826 247.746 43.0854 246.869 43.9282C245.399 45.3797 244.072 45.8246 240.896 45.8246C239.024 45.8246 238.953 45.4968 238.953 44.5369V32.0349Z" fill="#313945"/>
<path d="M263.36 36.5534H262.909C262.791 37.9113 262.388 38.3093 261.535 38.3093H257.292V32.55H262.293C263.146 32.55 263.739 32.9714 264.047 34.9614H264.474L264.284 31.7071H252.907V32.152H253.429C255.017 32.152 255.325 32.7139 255.325 34.0249V43.9048C255.325 45.3095 254.993 45.8246 253.097 45.8246H252.433V46.2694H265.019L265.398 42.781H264.971C264.379 44.7944 263.881 45.4265 262.222 45.4265H258.572C257.695 45.4265 257.292 45.2158 257.292 44.1389V39.1521H261.298C262.269 39.1521 262.72 39.3394 262.909 41.0017H263.36V36.5534Z" fill="#313945"/>
<path d="M274.074 42.7108L274.572 46.2694H274.975C275.07 46.1289 275.236 46.0118 275.449 46.0118C275.781 46.0118 277.44 46.644 278.744 46.644C281.517 46.644 283.579 44.9349 283.579 42.6405C283.579 38.3327 275.97 37.4431 275.97 34.1186C275.97 32.8075 277.061 31.9178 278.625 31.9178C280.26 31.9178 281.777 32.9948 282.441 34.6805H282.844L282.441 31.7071H282.062C281.92 31.8944 281.825 31.9413 281.635 31.9413C280.806 31.9413 280.403 31.356 278.412 31.356C275.994 31.356 274.193 32.8075 274.193 34.7507C274.193 38.8478 281.801 39.8779 281.801 43.2492C281.801 45.0988 280.118 46.0118 278.53 46.0118C276.681 46.0118 275.022 44.7944 274.525 42.7108H274.074Z" fill="#313945"/>
<path d="M294.676 39.8077L296.264 44.0687C296.359 44.3028 296.525 44.6539 296.525 45.0285C296.525 45.6841 296.027 45.8246 294.676 45.8246H294.06V46.2694H300.578V45.8246C299.393 45.8246 298.895 45.5904 298.421 44.3496L293.468 31.356H291.406L291.619 31.871L287.305 43.5068C286.547 45.5436 286.286 45.8011 284.746 45.8246V46.2694H290.221V45.8246H289.841C288.538 45.8246 287.922 45.5904 287.922 44.9583C287.922 44.6305 288.23 43.9282 288.396 43.4834L289.77 39.8077H294.676ZM294.274 38.7776H290.173L292.188 33.3226L294.274 38.7776Z" fill="#313945"/>
<path d="M313.585 42.8512H313.158C311.665 44.8881 311.238 45.4265 309.84 45.4265H306.356C305.668 45.4265 305.408 45.1924 305.408 44.5603V33.7674C305.408 32.3158 305.81 32.152 307.351 32.152H308.228V31.7071H301.236V32.152H301.568C303.061 32.152 303.44 32.667 303.44 33.9079V44.2794C303.44 45.4734 303.037 45.8246 301.947 45.8246H301.165V46.2694H311.76L313.585 42.8512Z" fill="#313945"/>
<path d="M326.686 31.7071V32.152C328.653 32.2456 329.009 32.6436 329.009 34.8912V40.3462C329.009 44.3262 326.283 45.4265 323.605 45.4265C320.073 45.4265 318.201 43.5302 318.201 40.3696V33.861C318.201 32.5031 318.769 32.152 320.073 32.152H320.286V31.7071H314.195V32.152C315.807 32.1754 316.233 32.4095 316.233 33.9079V40.7442C316.233 44.0921 318.556 46.644 323.083 46.644C328.226 46.644 330.099 43.5302 330.099 40.6271V34.3059C330.099 32.8075 330.668 32.1754 332.256 32.152V31.7071H326.686Z" fill="#313945"/>
<path d="M335.171 44.1155C335.171 45.4734 334.578 45.8246 333.298 45.8246H332.895V46.2694H340.48C346.476 46.2694 349.249 42.0318 349.249 38.4966C349.249 34.6336 346.476 31.4964 340.219 31.4964C338.987 31.4964 337.541 31.5198 336.237 31.5667C334.934 31.6135 333.772 31.6603 332.895 31.7071V32.152H333.369C334.768 32.152 335.171 32.5266 335.171 34.0483V44.1155ZM337.138 32.0349C337.422 32.0115 338.062 31.9413 339.034 31.9413C342.352 31.9413 344.035 32.7607 345.125 33.8376C346.524 35.2189 347.021 37.1387 347.021 38.8712C347.021 41.2826 345.931 43.0854 345.054 43.9282C343.585 45.3797 342.257 45.8246 339.081 45.8246C337.209 45.8246 337.138 45.4968 337.138 44.5369V32.0349Z" fill="#313945"/>
<defs>
<clipPath id="clip0_3254_73558">
<rect width="75.7391" height="78" fill="white" transform="translate(151.546)"/>
</clipPath>
</defs>
</svg>
