<svg width="329" height="130" viewBox="0 0 329 130" fill="none" xmlns="http://www.w3.org/2000/svg">
<path d="M113.287 2.4248L113.287 127.089" stroke="#313945" stroke-width="0.785961"/>
<path d="M145.14 58.7815L152.829 42.4315H152.891L153.786 56.1741C153.91 57.7999 152.489 58.1986 151.038 58.1986V58.7815H158.974V58.1986C156.72 58.1986 156.473 58.1986 156.287 55.3765L155.299 41.4805C155.238 40.4376 155.824 40.4069 157.337 40.2842V39.732H152.798L145.387 55.1924L137.945 39.732H133.282V40.2842C135.196 40.4069 135.258 40.959 135.135 42.9836L134.394 54.9164C134.239 57.7078 133.961 58.1986 131.707 58.1986V58.7815H138.13V58.1986C136.74 58.1373 135.567 57.7999 135.66 56.2354L136.493 42.4315H136.555L144.43 58.7815H145.14Z" fill="#313945"/>
<path d="M168.516 58.1986C166.385 58.1986 165.891 57.5851 165.891 55.7753V42.7689C165.891 40.7136 166.57 40.2842 168.516 40.2842V39.7013H161.012V40.2842C162.741 40.3762 163.328 40.8363 163.328 42.4928V55.5605C163.328 57.6158 162.926 58.1066 161.012 58.1986V58.7815H168.516V58.1986Z" fill="#313945"/>
<path d="M191.676 58.9962V41.8793C191.676 40.683 192.17 40.2842 194.486 40.2842V39.7013H187.26V40.2842C189.73 40.3455 190.286 40.683 190.286 42.5542V54.763L175.742 39.7013H170.894V40.2842C171.974 40.3149 172.777 40.5603 173.488 41.0511V56.1434C173.488 57.5545 172.87 58.1986 170.955 58.1986H170.832V58.7815H177.996V58.1986C175.371 58.1986 174.877 57.7385 174.877 55.5299V42.3701L190.873 58.9962H191.676Z" fill="#313945"/>
<path d="M203.919 58.1986C201.788 58.1986 201.294 57.5851 201.294 55.7753V42.7689C201.294 40.7136 201.974 40.2842 203.919 40.2842V39.7013H196.415V40.2842C198.144 40.3762 198.731 40.8363 198.731 42.4928V55.5605C198.731 57.6158 198.33 58.1066 196.415 58.1986V58.7815H203.919V58.1986Z" fill="#313945"/>
<path d="M206.668 54.1188L207.316 58.7815H207.841C207.965 58.5974 208.181 58.444 208.459 58.444C208.891 58.444 211.053 59.2723 212.751 59.2723C216.364 59.2723 219.05 57.033 219.05 54.0268C219.05 48.3825 209.138 47.2168 209.138 42.8609C209.138 41.1431 210.558 39.9774 212.597 39.9774C214.727 39.9774 216.704 41.3885 217.568 43.5971H218.093L217.568 39.7013H217.074C216.889 39.9467 216.765 40.0081 216.518 40.0081C215.437 40.0081 214.913 39.2412 212.319 39.2412C209.169 39.2412 206.822 41.1431 206.822 43.6892C206.822 49.0574 216.734 50.4071 216.734 54.8243C216.734 57.2477 214.542 58.444 212.473 58.444C210.064 58.444 207.903 56.8489 207.254 54.1188H206.668Z" fill="#313945"/>
<path d="M232.182 40.8057H237.555C238.79 40.8057 239.346 41.5112 239.809 44.2106H240.365L239.871 39.2412H239.284C239.222 39.6093 238.759 39.7013 238.327 39.7013H223.474C223.257 39.7013 223.041 39.6707 222.856 39.6093C222.671 39.548 222.547 39.4253 222.516 39.2412H221.93L221.435 44.2106H221.991C222.454 41.5112 223.01 40.8057 224.246 40.8057H229.619V55.9593C229.619 57.6158 229.063 58.1986 227.179 58.1986H226.037V58.7815H235.764V58.1986H234.621C232.737 58.1986 232.182 57.6158 232.182 55.9593V40.8057Z" fill="#313945"/>
<path d="M255.674 46.0512H255.087C254.933 47.8303 254.408 48.3518 253.296 48.3518H247.769V40.8057H254.284C255.396 40.8057 256.168 41.3578 256.569 43.9652H257.125L256.878 39.7013H242.056V40.2842H242.735C244.804 40.2842 245.205 41.0204 245.205 42.7382V55.6833C245.205 57.5238 244.773 58.1986 242.303 58.1986H241.438V58.7815H257.835L258.329 54.2108H257.774C257.002 56.8489 256.353 57.6772 254.192 57.6772H249.436C248.293 57.6772 247.769 57.4011 247.769 55.99V49.4561H252.987C254.253 49.4561 254.84 49.7015 255.087 51.8795H255.674V46.0512Z" fill="#313945"/>
<path d="M265.826 50.7138C266.32 50.7445 266.721 50.7752 267.4 50.7752C268.234 50.7752 268.728 50.7445 269.5 50.7138C270.241 51.2046 271.322 52.0942 272.681 53.4439L274.719 55.4685C277.467 58.1986 278.857 59.3643 284.261 59.1189V58.5667C281.883 58.4134 279.999 57.2784 278.178 55.4685L275.738 53.0452C274.287 51.6034 273.36 50.7445 272.218 49.8549C274.75 49.1187 276.325 47.1862 276.325 44.8855C276.325 41.7566 273.762 39.4253 268.049 39.4253C266.042 39.4253 265.424 39.4559 264.158 39.5173C262.892 39.5786 261.008 39.7013 260.267 39.7013V40.2842H260.947C262.738 40.2842 263.263 40.8363 263.263 42.7382V55.6526C263.263 57.7078 262.614 58.1986 260.792 58.1986H260.267V58.7815H269.006V58.1986H268.296C266.567 58.1986 265.826 57.7385 265.826 55.898V50.7138ZM265.826 40.0694C266.381 40.0081 266.783 40.0081 267.37 40.0081C272.125 40.0081 273.422 42.2167 273.422 45.0695C273.422 48.7506 271.168 50.1923 267.74 50.1923C267.03 50.1923 266.567 50.223 265.826 50.131V40.0694Z" fill="#313945"/>
<path d="M293.332 58.1986C291.201 58.1986 290.707 57.5851 290.707 55.7753V42.7689C290.707 40.7136 291.387 40.2842 293.332 40.2842V39.7013H285.828V40.2842C287.558 40.3762 288.144 40.8363 288.144 42.4928V55.5605C288.144 57.6158 287.743 58.1066 285.828 58.1986V58.7815H293.332V58.1986Z" fill="#313945"/>
<path d="M318.499 48.7199C318.499 43.1983 313.497 39.2412 307.661 39.2412C301.083 39.2412 296.359 43.5664 296.359 49.6709C296.359 55.4072 301.454 59.2723 307.506 59.2723C313.497 59.2723 318.499 54.9164 318.499 48.7199ZM315.597 49.7322C315.597 54.0881 313.188 58.5054 308.155 58.5054C303.183 58.5054 299.261 54.4562 299.261 48.7199C299.261 45.0389 301.423 40.0081 306.858 40.0081C311.953 40.0081 315.597 44.0266 315.597 49.7322Z" fill="#313945"/>
<path d="M134.672 86.7416C134.672 88.5207 133.9 88.9809 132.232 88.9809H131.707V89.5637H141.589C149.401 89.5637 153.014 84.0114 153.014 79.3794C153.014 74.318 149.401 70.2075 141.249 70.2075C139.643 70.2075 137.759 70.2382 136.061 70.2995C134.363 70.3609 132.85 70.4222 131.707 70.4836V71.0664H132.325C134.147 71.0664 134.672 71.5572 134.672 73.5511V86.7416ZM137.235 70.913C137.605 70.8823 138.439 70.7903 139.705 70.7903C144.028 70.7903 146.221 71.864 147.641 73.275C149.463 75.0849 150.111 77.6003 150.111 79.8703C150.111 83.0298 148.691 85.3918 147.548 86.4961C145.634 88.398 143.905 88.9809 139.767 88.9809C137.327 88.9809 137.235 88.5514 137.235 87.2937V70.913Z" fill="#313945"/>
<path d="M169.034 76.8334H168.447C168.293 78.6126 167.768 79.134 166.656 79.134H161.128V71.5879H167.644C168.756 71.5879 169.528 72.14 169.929 74.7475H170.485L170.238 70.4836H155.416V71.0664H156.095C158.164 71.0664 158.565 71.8026 158.565 73.5204V86.4655C158.565 88.306 158.133 88.9809 155.663 88.9809H154.798V89.5637H171.195L171.689 84.9931H171.133C170.361 87.6311 169.713 88.4594 167.551 88.4594H162.796C161.653 88.4594 161.128 88.1833 161.128 86.7722V80.2384H166.347C167.613 80.2384 168.2 80.4838 168.447 82.6617H169.034V76.8334Z" fill="#313945"/>
<path d="M182.994 84.901L183.642 89.5637H184.167C184.29 89.3797 184.507 89.2263 184.785 89.2263C185.217 89.2263 187.378 90.0545 189.077 90.0545C192.69 90.0545 195.376 87.8152 195.376 84.809C195.376 79.1647 185.464 77.9991 185.464 73.6431C185.464 71.9253 186.884 70.7596 188.922 70.7596C191.053 70.7596 193.03 72.1707 193.894 74.3793H194.419L193.894 70.4836H193.4C193.215 70.729 193.091 70.7903 192.844 70.7903C191.763 70.7903 191.238 70.0234 188.645 70.0234C185.495 70.0234 183.148 71.9253 183.148 74.4714C183.148 79.8396 193.06 81.1893 193.06 85.6066C193.06 88.0299 190.868 89.2263 188.799 89.2263C186.39 89.2263 184.229 87.6311 183.58 84.901H182.994Z" fill="#313945"/>
<path d="M209.835 81.0973L211.904 86.6802C212.028 86.987 212.244 87.4471 212.244 87.9379C212.244 88.7968 211.596 88.9809 209.835 88.9809H209.033V89.5637H217.525V88.9809C215.981 88.9809 215.332 88.6741 214.714 87.0483L208.261 70.0234H205.574L205.852 70.6983L200.232 85.944C199.244 88.6128 198.904 88.9502 196.897 88.9809V89.5637H204.03V88.9809H203.536C201.838 88.9809 201.035 88.6741 201.035 87.8459C201.035 87.4164 201.436 86.4962 201.652 85.9133L203.443 81.0973H209.835ZM209.31 79.7476H203.968L206.593 72.6002L209.31 79.7476Z" fill="#313945"/>
<path d="M234.47 85.0851H233.914C231.969 87.7538 231.413 88.4594 229.591 88.4594H225.052C224.156 88.4594 223.817 88.1526 223.817 87.3244V73.183C223.817 71.2811 224.342 71.0664 226.349 71.0664H227.491V70.4836H218.382V71.0664H218.814C220.759 71.0664 221.254 71.7413 221.254 73.3671V86.9563C221.254 88.5207 220.729 88.9809 219.308 88.9809H218.289V89.5637H232.092L234.47 85.0851Z" fill="#313945"/>
<path d="M251.539 70.4836V71.0664C254.102 71.1891 254.566 71.7106 254.566 74.6554V81.8028C254.566 87.0176 251.014 88.4594 247.525 88.4594C242.924 88.4594 240.484 85.9747 240.484 81.8335V73.3057C240.484 71.5265 241.225 71.0664 242.924 71.0664H243.202V70.4836H235.266V71.0664C237.365 71.0971 237.921 71.4038 237.921 73.3671V82.3243C237.921 86.7109 240.947 90.0545 246.846 90.0545C253.546 90.0545 255.986 85.9747 255.986 82.1709V73.8885C255.986 71.9253 256.727 71.0971 258.796 71.0664V70.4836H251.539Z" fill="#313945"/>
<path d="M262.594 86.7416C262.594 88.5207 261.822 88.9809 260.155 88.9809H259.63V89.5637H269.511C277.324 89.5637 280.937 84.0114 280.937 79.3794C280.937 74.318 277.324 70.2075 269.171 70.2075C267.566 70.2075 265.682 70.2382 263.984 70.2995C262.285 70.3609 260.772 70.4222 259.63 70.4836V71.0664H260.247C262.069 71.0664 262.594 71.5572 262.594 73.5511V86.7416ZM265.157 70.913C265.528 70.8823 266.361 70.7903 267.627 70.7903C271.951 70.7903 274.143 71.864 275.564 73.275C277.386 75.0849 278.034 77.6003 278.034 79.8703C278.034 83.0298 276.614 85.3918 275.471 86.4961C273.556 88.398 271.827 88.9809 267.689 88.9809C265.25 88.9809 265.157 88.5514 265.157 87.2937V70.913Z" fill="#313945"/>
<g clip-path="url(#clip0_3110_70184)">
<path d="M18.2342 103.527C16.8982 104.223 15.1614 104.383 14.5735 104.383C11.5809 104.383 10.1914 102.081 10.1914 100.1C10.1914 98.1194 11.6343 95.4961 14.9476 95.4961C16.4172 95.4961 17.3792 95.9512 17.6464 95.9512C17.78 95.9512 17.8869 95.9244 17.967 95.8441H18.1541V98.0658H17.8869C17.5128 96.3527 16.3638 95.8173 15.1079 95.8173C12.7031 95.8173 11.474 97.7982 11.474 99.9931C11.474 102.777 13.4246 104.035 15.0011 104.035C15.6156 104.035 16.3104 103.901 17.0852 103.527V101.813C17.0852 101.037 16.818 100.769 15.9897 100.769H15.482V100.529H19.1694V100.769C18.5014 100.823 18.2075 101.037 18.2075 101.626V103.527H18.2342Z" fill="#313945"/>
<path d="M24.063 104.383C21.391 104.383 19.1465 102.67 19.1465 100.127C19.1465 97.4234 21.2307 95.4961 24.1432 95.4961C26.7083 95.4961 28.9261 97.2628 28.9261 99.6987C28.9261 102.456 26.7083 104.383 24.0897 104.383H24.063ZM23.7691 95.8173C21.3643 95.8173 20.4291 98.0658 20.4291 99.6987C20.4291 102.242 22.1659 104.062 24.3569 104.062C26.548 104.062 27.6435 102.108 27.6435 100.154C27.6435 97.6108 26.0403 95.8441 23.7958 95.8441L23.7691 95.8173Z" fill="#313945"/>
<path d="M30.2029 97.1282C30.2029 96.3519 30.096 95.9504 29.1608 95.9504H28.6799V95.6827C29.0539 95.6827 29.9891 95.6024 30.39 95.6024C31.1381 95.5756 32.1802 95.5488 32.4207 95.5488C33.6231 95.5488 34.6652 95.7362 35.1462 96.0842C35.7073 96.4857 35.9745 96.9408 35.9745 97.61C35.9745 98.3863 35.3332 99.109 34.4247 99.2696C35.7073 99.6711 36.4555 100.501 36.4555 101.572C36.4555 102.642 35.7073 104.168 33.5162 104.168H28.5195V103.901H28.8402C29.9624 103.901 30.1762 103.633 30.1762 102.776V97.1282H30.2029ZM31.3252 99.2161H32.8215C34.1308 99.2161 34.7721 98.7075 34.7721 97.6367C34.7721 96.6731 34.211 95.8165 32.5276 95.8165C32.2337 95.8165 31.6725 95.8433 31.3252 95.87V99.2428V99.2161ZM31.3252 102.375C31.3252 103.419 31.726 103.767 32.8749 103.767C34.6652 103.767 35.1996 102.642 35.1996 101.572C35.1996 100.501 34.398 99.457 32.7948 99.457H31.3252V102.375V102.375Z" fill="#313945"/>
<path d="M40.0379 104.168H36.7246V103.9C37.5797 103.846 37.74 103.632 37.74 102.722V96.9134C37.74 96.1639 37.4728 95.9765 36.7246 95.923V95.6553H40.0379V95.923C39.1829 95.923 38.889 96.1103 38.889 97.0205V102.802C38.889 103.605 39.1027 103.873 40.0379 103.873V104.141V104.168Z" fill="#313945"/>
<path d="M46.6634 101.089H46.3962C46.2893 100.126 46.0221 100.018 45.461 100.018H43.1631V102.936C43.1631 103.552 43.4035 103.686 43.9112 103.686H45.9954C46.9573 103.686 47.2245 103.311 47.5719 102.133H47.8124L47.5986 104.168H40.3574V103.9H40.7315C41.827 103.9 42.0141 103.605 42.0141 102.776V97.0205C42.0141 96.2442 41.827 95.923 40.9185 95.923H40.6246V95.6553H47.1711L47.278 97.5558H47.0375C46.8505 96.4048 46.5298 96.1639 46.0221 96.1639H43.1363V99.5099H45.5679C46.0488 99.5099 46.2893 99.269 46.3695 98.4927H46.6367V101.089H46.6634Z" fill="#313945"/>
<path d="M50.0624 102.883C50.0624 103.713 50.3831 103.901 51.1579 103.901H51.4786V104.168H47.6309V103.901H47.8713C48.673 103.901 48.9669 103.686 48.9669 102.776V97.0478C48.9669 96.1913 48.7264 95.9504 47.9515 95.9504H47.6576V95.6827C47.9782 95.6827 48.8066 95.6291 49.3677 95.6024C49.9288 95.5756 50.196 95.5488 51.0778 95.5488C53.5895 95.5488 54.7385 96.5928 54.7385 97.9847C54.7385 99.0019 54.0437 99.8585 52.9215 100.206C53.4292 100.608 53.83 100.983 54.4713 101.625L55.5401 102.696C56.3417 103.499 57.17 104.008 58.2121 104.061V104.302C55.834 104.409 55.2194 103.9 53.9903 102.669L53.0818 101.759C52.494 101.17 52.013 100.769 51.6656 100.554C51.3183 100.554 51.1045 100.581 50.7304 100.581C50.4365 100.581 50.2494 100.581 50.0357 100.554V102.857L50.0624 102.883ZM50.0624 100.314C50.3831 100.367 50.5968 100.34 50.9175 100.34C52.4405 100.34 53.4292 99.6979 53.4292 98.065C53.4292 96.8069 52.868 95.8165 50.7571 95.8165C50.4899 95.8165 50.3296 95.8165 50.0891 95.8433V100.314H50.0624Z" fill="#313945"/>
<path d="M65.8483 104.382L58.7942 96.994V102.856C58.7942 103.847 59.0079 104.034 60.1569 104.034V104.302H57.0039V104.034H57.0573C57.9124 104.034 58.1796 103.74 58.1796 103.124V96.4051C57.859 96.191 57.5116 96.0839 57.0306 96.0571V95.7895H59.1683L65.5811 102.482V97.0476C65.5811 96.2178 65.3406 96.0571 64.2451 96.0304V95.7627H67.4248V96.0304C66.4095 96.0304 66.1957 96.2178 66.1957 96.7263V104.329H65.8483V104.382Z" fill="#313945"/>
<path d="M72.0454 104.383C69.3734 104.383 67.1289 102.67 67.1289 100.127C67.1289 97.4234 69.2131 95.4961 72.1256 95.4961C74.6908 95.4961 76.9085 97.2628 76.9085 99.6987C76.9085 102.456 74.6908 104.383 72.0722 104.383H72.0454ZM71.7515 95.8173C69.3467 95.8173 68.4115 98.0658 68.4115 99.6987C68.4115 102.242 70.1483 104.062 72.3394 104.062C74.5304 104.062 75.626 102.108 75.626 100.154C75.626 97.6108 74.0228 95.8441 71.7782 95.8441L71.7515 95.8173Z" fill="#313945"/>
<path d="M81.5066 97.0478C81.5066 96.1645 81.2661 95.9504 80.4645 95.9504H80.1973V95.6827C80.705 95.6559 81.373 95.6291 82.1211 95.6024C82.8693 95.5756 83.6976 95.5488 84.4191 95.5488C88.0263 95.5488 89.6028 97.3691 89.6028 99.6176C89.6028 101.679 87.9996 104.141 84.5527 104.141H80.1973V103.874H80.4377C81.1859 103.874 81.5066 103.66 81.5066 102.883V97.0211V97.0478ZM82.6288 103.151C82.6288 103.713 82.6823 103.901 83.7511 103.901C85.568 103.901 86.3429 103.633 87.1713 102.803C87.679 102.321 88.2935 101.25 88.2935 99.8585C88.2935 98.8413 87.9996 97.7438 87.198 96.914C86.5834 96.2983 85.5948 95.8165 83.6976 95.8165C83.1365 95.8165 82.7624 95.87 82.6021 95.87V103.151H82.6288Z" fill="#313945"/>
<path d="M95.5638 101.089H95.2966C95.1897 100.126 94.9225 100.018 94.3614 100.018H92.0634V102.936C92.0634 103.552 92.3039 103.686 92.8116 103.686H94.8958C95.8577 103.686 96.1249 103.311 96.4723 102.133H96.7128L96.499 104.168H89.2578V103.9H89.6319C90.7274 103.9 90.9145 103.605 90.9145 102.776V97.0205C90.9145 96.2442 90.7274 95.923 89.8189 95.923H89.525V95.6553H96.0715L96.1784 97.5558H95.9379C95.7509 96.4048 95.4302 96.1639 94.9225 96.1639H92.0367V99.5099H94.4683C94.9492 99.5099 95.1897 99.269 95.2699 98.4927H95.5371V101.089H95.5638Z" fill="#313945"/>
<path d="M16.6348 114.021H16.3676C16.2607 113.03 15.9935 112.923 15.4324 112.923H13.1077V115.868C13.1077 116.51 13.3482 116.617 13.8559 116.617H15.9935C16.9555 116.617 17.2494 116.242 17.5968 115.065H17.8372L17.6235 117.126H10.2754V116.858H10.6495C11.745 116.858 11.9588 116.564 11.9588 115.734V109.898C11.9588 109.122 11.7717 108.801 10.8632 108.801H10.5426V108.533H17.1692L17.2761 110.461H17.0356C16.8486 109.283 16.5012 109.042 16.0203 109.042H13.1077V112.441H15.5927C16.1004 112.441 16.3142 112.2 16.3943 111.397H16.6615V114.021H16.6348Z" fill="#313945"/>
<path d="M24.4634 117.153H18.291V116.885H18.7453C19.3865 116.885 19.627 116.671 19.627 115.975V109.845C19.627 109.122 19.4133 108.801 18.5315 108.801H18.3445V108.533H22.4327V108.801H21.925C21.0165 108.801 20.8027 108.908 20.8027 109.765V116.135C20.8027 116.51 20.963 116.644 21.3639 116.644H23.3946C24.2229 116.644 24.4634 116.323 25.3185 115.118H25.5589L24.4901 117.126L24.4634 117.153Z" fill="#313945"/>
<path d="M29.5413 115.037C29.8353 116.269 30.7972 116.991 31.866 116.991C32.8012 116.991 33.7632 116.456 33.7632 115.358C33.7632 113.378 29.3276 112.762 29.3276 110.326C29.3276 109.175 30.3697 108.318 31.7859 108.318C32.9348 108.318 33.1753 108.666 33.6563 108.666C33.7632 108.666 33.8166 108.64 33.8968 108.533H34.1105L34.351 110.299H34.1105C33.7364 109.309 32.8279 108.666 31.8927 108.666C30.9575 108.666 30.343 109.202 30.343 109.978C30.343 111.932 34.7785 112.467 34.7785 115.01C34.7785 116.376 33.5761 117.366 31.9462 117.366C31.198 117.366 30.2094 116.991 30.0223 116.991C29.8887 116.991 29.8085 117.072 29.7551 117.152H29.5146L29.2207 115.037H29.4879H29.5413Z" fill="#313945"/>
<path d="M38.0082 113.324L37.2066 115.492C37.0997 115.76 36.9394 116.161 36.9394 116.375C36.9394 116.75 37.2868 116.884 38.0617 116.884H38.2754V117.151H35.0957V116.884C36.0042 116.884 36.1378 116.723 36.592 115.519L39.1038 108.639L38.9701 108.345H40.1726L43.0584 116.027C43.3256 116.75 43.6195 116.911 44.3142 116.911V117.178H40.5199V116.911H40.8673C41.6422 116.911 41.9361 116.83 41.9361 116.429C41.9361 116.215 41.8292 116 41.7758 115.867L40.8406 113.35H37.9815L38.0082 113.324ZM39.4244 109.496L38.2487 112.708H40.6268L39.3977 109.496H39.4244Z" fill="#313945"/>
<path d="M50.4126 117.153H44.2402V116.885H44.6945C45.3358 116.885 45.5763 116.671 45.5763 115.975V109.845C45.5763 109.122 45.3625 108.801 44.4807 108.801H44.2937V108.533H48.3819V108.801H47.8742C46.9657 108.801 46.7519 108.908 46.7519 109.765V116.135C46.7519 116.51 46.9123 116.644 47.3131 116.644H49.3438C50.1721 116.644 50.4126 116.323 51.2677 115.118H51.5082L50.4393 117.126L50.4126 117.153Z" fill="#313945"/>
<path d="M53.5644 117.367L50.5717 109.872C50.2244 108.988 50.064 108.801 49.209 108.801V108.533H53.0033V108.801C51.7207 108.828 51.4268 109.122 51.694 109.765L54.179 115.975L56.37 110.246C56.5304 109.872 56.6105 109.577 56.6105 109.39C56.6105 108.961 56.2631 108.801 55.3279 108.801V108.533H58.5344V108.801C57.8129 108.801 57.4388 109.122 57.1182 109.979L54.2591 117.367H53.5644V117.367Z" fill="#313945"/>
<path d="M59.8442 113.324L59.0425 115.492C58.9357 115.76 58.7753 116.161 58.7753 116.375C58.7753 116.75 59.1227 116.884 59.8976 116.884H60.1114V117.151H56.9316V116.884C57.8401 116.884 57.9737 116.723 58.428 115.519L60.9397 108.639L60.8061 108.345H62.0085L64.8943 116.027C65.1615 116.75 65.4554 116.911 66.1502 116.911V117.178H62.3559V116.911H62.7032C63.4781 116.911 63.772 116.83 63.772 116.429C63.772 116.215 63.6652 116 63.6117 115.867L62.6765 113.35H59.8174L59.8442 113.324ZM61.2603 109.496L60.0846 112.708H62.4627L61.2336 109.496H61.2603Z" fill="#313945"/>
<path d="M67.323 109.925C67.323 109.015 67.0825 108.801 66.2809 108.801H66.0137V108.533C66.5214 108.506 67.1894 108.48 67.9643 108.453C68.7124 108.426 69.5675 108.399 70.2889 108.399C73.9496 108.399 75.5528 110.246 75.5528 112.548C75.5528 114.636 73.9229 117.153 70.4492 117.153H66.0404V116.885H66.2809C67.029 116.885 67.3764 116.671 67.3764 115.868V109.925H67.323ZM68.4719 116.135C68.4719 116.698 68.5254 116.885 69.5942 116.885C71.4379 116.885 72.2128 116.617 73.0678 115.761C73.5755 115.252 74.2168 114.208 74.2168 112.763C74.2168 111.745 73.9229 110.594 73.1213 109.791C72.48 109.149 71.4913 108.667 69.5675 108.667C69.0063 108.667 68.6323 108.721 68.4719 108.721V116.109V116.135Z" fill="#313945"/>
<path d="M81.1334 117.366C78.4347 117.366 76.1367 115.626 76.1367 113.03C76.1367 110.272 78.2476 108.318 81.1869 108.318C83.8054 108.318 86.05 110.112 86.05 112.601C86.05 115.385 83.8055 117.366 81.1334 117.366V117.366ZM80.8395 108.666C78.4079 108.666 77.446 110.942 77.446 112.601C77.446 115.198 79.2096 117.018 81.4273 117.018C83.6451 117.018 84.7674 115.037 84.7674 113.056C84.7674 110.487 83.1374 108.666 80.8662 108.666H80.8395Z" fill="#313945"/>
<path d="M88.4342 115.841C88.4342 116.671 88.7549 116.885 89.5297 116.885H89.8504V117.153H85.9492V116.885H86.1897C87.018 116.885 87.2852 116.671 87.2852 115.734V109.898C87.2852 109.042 87.0448 108.801 86.2431 108.801H85.9492V108.533C86.2699 108.533 87.1249 108.48 87.686 108.453C88.2472 108.426 88.5411 108.399 89.4229 108.399C91.988 108.399 93.137 109.443 93.137 110.862C93.137 111.906 92.4423 112.763 91.2933 113.111C91.801 113.512 92.2285 113.887 92.8698 114.556L93.9653 115.654C94.7936 116.457 95.622 116.992 96.6908 117.046V117.286C94.2592 117.394 93.6447 116.858 92.4155 115.627L91.507 114.717C90.8925 114.101 90.4115 113.7 90.0909 113.485C89.7435 113.485 89.5297 113.512 89.1557 113.512C88.8617 113.512 88.6747 113.512 88.4609 113.485V115.814L88.4342 115.841ZM88.4342 113.244C88.7549 113.298 88.9686 113.271 89.2893 113.271C90.8123 113.271 91.8277 112.629 91.8277 110.969C91.8277 109.684 91.2398 108.694 89.1289 108.694C88.8617 108.694 88.6747 108.694 88.4342 108.721V113.271V113.244Z" fill="#313945"/>
<path d="M53.5386 12.0049L54.5539 14.066L56.8252 14.3872L55.1685 15.9933L55.5693 18.2686L53.5386 17.1979L51.5078 18.2686L51.8819 15.9933L50.252 14.3872L52.5232 14.066L53.5386 12.0049Z" fill="#313945"/>
<path d="M68.4448 15.832L69.4602 17.8664L71.7314 18.2144L70.1015 19.8205L70.4755 22.069L68.4448 20.9983L66.4141 22.069L66.8149 19.8205L65.1582 18.2144L67.4294 17.8664L68.4448 15.832Z" fill="#313945"/>
<path d="M79.8888 25.0938L80.9042 27.1549L83.1754 27.4761L81.5454 29.0822L81.9195 31.3575L79.8888 30.2868L77.858 31.3575L78.2588 29.0822L76.6289 27.4761L78.8734 27.1549L79.8888 25.0938Z" fill="#313945"/>
<path d="M86.4292 38.3701L87.4445 40.4313L89.7158 40.7793L88.0858 42.3853L88.4599 44.6339L86.4292 43.5631L84.3984 44.6339L84.7992 42.3853L83.1426 40.7793L85.4138 40.4313L86.4292 38.3701Z" fill="#313945"/>
<path d="M86.672 53.791L87.6874 55.8522L89.9586 56.2002L88.3286 57.7795L88.7027 60.0548L86.672 58.984L84.6412 60.0548L85.0421 57.7795L83.4121 56.2002L85.6833 55.8522L86.672 53.791Z" fill="#313945"/>
<path d="M79.9155 67.1465L80.9309 69.2076L83.2021 69.5288L81.5454 71.1349L81.9462 73.4102L79.9155 72.3395L77.8848 73.4102L78.2856 71.1349L76.6289 69.5288L78.9001 69.2076L79.9155 67.1465Z" fill="#313945"/>
<path d="M68.5288 76.4365L69.5442 78.4977L71.8154 78.8189L70.1587 80.425L70.5595 82.6735L68.5288 81.6295L66.498 82.6735L66.8721 80.425L65.2422 78.8189L67.5134 78.4977L68.5288 76.4365Z" fill="#313945"/>
<path d="M53.5386 79.7012L54.5539 81.7355L56.7984 82.0835L55.1685 83.6896L55.5693 85.9382L53.5386 84.8674L51.5078 85.9382L51.8819 83.6896L50.252 82.0835L52.5232 81.7355L53.5386 79.7012Z" fill="#313945"/>
<path d="M38.8647 76.4365L39.8801 78.4977L42.1513 78.8189L40.4947 80.425L40.8955 82.7003L38.8647 81.6295L36.834 82.7003L37.2081 80.425L35.5781 78.8189L37.8494 78.4977L38.8647 76.4365Z" fill="#313945"/>
<path d="M27.4565 67.1465L28.4719 69.2076L30.7431 69.5556L29.1132 71.1617L29.4873 73.4102L27.4565 72.3395L25.4258 73.4102L25.8266 71.1617L24.1699 69.5556L26.4411 69.2076L27.4565 67.1465Z" fill="#313945"/>
<path d="M20.6759 53.8984L21.6913 55.9596L23.9625 56.2808L22.3326 57.8869L22.7066 60.1622L20.6759 59.0915L18.6452 60.1622L19.046 57.8869L17.416 56.2808L19.6605 55.9596L20.6759 53.8984Z" fill="#313945"/>
<path d="M20.6759 38.3701L21.6913 40.4313L23.9625 40.7793L22.3326 42.3853L22.7066 44.6339L20.6759 43.5631L18.6452 44.6339L19.046 42.3853L17.416 40.7793L19.6605 40.4313L20.6759 38.3701Z" fill="#313945"/>
<path d="M27.1128 25.1221L28.1281 27.1832L30.3994 27.5044L28.7694 29.1105L29.1435 31.3858L27.1128 30.3151L25.082 31.3858L25.4828 29.1105L23.8262 27.5044L26.0974 27.1832L27.1128 25.1221Z" fill="#313945"/>
<path d="M38.8432 15.832L39.8586 17.8932L42.1298 18.2144L40.4732 19.8205L40.874 22.0958L38.8432 21.0251L36.8125 22.0958L37.1866 19.8205L35.5566 18.2144L37.8279 17.8932L38.8432 15.832Z" fill="#313945"/>
<path d="M70.9361 54.3246H70.9094C70.7489 54.3246 70.6152 54.4318 70.6152 54.5925C70.6152 54.7533 70.7489 54.8872 70.9094 54.8872H70.9896C71.1233 54.8872 71.2838 54.7533 71.2838 54.5925C71.2838 54.4318 71.1501 54.2979 70.9896 54.2979H70.9629L70.9361 54.3246Z" fill="#313945"/>
<path d="M74.0628 50.1311C74.0628 50.1311 73.5819 50.2114 73.3681 50.3988C73.2612 50.4791 73.1276 50.5326 72.9673 50.5594C73.0475 50.4255 73.0742 50.2381 73.0742 50.024C73.0207 49.5154 73.0207 48.6588 73.0207 48.6588C73.0207 48.6588 72.8604 49.1674 72.5932 49.3013C72.326 49.4351 71.8718 49.5957 71.7916 49.7563C71.7114 49.9169 71.3641 49.9169 71.2305 50.4523C71.0969 50.9609 71.0969 50.9073 71.0167 51.0947C71.0167 51.1483 70.9633 51.2018 70.9098 51.2821C71.0702 50.5058 71.2038 49.7028 71.2038 49.0336C71.2038 48.9265 71.2038 48.7927 71.2038 48.6856C71.3374 48.5785 71.4977 48.3911 71.4977 48.3911C71.6046 48.2038 72.9139 47.7487 73.1009 47.4007C73.2879 47.0527 73.3948 46.8118 73.475 46.6512C73.5551 46.4906 73.7155 45.9285 73.6888 45.6876C73.6888 45.4466 73.6353 44.5098 73.5284 44.3759C73.5284 44.3759 73.1276 44.5901 72.994 44.8042C72.9673 44.8577 72.9139 44.9113 72.8604 44.9648C72.8604 44.831 72.8604 44.7239 72.807 44.5901C72.6199 44.135 72.3527 43.5461 72.3527 43.5461C72.3527 43.5461 72.1123 43.9209 71.9787 44.1618C71.7649 44.6168 71.5244 44.6436 71.4977 44.8042C71.4977 44.9916 71.2038 45.0987 71.0969 45.4466C71.0702 45.5805 71.0434 45.6608 71.0167 45.7411C70.9098 44.9916 70.803 44.2956 70.6426 43.6799C70.6961 43.4926 70.7762 43.0375 70.9633 42.9037C71.2305 42.6895 71.2572 42.3951 71.2572 42.0471C71.2572 41.6991 71.177 41.4582 71.1236 41.244C71.0969 41.0299 70.4289 40.1465 70.4823 39.8789C70.4823 39.8789 70.1617 40.6016 70.0281 40.8961C69.7074 40.5748 69.2265 40.2001 68.9593 40.0662C68.7989 39.7986 68.6386 39.5041 68.4516 39.2097C68.4516 39.1294 68.4516 38.942 68.505 38.7546C68.5584 38.4869 68.6386 38.0586 68.5584 37.8713C68.4783 37.6571 68.2912 37.4965 68.2111 37.2288C68.1309 36.9611 68.0775 36.8005 67.8637 36.5864C67.65 36.3722 67.356 36.0778 67.356 36.0778C67.356 36.0778 67.2759 36.4525 67.1957 36.7738C67.1156 36.7202 67.0354 36.6935 66.982 36.6935C66.9285 36.6935 66.8216 36.6132 66.7147 36.5596C66.5544 36.3455 66.4208 36.1581 66.2872 35.9975C66.3674 35.9439 66.4208 35.8636 66.4208 35.7566C66.4208 35.596 66.2872 35.4621 66.1269 35.4621C65.9666 35.4621 65.833 35.596 65.833 35.7566C65.833 35.9172 65.9666 36.051 66.1269 36.051C66.1803 36.051 66.2338 36.051 66.2872 35.9975C66.3139 36.051 66.4475 36.2384 66.6079 36.5061C66.4743 36.4258 66.3407 36.3455 66.2872 36.3187C66.1803 36.2384 66.1269 37.095 66.3674 37.55H66.2338C65.7261 37.3894 65.2451 37.443 65.2451 37.443C65.3787 37.443 65.6727 37.7642 65.6994 37.9516C65.7528 38.1122 66.0467 38.5137 66.2071 38.594C66.3674 38.6743 66.6613 38.8884 66.8484 39.0758C67.0354 39.2632 67.5431 39.29 67.9172 39.29C68.0775 39.3703 68.2111 39.397 68.2912 39.3703C68.4516 39.638 68.6119 39.9324 68.7722 40.2001C68.7188 40.4142 68.6386 40.789 68.6653 40.9228C68.4516 40.8961 67.7301 40.7087 67.7301 40.7087C67.8103 41.137 67.9172 41.5653 68.1042 41.7794C68.0775 41.8062 68.024 41.8597 68.024 41.9132C68.024 41.9936 68.024 42.1006 68.0775 42.1809C68.0775 42.1809 68.2378 42.4218 68.4783 42.5289L64.9779 44.9916C65.2451 40.8158 64.7642 36.8273 64.6306 35.9439C65.0581 35.7833 64.9512 35.596 64.9512 35.596L64.7909 35.1677C64.7909 35.1677 64.871 35.1944 64.9245 35.1944C65.0046 35.1944 65.0848 35.1677 65.1115 35.1141C65.2184 35.0071 65.1917 34.7929 65.0581 34.6858C65.0581 34.6858 64.9512 34.552 64.7909 34.4985L65.2986 34.4182L65.5925 33.2136L64.4168 33.6151V34.1237C64.3099 33.9631 64.1763 33.8828 64.1763 33.8828C64.0427 33.749 63.8557 33.749 63.7488 33.8828C63.6419 33.9899 63.6686 34.204 63.8022 34.3111C63.8022 34.3111 63.9893 34.4985 64.2298 34.552L58.3513 41.0567L54.4501 34.5252C54.6906 32.9459 53.8356 30.5368 53.8088 30.4565C53.8623 30.2423 53.889 30.0282 53.889 29.814C54.1562 29.7337 54.2364 29.5196 54.2631 29.4393C54.2631 29.4393 53.9959 29.0645 53.8088 28.9039C53.889 28.9039 53.9692 28.9039 54.0226 28.9039C54.2096 28.9039 54.3432 28.7701 54.3432 28.6095C54.3432 28.4489 54.1829 28.315 54.0226 28.315C54.0226 28.315 53.8623 28.315 53.702 28.3418L54.0226 27.9403L53.408 26.8428L52.8202 27.9403L53.1408 28.3418C52.9805 28.2883 52.8202 28.315 52.8202 28.315C52.7133 28.315 52.6331 28.3418 52.5797 28.4221C52.5263 28.4756 52.4995 28.5292 52.4995 28.6095C52.4995 28.6898 52.5263 28.7433 52.5797 28.7968C52.6331 28.8504 52.74 28.9039 52.8202 28.9039H52.8469C52.8469 28.9039 52.9538 28.9039 53.0072 28.9039C52.9003 28.9842 52.7667 29.1448 52.6866 29.2519C52.6599 29.2787 52.6331 29.3054 52.6064 29.359V29.4393C52.6064 29.4393 52.7133 29.6267 52.7935 29.6802C52.3392 30.51 51.2437 32.9191 51.885 35.4354L48.5182 41.0834L42.613 34.5788C42.8535 34.552 43.0673 34.3646 43.094 34.3379C43.1742 34.2843 43.2009 34.1772 43.2009 34.0969C43.2009 34.0166 43.2009 33.9631 43.1474 33.9096C43.094 33.856 43.0406 33.8293 42.9604 33.8293C42.8802 33.8293 42.7733 33.856 42.7199 33.9096C42.7199 33.9096 42.5863 34.0166 42.5061 34.1505V33.6419L41.3037 33.2404L41.5977 34.4449L42.1053 34.5252C41.945 34.6055 41.8381 34.7126 41.8381 34.7126C41.758 34.7661 41.7313 34.8732 41.7313 34.9535C41.7313 35.0338 41.7313 35.0874 41.8114 35.1409C41.8649 35.1944 41.9183 35.2212 41.9985 35.2212C41.9985 35.2212 42.0786 35.2212 42.1321 35.1944L41.9717 35.596C41.9717 35.596 41.8649 35.7833 42.2924 35.9439C42.1588 36.8273 41.6778 40.8158 41.945 44.9916L38.4447 42.5289C38.6851 42.4486 38.8455 42.2077 38.8455 42.2077C38.8989 42.1274 38.9256 42.0471 38.8989 41.9668C38.8989 41.8865 38.8722 41.8329 38.8187 41.8062C39.0058 41.592 39.1127 41.1637 39.1928 40.7354C39.1928 40.7354 38.4714 40.8961 38.2576 40.9496C38.2576 40.789 38.2042 40.4142 38.1507 40.2269C38.3111 39.9592 38.4714 39.6647 38.6317 39.397C38.7119 39.397 38.8455 39.397 39.0058 39.3167C39.3799 39.3167 39.9143 39.29 40.0746 39.1026C40.2349 38.9152 40.5288 38.7011 40.7159 38.6208C40.8762 38.5405 41.1701 38.1657 41.2236 37.9783C41.2503 37.8177 41.5709 37.4697 41.6778 37.4697C41.6778 37.4697 41.2236 37.4162 40.6892 37.55H40.5556C40.8228 37.1217 40.7426 36.2652 40.6357 36.3455C40.5823 36.3722 40.4487 36.4525 40.3151 36.5328C40.4754 36.2652 40.5823 36.1046 40.6357 36.0243C40.6892 36.051 40.7426 36.0778 40.796 36.0778C40.9564 36.0778 41.09 35.9439 41.09 35.7833C41.09 35.6227 40.9564 35.4889 40.796 35.4889C40.6357 35.4889 40.5021 35.6227 40.5021 35.7833C40.5021 35.8904 40.5556 35.9707 40.6357 36.0243C40.5021 36.1849 40.3685 36.3722 40.2082 36.5864C40.1013 36.6399 39.9677 36.6935 39.941 36.7202C39.8876 36.7202 39.8074 36.7738 39.7272 36.8005C39.6471 36.5061 39.5669 36.1046 39.5669 36.1046C39.5669 36.1046 39.273 36.399 39.0592 36.6132C38.8455 36.8273 38.792 36.9879 38.7119 37.2556C38.6317 37.5233 38.4447 37.6839 38.3645 37.898C38.2843 38.1122 38.3645 38.5405 38.4179 38.7814C38.4447 38.9688 38.4714 39.1561 38.4714 39.2364C38.3111 39.5309 38.124 39.7986 37.9637 40.093C37.6965 40.2269 37.2155 40.6016 36.8949 40.9228C36.7613 40.6284 36.4674 39.9056 36.4674 39.9056C36.5208 40.1733 35.8795 41.0567 35.8261 41.2708C35.7726 41.485 35.6925 41.7259 35.6925 42.0739C35.6925 42.4218 35.7192 42.7163 35.9864 42.9304C36.1734 43.0643 36.2269 43.5193 36.307 43.7067C36.1734 44.3224 36.0398 45.0184 35.9329 45.7679C35.9329 45.6876 35.9062 45.6073 35.8528 45.4734C35.7459 45.1254 35.4787 45.0184 35.452 44.831C35.4253 44.6704 35.1848 44.6168 34.971 44.1885C34.8374 43.9476 34.5969 43.5729 34.5969 43.5729C34.5969 43.5729 34.303 44.1618 34.1427 44.6168C34.0892 44.7507 34.0892 44.8577 34.0892 44.9916C34.0358 44.9381 33.9824 44.9113 33.9556 44.831C33.822 44.6168 33.4212 44.4027 33.4212 44.4027C33.3411 44.5633 33.2876 45.4734 33.2609 45.7143C33.2342 45.9552 33.3945 46.5174 33.4747 46.678C33.5548 46.8386 33.6617 47.0795 33.8488 47.4275C34.0358 47.7755 35.3451 48.2305 35.452 48.4179C35.452 48.4179 35.6123 48.6053 35.7459 48.7124C35.7459 48.8194 35.7459 48.9533 35.7459 49.0603C35.7459 49.7563 35.8528 50.5326 36.0398 51.3089C35.9864 51.2553 35.9597 51.175 35.9329 51.1215C35.8528 50.9609 35.8528 50.9877 35.7192 50.4791C35.5856 49.9705 35.2382 49.9705 35.1581 49.7831C35.0779 49.6225 34.5969 49.4351 34.3564 49.328C34.116 49.1942 33.9289 48.6856 33.9289 48.6856C33.9289 48.6856 33.9289 49.5422 33.8755 50.0508C33.8755 50.2649 33.9022 50.4523 33.9824 50.5861C33.822 50.5594 33.6884 50.5058 33.5816 50.4255C33.3678 50.2649 32.8868 50.1578 32.8868 50.1578C32.8601 50.3185 33.1006 51.2821 33.154 51.523C33.2075 51.7907 33.5281 52.2993 33.6617 52.4064C33.7953 52.5402 33.9556 52.7544 34.2496 53.0488C34.5435 53.3433 35.3184 53.4236 36.1734 53.6912C36.4941 53.7983 36.6811 54.0125 36.7613 54.1463C36.788 54.2534 36.8147 54.3604 36.8414 54.414C36.9483 54.7887 37.0552 55.2438 37.2155 55.7256C36.975 55.4044 36.5742 55.3241 36.0933 55.2438C35.7993 55.1903 34.6504 54.8958 34.6504 54.8958C34.9176 55.11 35.1046 55.6721 35.2649 56.1807C34.5969 56.0468 33.9289 56.1807 33.9289 56.1807C34.0625 56.261 34.9443 57.0373 35.0779 57.4655C35.2115 57.8938 35.6657 58.6433 35.7993 58.7504C35.9329 58.8307 36.307 59.3126 36.5742 59.5535C36.8414 59.8212 37.8568 59.6873 38.2042 59.6873C38.4179 59.6873 38.7653 59.8479 38.9791 59.9282C39.1928 60.2227 39.5669 60.6242 40.0479 61.0525C39.7807 60.9454 39.273 60.6242 39.1127 60.4368C38.9523 60.2227 39.1127 61.1863 39.3264 61.5075C39.0592 61.5075 38.7386 61.4272 38.5783 61.2934C38.2843 61.0793 38.5515 62.0697 38.8455 62.3374C39.5135 62.9263 39.4333 63.0066 39.5402 63.0601C38.9791 63.1672 38.2042 63.3545 37.9637 63.2207C37.6698 63.0601 38.3111 63.649 38.7119 63.8096C39.273 64.0238 39.1928 64.3985 39.8074 64.5859C40.4487 64.8 41.1434 65.0409 41.5175 64.9874C41.8114 64.9339 42.0252 64.8 42.4527 64.7465C42.8268 64.693 43.4681 64.2111 44.1628 64.1041C44.8575 64.5323 45.5523 64.9339 46.247 65.2551L46.3539 65.3086C46.3539 65.3086 46.1935 65.3086 46.1134 65.3354C45.8462 65.3889 44.8041 65.6298 44.5369 65.496C44.2964 65.3622 44.8041 66.0581 45.1247 66.3258C44.6171 66.4329 43.9223 66.4864 43.6818 66.4329C43.3345 66.3526 44.3766 67.343 44.7774 67.4501H44.8308C44.5102 67.5839 44.1895 67.6642 44.0559 67.6375C43.7086 67.6375 45.1782 68.5743 45.579 68.5208C46.8883 68.3334 48.0907 68.7885 48.7053 68.5208C49.2397 68.3067 49.5603 68.1728 49.8275 68.0657C50.0947 67.9587 50.255 67.7178 50.4154 67.6107C50.549 67.5036 50.6291 67.2895 51.0834 67.0753C51.0834 67.0753 51.9117 67.1556 52.4461 67.1021C52.2858 67.1556 52.0987 67.2627 51.885 67.4501C51.217 67.6642 50.6826 67.8516 50.4955 67.9319C49.9878 68.1996 48.6785 69.3506 48.3312 69.7254C48.3312 69.7254 49.4267 69.6451 49.6137 69.6451C49.8008 69.6451 50.1749 68.8956 50.3352 68.7617C50.3886 68.7349 50.6558 68.5743 51.0834 68.387C50.3352 69.5915 51.4307 70.582 51.4307 70.582C51.1368 70.234 51.4575 69.6451 51.4575 69.6451L52.0453 70.0198C51.2971 68.735 52.4461 67.8516 52.8469 67.6375L52.9805 67.5839C53.1141 67.7445 53.2744 67.8516 53.4615 67.8516C53.6485 67.8516 53.8088 67.7445 53.9157 67.6107C53.9959 67.6375 54.076 67.6642 54.1562 67.691C54.6104 67.9854 55.5724 68.8153 54.8509 70.0198L55.4388 69.6451C55.4388 69.6451 55.7594 70.234 55.4655 70.582C55.4655 70.582 56.5343 69.6183 55.8396 68.4137C56.2137 68.5743 56.4541 68.7082 56.4809 68.7349C56.6412 68.8688 57.042 69.6183 57.2023 69.6183C57.3626 69.6183 58.4849 69.6986 58.4849 69.6986C58.1375 69.3238 56.8282 68.1728 56.3205 67.9051C56.1602 67.8248 55.6525 67.6642 55.038 67.4501C54.7975 67.2627 54.6104 67.1556 54.4501 67.0753C55.0112 67.1289 55.8129 67.0753 55.8129 67.0753C56.2137 67.2627 56.3205 67.4768 56.4274 67.5571C56.5878 67.691 56.7481 67.9319 57.0153 68.0122C57.2825 68.0925 57.6031 68.2531 58.1375 68.4673C58.7254 68.7082 59.9545 68.2799 61.2638 68.4673C61.6646 68.5208 63.1609 67.5571 62.7869 67.5839C62.6265 67.5839 62.3326 67.5036 62.012 67.3965H62.0654C62.4662 67.2627 63.5083 66.2723 63.1609 66.3526C62.9205 66.4061 62.2257 66.3526 61.7181 66.2455C62.0387 65.9778 62.5197 65.3086 62.3059 65.4157C62.0387 65.5495 60.9966 65.3086 60.7294 65.2551C60.6492 65.2551 60.5691 65.2283 60.4889 65.2283L60.5958 65.1748C61.2905 64.8536 61.9853 64.452 62.68 64.0238C63.4014 64.1041 64.016 64.6127 64.3901 64.6662C64.8176 64.693 65.0314 64.8268 65.3253 64.9071C65.6994 64.9874 66.3941 64.7197 67.0354 64.5056C67.65 64.3182 67.5698 63.9434 68.1309 63.7293C68.5317 63.5687 69.173 62.9798 68.8791 63.1404C68.6386 63.2742 67.8637 63.0869 67.3026 62.9798C67.4095 62.953 67.356 62.846 67.9973 62.2571C68.2912 61.9626 68.5584 60.9722 68.2645 61.2131C68.1042 61.3469 67.8103 61.4005 67.5164 61.4272C67.7034 61.106 67.8904 60.1156 67.7301 60.3565C67.5698 60.5707 67.0621 60.8651 66.7949 60.9722C67.2759 60.5171 67.65 60.1424 67.8637 59.8479C68.0775 59.7676 68.4249 59.607 68.6386 59.607C68.986 59.607 70.0013 59.7408 70.2685 59.4732C70.5358 59.2055 70.9098 58.7504 71.0434 58.6701C71.177 58.5898 71.6313 57.8135 71.7649 57.3852C71.8985 56.957 72.7803 56.1807 72.9139 56.1004C72.9139 56.1004 72.2459 55.9665 71.5778 56.1004C71.7382 55.5918 71.9252 55.0296 72.1924 54.8155C72.1924 54.8155 71.0434 55.11 70.7495 55.1635C70.2685 55.2438 69.8677 55.3241 69.6273 55.6453C69.7876 55.1635 69.8945 54.7084 70.0013 54.3337C70.0013 54.2534 70.0548 54.1731 70.0815 54.066C70.1617 53.9322 70.3487 53.718 70.6694 53.6109C71.5244 53.3165 72.2993 53.263 72.5932 52.9685C72.8871 52.6741 73.0475 52.4599 73.1811 52.3261C73.3147 52.1922 73.6353 51.6836 73.6888 51.4427C73.7155 51.2018 73.9827 50.2649 73.956 50.0775L74.0628 50.1311ZM70.99 49.3013C70.99 49.6492 70.8831 50.2649 70.7228 51.0412C70.7228 50.7735 70.6159 50.5326 70.5358 50.3452C70.4022 50.0775 70.2418 50.0775 70.1617 49.8366C70.0815 49.5689 69.7876 49.4886 69.6005 49.2745C69.4402 49.0603 69.0929 48.8194 69.0929 48.8194C68.9593 49.1139 68.9325 50.2649 69.0127 50.4255C69.0127 50.4791 69.0661 50.5861 69.0661 50.6932C68.9325 50.6397 68.8257 50.6129 68.8257 50.6129C68.6119 51.1215 68.8524 51.6301 68.9593 52.0852C68.9593 52.2458 69.173 52.5134 69.2532 52.674C69.3333 52.8347 69.3066 52.9953 69.3868 53.1291C69.4669 53.2362 69.654 53.263 69.841 53.4236C69.841 53.7448 69.8945 54.0125 69.9479 54.0928C69.7876 54.6549 69.6005 55.1903 69.4135 55.7524C69.4135 55.565 69.3333 55.3776 69.1997 55.1635C68.986 54.8155 68.9325 54.8423 68.8257 54.4675C68.6653 54.0125 68.318 54.0125 68.2645 53.5306C68.2645 53.5306 68.1309 54.0928 68.1042 54.5478C68.0508 55.0029 68.1309 55.1903 68.1844 55.4312C68.2111 55.5918 68.1576 55.7792 68.1042 55.9933C68.1042 55.7524 68.0508 55.4044 67.9439 55.2438C67.8103 55.0832 67.8637 54.7352 67.8637 54.7352C67.7836 54.8958 67.3828 55.4312 67.2224 55.5918L67.0621 55.3241C69.3066 51.4159 68.7722 44.6971 68.692 43.787C69.0661 43.7067 68.986 43.5193 68.986 43.5193L68.9058 43.091C68.9058 43.091 68.986 43.1446 69.0127 43.1446C69.0127 43.1446 69.0661 43.1446 69.0929 43.1446C69.1463 43.1446 69.1997 43.1446 69.2532 43.091C69.3066 43.0375 69.3601 42.984 69.3601 42.8769C69.5204 43.0375 69.6807 43.1981 69.8143 43.2249C70.1082 43.3052 70.3754 43.439 70.4022 43.5729C70.5892 44.3492 70.7495 45.2057 70.8297 46.0088C70.4823 45.634 70.4022 44.9113 69.654 44.5098C69.654 44.5098 69.6807 44.8042 69.654 45.0184C69.6273 45.1522 69.5738 45.4466 69.5738 45.6876C69.3066 45.5002 69.0394 45.2325 68.986 45.1254C68.986 45.1254 68.8524 46.1694 69.1463 46.7583C69.4402 47.3204 69.4402 47.6149 69.7876 47.7219C70.135 47.8558 70.1884 47.9361 70.2953 48.0164C70.4289 48.0967 70.6426 48.2305 70.803 48.2305C70.8564 48.2305 70.8831 48.2573 70.9098 48.2841C70.9098 48.3644 70.9633 48.4447 70.99 48.5518C70.99 48.7927 70.99 48.98 70.99 49.1942V49.3013ZM41.277 44.6971L43.5482 46.3032C43.5482 46.678 43.5482 47.8022 43.8689 48.8194L41.9985 51.9781C41.6778 51.3089 40.9029 49.0871 41.3037 44.7239L41.277 44.6971ZM37.7767 42.8501C37.7767 42.8501 37.937 42.5825 38.1775 42.5557C38.2309 42.7698 38.0439 43.0375 38.0171 43.0375C37.9904 43.091 37.937 43.1178 37.8835 43.1178C37.8301 43.1178 37.8034 43.1178 37.7767 43.1178C37.7499 43.1178 37.7232 43.0643 37.7232 43.0107C37.7232 42.9572 37.7232 42.9037 37.7767 42.8501ZM45.2049 37.6036L46.9952 39.5844C46.9684 40.1198 46.8883 41.8329 47.3425 42.9304L45.7126 45.6876C45.3118 44.8845 44.5102 42.5289 45.2049 37.6036V37.6036ZM52.2323 36.3187C53.0339 36.1849 53.8623 36.1849 54.6372 36.3187L54.9044 36.747C53.9424 36.5328 52.9271 36.5328 51.9651 36.747L52.2323 36.3187ZM52.4461 35.9707L53.4615 34.2843L54.4501 35.9439C53.7821 35.8636 53.1141 35.8636 52.4461 35.9439V35.9707ZM51.7514 37.1217C52.8469 36.8005 54.0226 36.8005 55.1181 37.1217L55.3853 37.5768C54.7708 37.3627 54.1028 37.2556 53.4348 37.2556C52.7667 37.2556 52.072 37.3627 51.4307 37.6036L51.6979 37.1485L51.7514 37.1217ZM51.1902 38.0319C52.6064 37.4162 54.2364 37.3894 55.6525 38.0319L62.5731 49.6225H60.0347C60.0347 49.6225 59.7942 49.4619 59.6873 49.3816C59.6606 49.3548 59.6071 49.328 59.5804 49.3013C59.3934 49.1942 59.2063 49.1407 59.0193 49.1942C58.9124 49.1942 58.8055 49.2477 58.7254 49.3013C58.6185 49.3548 58.5383 49.4083 58.4582 49.4619C58.4582 49.4619 58.4582 49.4619 58.4315 49.4619C58.378 49.4619 58.3513 49.4351 58.2978 49.4083C58.0841 49.3013 57.8703 49.1674 57.6833 49.0068C57.6298 48.9533 57.5497 48.8997 57.4695 48.873C57.3626 48.8194 57.229 48.7927 57.0954 48.7927C57.0153 48.7927 56.9084 48.7927 56.8282 48.8462C56.6946 48.873 56.5877 48.9533 56.4809 49.0068C56.4007 49.0603 56.3473 49.1139 56.2671 49.1674C56.2671 49.1674 56.2671 49.1674 56.2404 49.1674C56.2404 49.1674 55.9732 49.0068 55.8396 48.9533C55.706 48.8997 55.5991 48.8462 55.4655 48.7659C55.3052 48.6588 55.1449 48.5518 54.9845 48.4179C54.9311 48.3644 54.8777 48.3376 54.8242 48.3108C54.6906 48.2305 54.557 48.2038 54.4234 48.177C54.3165 48.177 54.2364 48.177 54.1295 48.177C53.9959 48.2038 53.889 48.2573 53.7554 48.3108C53.702 48.3376 53.6218 48.3911 53.5684 48.4179V44.4027C53.9959 44.4027 54.3165 44.2421 54.3165 44.0547C54.3165 43.8673 54.0226 42.6628 53.5951 42.3683C53.5951 42.3683 53.221 42.0739 52.7667 42.3683C52.7667 42.3683 52.2323 42.6628 52.4995 43.091C52.4995 43.091 52.553 43.2249 52.7935 43.1178C52.8469 43.1178 52.9538 43.0375 52.9805 42.8769V42.984C52.9805 43.1446 52.7667 43.2249 52.7667 43.2249C52.6331 43.5996 52.553 43.9476 52.553 44.0547C52.553 44.2421 52.8736 44.3759 53.3012 44.4027V48.4714H53.2744C53.0874 48.3376 52.9271 48.2305 52.7667 48.0967C52.7133 48.0432 52.6599 48.0164 52.5797 47.9629C52.4461 47.8825 52.3125 47.8558 52.1789 47.829C52.072 47.829 51.9384 47.829 51.8315 47.829C51.6979 47.8558 51.5643 47.9093 51.4307 47.9629C51.2971 48.0432 51.1902 48.1235 51.0566 48.2038C51.0566 48.2038 51.0566 48.2038 51.0299 48.2038H51.0032C51.0032 48.2038 50.8963 48.1235 50.8429 48.0967C50.7627 48.0432 50.6826 48.0164 50.6024 47.9896C50.4955 47.9629 50.3886 47.9093 50.3085 47.8558C50.0146 47.6952 49.7741 47.5346 49.5069 47.3204L49.4267 47.2669C49.2397 47.133 49.0259 47.026 48.7854 46.9992H48.5984C48.4381 46.9992 48.3045 47.0527 48.1441 47.1063C47.9838 47.1866 47.8235 47.2669 47.6899 47.374C47.5296 47.481 47.3692 47.6149 47.2089 47.7487C47.0219 47.9361 46.8348 48.1235 46.6745 48.3376C46.5142 48.525 46.3539 48.7391 46.2203 48.9533C46.1134 49.1139 46.0065 49.221 45.8996 49.328C45.8195 49.4083 45.766 49.4619 45.6859 49.5154H44.2697L51.1902 37.9516V38.0319ZM61.1569 45.6608L59.527 42.9037C60.008 41.8329 59.9278 40.1198 59.8743 39.5577L61.6646 37.5768C62.3593 42.5021 61.531 44.8577 61.1569 45.6608ZM68.7188 42.5557C68.9593 42.5825 69.1196 42.8501 69.1196 42.8501C69.1463 42.9037 69.173 42.9572 69.173 42.984C69.173 43.0375 69.173 43.0643 69.1196 43.091C69.0929 43.091 69.0394 43.1178 69.0127 43.091C68.9593 43.091 68.9325 43.0375 68.8791 43.0107C68.8791 43.0107 68.6921 42.7698 68.7455 42.5289L68.7188 42.5557ZM64.8978 51.9513L63.0273 48.7927C63.3747 47.7755 63.3747 46.6512 63.348 46.2765L65.6192 44.6704C66.02 49.0336 65.2184 51.2553 64.9245 51.9245L64.8978 51.9513ZM40.609 55.7524L42.3725 52.7811H63.8022C63.8022 52.7811 63.7221 52.7276 63.6954 52.7008C63.5618 52.6205 63.4549 52.5402 63.3213 52.4331C63.1075 52.2725 62.9205 52.0851 62.7067 51.8978C62.4128 51.6301 62.1456 51.3624 61.8784 51.068C61.6913 50.8806 61.531 50.6932 61.3707 50.5058C61.2905 50.4255 61.2104 50.3452 61.1302 50.2649C60.9966 50.1311 60.8363 49.9972 60.6492 49.8902C60.5691 49.8366 60.4889 49.8099 60.4088 49.7563H62.68L66.2338 55.6989H40.6624L40.609 55.7524ZM44.1628 49.8099H45.4721C45.2316 50.024 44.9644 50.2381 44.6705 50.4255L44.5903 50.4791C44.43 50.5594 44.2964 50.6664 44.1628 50.7735C43.949 50.9341 43.7353 51.1215 43.5215 51.3089C43.3078 51.4963 43.1207 51.6836 42.9069 51.8978L44.1361 49.8099H44.1628ZM53.3813 49.0068C53.3813 49.0068 53.4882 49.0603 53.5416 49.0603C53.5951 49.0603 53.6485 49.1139 53.702 49.1407C53.8623 49.221 53.9959 49.328 54.1295 49.4351C54.37 49.6225 54.557 49.8099 54.744 50.024C55.038 50.3452 55.3319 50.6664 55.6525 50.9877C55.7861 51.1215 55.893 51.2553 56.0266 51.3624C56.3473 51.6836 56.6679 52.0048 57.0153 52.2993L57.0687 52.3528H55.4121C55.4121 52.3528 55.3853 52.3528 55.3586 52.3528L55.2517 52.2725C55.0113 52.0852 54.7975 51.8978 54.5837 51.7104C54.3432 51.4695 54.076 51.2553 53.8356 51.0144C53.3012 50.5058 52.7935 49.9437 52.2858 49.4083C52.2056 49.3013 52.1255 49.221 52.0186 49.1139C51.8315 48.8997 51.6178 48.7124 51.404 48.5518C51.404 48.5518 51.6178 48.3644 51.7514 48.3376C51.8315 48.3108 51.885 48.2841 51.9651 48.2841C52.0987 48.2841 52.2323 48.2841 52.3392 48.3376C52.3927 48.3644 52.4461 48.3911 52.4995 48.4447C52.6331 48.5518 52.7667 48.6588 52.9003 48.7391C53.0607 48.8462 53.221 48.9265 53.3813 49.0068V49.0068ZM60.1416 50.1311H60.2217C60.2217 50.1311 60.3553 50.2114 60.4088 50.2649C60.5691 50.372 60.7027 50.4791 60.8363 50.5861C60.9164 50.6664 60.9966 50.7467 61.0768 50.827C61.2371 51.0144 61.3974 51.175 61.5577 51.3624C61.718 51.523 61.8516 51.6569 62.012 51.8175C62.199 52.0048 62.3861 52.1655 62.5731 52.3528C62.5731 52.3528 62.5731 52.3528 62.5731 52.3796H61.6379H61.5844C61.3974 52.2458 61.2371 52.0852 61.0768 51.9245C60.9164 51.7639 60.7561 51.6301 60.5958 51.4695C60.2484 51.1215 59.9011 50.7735 59.5804 50.3988C59.5003 50.3185 59.4468 50.2381 59.3667 50.1578C59.2063 49.9972 59.0193 49.8366 58.8323 49.7028C58.8323 49.7028 58.9926 49.5957 59.0995 49.5689C59.1796 49.5689 59.2865 49.5689 59.3667 49.6225C59.3934 49.6225 59.4201 49.676 59.4468 49.676C59.6606 49.8366 59.8743 49.9972 60.1416 50.1043V50.1311ZM58.8857 50.2649C58.8857 50.2649 59.1262 50.5058 59.2331 50.6129C59.4735 50.8806 59.714 51.1483 59.9812 51.4159C60.2217 51.6569 60.4355 51.871 60.676 52.1119C60.7828 52.1922 60.863 52.2993 60.9699 52.3796H59.6606C59.6606 52.3796 59.6339 52.3796 59.6071 52.3796C59.527 52.2993 59.4201 52.2458 59.3399 52.1655C59.0995 51.9513 58.859 51.7372 58.6185 51.523C58.4849 51.3892 58.3513 51.2553 58.2177 51.1215C57.8703 50.7735 57.523 50.4255 57.2023 50.0508C57.1222 49.9705 57.0687 49.8902 56.9886 49.8099C56.855 49.676 56.7481 49.5689 56.6145 49.4619C56.6145 49.4619 56.8015 49.3013 56.8817 49.2745C56.9351 49.2745 57.0153 49.221 57.0954 49.221C57.1756 49.221 57.229 49.221 57.3092 49.2745C57.3626 49.2745 57.3894 49.328 57.4428 49.3548C57.6566 49.5154 57.8703 49.676 58.1108 49.7831C58.1642 49.8099 58.2444 49.8366 58.3246 49.8634C58.378 49.8634 58.4582 49.9169 58.5116 49.9437C58.6719 50.024 58.8055 50.1311 58.9391 50.2381L58.8857 50.2649ZM56.855 50.2649C57.042 50.4791 57.229 50.6932 57.4161 50.8806C57.6031 51.068 57.7634 51.2553 57.9505 51.4427C58.2444 51.7372 58.5651 52.0584 58.8857 52.3261L58.9659 52.3796H57.7902C57.7902 52.3796 57.7634 52.3796 57.7367 52.3796C57.6566 52.2993 57.5497 52.2458 57.4695 52.1655C57.1756 51.9245 56.9084 51.6836 56.6679 51.4159C56.5343 51.2821 56.374 51.1483 56.2404 50.9877C55.8663 50.6129 55.4922 50.2381 55.1449 49.8366C55.0647 49.7563 54.9845 49.6492 54.9044 49.5689C54.6906 49.3548 54.4768 49.1407 54.2096 48.98C54.1028 48.8997 53.9692 48.8194 53.8356 48.7659C53.8356 48.7659 54.0493 48.6321 54.1829 48.6053C54.2364 48.6053 54.3165 48.6053 54.37 48.6053C54.4501 48.6053 54.5303 48.6321 54.5837 48.6856C54.6372 48.7124 54.6906 48.7391 54.7173 48.7927C54.9845 49.0068 55.2517 49.1942 55.5457 49.328C55.5991 49.328 55.6258 49.3548 55.6793 49.3816C55.7594 49.4083 55.8129 49.4351 55.893 49.4886C56.0533 49.5689 56.1869 49.676 56.3473 49.8099C56.5343 49.9437 56.6946 50.1311 56.8282 50.2917L56.855 50.2649ZM51.6178 49.2745C51.6178 49.2745 51.8315 49.5154 51.9384 49.6225C52.072 49.7563 52.1789 49.8902 52.3125 50.024C52.5263 50.2649 52.7667 50.5058 52.9805 50.72C53.3813 51.1215 53.7821 51.5498 54.2096 51.9245C54.37 52.0852 54.5303 52.219 54.7173 52.3528H43.0138L43.1742 52.1922C43.3612 52.0316 43.5215 51.8442 43.7086 51.6836C43.9223 51.4963 44.1628 51.2821 44.3766 51.0947C44.5102 50.9877 44.6705 50.8806 44.8308 50.8003C44.8843 50.8003 44.911 50.7467 44.9644 50.72C45.3385 50.4523 45.6859 50.1846 46.0065 49.8634C46.1935 49.676 46.3806 49.4886 46.5409 49.3013V49.2477C46.7012 49.0336 46.8616 48.8194 47.0219 48.6053C47.1555 48.4447 47.2891 48.2841 47.4494 48.1502C47.6097 47.9896 47.77 47.8558 47.9571 47.7219C48.064 47.6416 48.1976 47.5613 48.3312 47.5346C48.4113 47.5078 48.5182 47.481 48.5984 47.4543C48.7587 47.4543 48.919 47.4543 49.0793 47.5346C49.1328 47.5613 49.2129 47.6149 49.2664 47.6684C49.4 47.7755 49.5336 47.8825 49.6672 47.9896C49.8275 48.0967 50.0146 48.2038 50.1749 48.2841C50.2818 48.3376 50.3619 48.3644 50.4688 48.4179C50.5222 48.4179 50.6024 48.4714 50.6558 48.4982C50.8162 48.5785 50.9765 48.6856 51.1368 48.7927C51.2971 48.9265 51.4574 49.0603 51.6178 49.221V49.2745ZM48.9725 56.5554C49.6137 57.0373 50.2818 57.3049 50.8696 57.4655C50.4154 57.5994 47.4761 58.3757 44.9377 56.5554H48.9725V56.5554ZM53.0072 58.9646C53.0072 58.9646 53.3012 57.4923 53.4615 56.5554C53.6218 57.4923 53.9157 58.9646 53.9157 58.9646C54.076 59.6873 53.4882 60.3297 53.4615 60.3297C53.4615 60.3297 52.8469 59.6873 53.0072 58.9646ZM57.9238 56.5554H61.9585C59.4468 58.3757 56.4809 57.5994 56.0266 57.4655C56.5877 57.3049 57.2558 57.0373 57.9238 56.5554V56.5554ZM68.2111 42.0739C68.2111 42.0739 68.1576 41.9668 68.1844 41.9132C68.1844 41.9132 68.1844 41.8597 68.2378 41.8329H68.2645C68.4248 41.94 68.5317 42.0739 68.6119 42.2077C68.6119 42.2612 68.6119 42.3148 68.6119 42.3683C68.3714 42.3415 68.2111 42.0739 68.2111 42.0739V42.0739ZM65.0314 35.0071C65.0314 35.0071 64.871 35.0606 64.7909 35.0071C64.7909 35.0071 64.5771 34.8197 64.5504 34.6055C64.7909 34.5788 64.9779 34.7929 64.9779 34.7929C65.0581 34.8732 65.0848 34.9803 65.0314 35.0338V35.0071ZM64.684 33.856L65.1382 33.6954L65.0314 34.1505L64.6573 34.204V33.8293L64.684 33.856ZM63.8557 33.9363C63.8557 33.9363 63.9091 33.8828 63.9626 33.8828C64.016 33.8828 64.0694 33.8828 64.1229 33.9363C64.1229 33.9363 64.3366 34.0969 64.3634 34.3379C64.3366 34.3379 64.3099 34.3379 64.2832 34.3379C64.0962 34.3111 63.9091 34.1505 63.9091 34.1505C63.829 34.0702 63.8022 33.9631 63.8557 33.9096V33.9363ZM54.0226 28.4489H54.076C54.076 28.4489 54.2631 28.5292 54.2631 28.6095C54.2631 28.6898 54.1829 28.7701 54.076 28.7701C54.076 28.7701 53.7554 28.7701 53.5951 28.6095C53.7287 28.4756 53.9157 28.4489 54.0226 28.4489ZM53.4615 27.5387L53.702 27.967L53.4615 28.2615L53.221 27.967L53.4615 27.5387ZM52.8469 28.7433C52.8469 28.7433 52.74 28.7433 52.6866 28.6898C52.6866 28.6898 52.6331 28.6362 52.6331 28.6095C52.6331 28.5827 52.6331 28.5292 52.6866 28.5292C52.7133 28.5024 52.7667 28.4756 52.8469 28.4756C52.8469 28.4756 53.1408 28.4489 53.3012 28.6362C53.1408 28.7968 52.8469 28.7968 52.8202 28.7968L52.8469 28.7433ZM53.3546 31.554C53.3546 31.554 53.6752 31.0454 53.8356 30.4029C54.0493 31.7949 53.7821 32.8388 53.6752 33.1333L53.4615 32.7585L52.74 33.9631C52.6866 33.508 52.7133 32.5712 53.3546 31.5272V31.554ZM42.8268 33.9631C42.8268 33.9631 42.9337 33.9096 42.9871 33.9096C42.9871 33.9096 43.0406 33.9096 43.0673 33.9631C43.094 33.9899 43.094 34.0434 43.094 34.0702C43.094 34.1237 43.0673 34.1773 43.0138 34.2308C43.0138 34.2308 42.8001 34.4449 42.5863 34.4449C42.5863 34.204 42.8268 34.0166 42.8268 34.0166V33.9631ZM41.7847 33.6954L42.2389 33.856V34.2308L41.8649 34.1772L41.758 33.7222L41.7847 33.6954ZM41.9985 35.0606C41.9985 35.0606 41.945 35.0606 41.9183 35.0071C41.8916 34.9803 41.8916 34.9268 41.8916 34.9C41.8916 34.8465 41.9183 34.7929 41.9717 34.7394C41.9717 34.7394 42.1588 34.5252 42.3993 34.5252H42.426C42.426 34.7661 42.1855 34.9535 42.1855 34.9535C42.1321 35.0071 42.0786 35.0071 42.0252 35.0071L41.9985 35.0606ZM38.7386 42.1006C38.7386 42.1006 38.5783 42.3683 38.3378 42.3951C38.3378 42.3415 38.3378 42.288 38.3378 42.2612C38.4447 42.1274 38.5515 41.9936 38.7119 41.8865H38.7386C38.7386 41.8865 38.7653 41.8865 38.792 41.94C38.792 41.9936 38.792 42.0471 38.7386 42.1006V42.1006ZM35.9597 48.7391C35.9597 48.7391 36.0131 48.5785 36.0398 48.4714C36.0665 48.4447 36.12 48.4179 36.1467 48.4179C36.307 48.4179 36.5208 48.2841 36.6544 48.2038C36.788 48.1235 36.8147 48.0432 37.1621 47.9093C37.4827 47.7755 37.4827 47.481 37.8034 46.9457C38.0973 46.3835 37.9637 45.3128 37.9637 45.3128C37.937 45.4199 37.643 45.6876 37.3758 45.8749C37.3758 45.634 37.3224 45.3396 37.2957 45.2057C37.269 44.9916 37.2957 44.6971 37.2957 44.6971C36.5475 45.0987 36.4406 45.8214 36.12 46.1962C36.2269 45.3931 36.3605 44.5633 36.5475 43.7603C36.5475 43.7603 36.8414 43.4926 37.1354 43.4123C37.269 43.3855 37.4293 43.2249 37.5896 43.0643C37.5896 43.0643 37.643 43.2249 37.6965 43.2784C37.7499 43.3052 37.8034 43.332 37.8568 43.332C37.8568 43.332 37.9103 43.332 37.937 43.332C37.9904 43.332 38.0171 43.3052 38.0439 43.2784L37.9637 43.7067C37.9637 43.7067 37.9103 43.8941 38.2576 43.9744C38.1775 44.8845 37.643 51.6033 39.8876 55.5115L39.7272 55.7792C39.5402 55.6185 39.1661 55.0832 39.0859 54.9226C39.0859 54.9226 39.1394 55.2706 39.0058 55.4312C38.8989 55.5918 38.8455 55.913 38.8455 56.1807C38.792 55.9665 38.7386 55.7792 38.7653 55.6185C38.792 55.3509 38.8989 55.1903 38.8455 54.7352C38.8187 54.2801 38.6851 53.718 38.6851 53.718C38.6317 54.1731 38.2843 54.1731 38.124 54.6549C37.9904 55.0296 37.9637 55.0029 37.7499 55.3509C37.6163 55.565 37.5629 55.7524 37.5362 55.9398C37.3491 55.3776 37.1621 54.8155 37.0018 54.2801C37.0552 54.1998 37.0819 53.9322 37.1086 53.6109C37.2957 53.4236 37.4827 53.4236 37.5629 53.3165C37.643 53.1826 37.6163 53.022 37.6965 52.8614C37.7766 52.7008 37.9637 52.4064 37.9904 52.2725C38.0706 51.8175 38.3378 51.2821 38.124 50.8003C38.124 50.8003 38.0171 50.827 37.8835 50.8806C37.8835 50.7735 37.9103 50.6664 37.937 50.6129C38.0171 50.4523 37.9637 49.2745 37.8568 49.0068C37.8568 49.0068 37.5094 49.2745 37.3491 49.4619C37.1888 49.676 36.8949 49.7563 36.788 50.024C36.7078 50.2917 36.5208 50.2917 36.4139 50.5326C36.307 50.72 36.2269 50.9609 36.2269 51.2286C36.0665 50.4523 35.9864 49.8366 35.9597 49.4886C35.9597 49.3013 35.9597 49.0871 35.9597 48.8462V48.7391ZM55.1983 66.4329C54.6372 66.4329 54.2364 66.647 54.1028 66.7006C54.2898 66.3794 55.0647 65.0945 55.5991 64.4788C55.6793 64.6662 55.9732 65.5228 55.225 66.4329H55.1983ZM52.9271 66.7006C52.7935 66.6203 52.3927 66.4329 51.8315 66.4329C51.0834 65.5228 51.3773 64.6662 51.4575 64.4788C51.9919 65.0677 52.7667 66.3793 52.9538 66.6738L52.9271 66.7006ZM66.0467 61.3469C66.0467 61.3469 66.1002 61.2399 66.1002 61.2131C66.1269 61.0257 66.3139 60.6242 66.2605 60.41C66.2338 60.1959 66.1269 59.6873 65.9933 59.3929C65.8597 59.0984 65.5658 58.3757 65.2719 58.2418C65.2719 58.2418 65.0314 59.0449 64.9512 59.3393C64.871 59.6338 64.7909 59.9818 64.6573 60.1424C64.6306 60.1959 64.5504 60.3297 64.4702 60.4636C64.4702 60.3297 64.4702 60.3565 64.4702 59.9015C64.5237 59.3393 63.6152 58.456 63.6152 58.456C63.6954 58.6969 63.348 59.6873 63.1877 59.9015C63.0273 60.1156 62.7601 60.758 62.7334 61.1328C62.7067 61.5343 62.5197 61.7752 62.3861 61.9358C62.1189 62.2838 62.4128 63.7293 62.4395 63.9167C61.8784 64.2647 61.2638 64.6127 60.7294 64.8803C60.5691 64.9606 60.382 65.0409 60.1683 65.1212C60.195 65.0945 60.2484 65.0677 60.2752 65.0142C61.05 64.1844 61.0233 63.9167 61.1302 63.7025C61.3974 63.649 60.7828 63.5955 60.4088 63.6222C60.6225 63.301 60.9164 62.8727 61.1035 62.498C61.2638 62.2035 59.7407 62.605 59.7407 62.605C59.5804 62.6853 59.4468 62.7121 59.3399 62.7656C59.4735 62.3106 59.6071 61.802 59.5804 61.6949C59.5804 61.5611 58.9391 61.7752 58.4047 61.9894C57.9505 62.1767 57.71 62.5247 57.3359 62.7656C56.8817 63.0601 56.8282 63.7828 56.6145 64.1308C56.4809 64.3717 56.4007 64.5591 56.3473 64.693C56.2938 64.345 56.1869 64.1844 56.0533 64.1308H55.9999C55.9999 64.1308 55.9465 64.1041 55.9197 64.0773C55.8129 64.0773 55.6525 64.0238 55.4121 63.997C55.0647 63.9702 54.5303 63.997 54.2631 64.4788C54.0226 64.9339 53.8088 66.0314 53.702 66.2723C53.6485 66.2723 53.5684 66.2187 53.5149 66.2187C53.4615 66.2187 53.3813 66.2187 53.3279 66.2723C53.221 66.0046 53.0072 64.9071 52.7667 64.4788C52.4995 63.997 51.9651 63.9702 51.6178 63.997C51.3773 64.0238 51.217 64.0505 51.1101 64.0773C51.0834 64.0773 51.0566 64.0773 51.0299 64.0773H50.9765C50.8162 64.1844 50.6558 64.3985 50.6558 64.8803C50.6291 64.693 50.549 64.452 50.3352 64.0773C50.1214 63.7293 50.068 63.0066 49.6137 62.7121C49.2397 62.4712 48.9725 62.1232 48.5449 61.9358C48.0373 61.7217 47.396 61.5075 47.3692 61.6414C47.3692 61.7485 47.5028 62.2571 47.6097 62.7121C47.5028 62.6586 47.3692 62.6318 47.2089 62.5515C47.2089 62.5515 45.6859 62.15 45.8462 62.4444C46.0599 62.8192 46.3539 63.2475 46.5409 63.5687C46.1668 63.5419 45.5523 63.5955 45.8195 63.649C45.9263 63.8631 45.8729 64.1308 46.6745 64.9606C46.7012 64.9874 46.7547 65.0409 46.7814 65.0677C46.5676 64.9874 46.3806 64.9071 46.2203 64.8268C45.6591 64.5591 45.0713 64.2111 44.5102 63.8631C44.5369 63.7025 44.8308 62.2303 44.5636 61.8823C44.43 61.7217 44.2697 61.454 44.2162 61.0793C44.1895 60.7045 43.9223 60.0621 43.762 59.8479C43.6017 59.6338 43.2543 58.6434 43.3345 58.4024C43.3345 58.4024 42.4527 59.2858 42.4794 59.8479C42.5061 60.303 42.5061 60.303 42.4794 60.41C42.3993 60.2762 42.3191 60.1424 42.2924 60.0888C42.1588 59.9282 42.0786 59.5802 41.9985 59.2858C41.9183 58.9913 41.6778 58.1883 41.6778 58.1883C41.3839 58.3221 41.09 59.0449 40.9564 59.3393C40.8228 59.6338 40.7426 60.1424 40.6892 60.3565C40.6357 60.5707 40.8228 60.9722 40.8495 61.1596C40.8495 61.1863 40.8495 61.2399 40.9029 61.2934C40.2616 60.8116 39.7272 60.3565 39.2195 59.5802C39.273 59.3661 39.2997 59.2055 39.4066 59.1252C39.5402 58.9913 39.9677 58.4827 40.0479 58.1348C40.128 57.7868 40.0479 57.5459 40.0479 57.3585C40.0479 57.1711 40.1815 56.609 40.1815 56.609V56.5554H40.8762C42.1588 57.4923 46.728 60.3833 52.0987 58.0277C52.072 58.108 52.0453 58.1883 52.0186 58.2151C52.0186 58.2151 50.8696 59.7944 53.4615 60.3297C56.0801 59.7944 54.9044 58.2151 54.9044 58.2151C54.8776 58.1883 54.8509 58.108 54.8242 58.0277C60.195 60.3833 64.7642 57.4923 66.0467 56.5554H66.7682V56.609C66.7682 56.609 66.8751 57.1979 66.8751 57.3585C66.8751 57.5191 66.7949 57.7868 66.8751 58.1348C66.9552 58.456 67.3828 58.9913 67.5164 59.1252C67.5965 59.2055 67.65 59.3661 67.7034 59.5802C67.1957 60.3565 66.6613 60.8116 66.02 61.2934L66.0467 61.3469Z" fill="#313945"/>
<path d="M61.8749 62.9453C61.7144 62.9453 61.6074 63.0525 61.6074 63.1864C61.6074 63.3472 61.7144 63.4543 61.8749 63.4543C62.0086 63.4543 62.1423 63.3472 62.1423 63.1864C62.1423 63.0525 62.0086 62.9453 61.8749 62.9453Z" fill="#313945"/>
<path d="M62.8514 64.5059C62.691 64.5059 62.584 64.6398 62.584 64.7738C62.584 64.9345 62.691 65.0417 62.8514 65.0417C62.9851 65.0417 63.1188 64.9345 63.1188 64.7738C63.1188 64.6398 62.9851 64.5059 62.8514 64.5059Z" fill="#313945"/>
<path d="M66.6893 59.1162C66.5556 59.1162 66.4219 59.2234 66.4219 59.3841C66.4219 59.5181 66.5556 59.652 66.6893 59.652C66.8498 59.652 66.9567 59.5181 66.9567 59.3841C66.9567 59.2234 66.8498 59.1162 66.6893 59.1162Z" fill="#313945"/>
<path d="M68.4766 60.4011C68.4766 60.5619 68.6103 60.6958 68.7707 60.6958C68.9312 60.6958 69.0649 60.5619 69.0649 60.4011C69.0649 60.2672 68.9312 60.1064 68.7707 60.1064C68.6103 60.1064 68.4766 60.2404 68.4766 60.4011Z" fill="#313945"/>
<path d="M69.1477 54.3521C69.3081 54.3521 69.4419 54.2181 69.4419 54.0574C69.4419 53.8966 69.3081 53.7627 69.1477 53.7627C68.9872 53.7627 68.8535 53.8966 68.8535 54.0574C68.8535 54.2181 68.9872 54.3521 69.1477 54.3521Z" fill="#313945"/>
<path d="M70.0032 48.7041C69.8427 48.7041 69.709 48.8381 69.709 48.9988C69.709 49.1595 69.8427 49.2935 70.0032 49.2935C70.1636 49.2935 70.2973 49.1595 70.2973 48.9988C70.2973 48.8381 70.1636 48.7041 70.0032 48.7041Z" fill="#313945"/>
<path d="M71.5793 44.1017C71.7398 44.1017 71.8735 43.9677 71.8735 43.8338C71.8735 43.673 71.7398 43.5391 71.5793 43.5391C71.4189 43.5391 71.2852 43.673 71.2852 43.8338C71.2852 43.9677 71.4189 44.1017 71.5793 44.1017Z" fill="#313945"/>
<path d="M69.5754 44.6089C69.7359 44.6089 69.8696 44.475 69.8696 44.3142C69.8696 44.1535 69.7359 44.0195 69.5754 44.0195C69.415 44.0195 69.2812 44.1535 69.2812 44.3142C69.2812 44.475 69.415 44.6089 69.5754 44.6089Z" fill="#313945"/>
<path d="M67.8852 40.0316C67.8852 39.8708 67.7515 39.7637 67.591 39.7637C67.4306 39.7637 67.2969 39.8976 67.2969 40.0316C67.2969 40.1923 67.4306 40.3263 67.591 40.3263C67.7515 40.3263 67.8852 40.1923 67.8852 40.0316Z" fill="#313945"/>
<path d="M69.1164 39.1226C69.2769 39.1226 69.4106 38.9886 69.4106 38.8279C69.4106 38.6672 69.2769 38.5332 69.1164 38.5332C68.956 38.5332 68.8223 38.6672 68.8223 38.8279C68.8223 38.9886 68.956 39.1226 69.1164 39.1226Z" fill="#313945"/>
<path d="M71.9219 49.0267C71.9219 49.1606 72.0556 49.2946 72.216 49.2946C72.3765 49.2946 72.4835 49.1606 72.4835 49.0267C72.4835 48.8927 72.3498 48.7588 72.216 48.7588C72.0556 48.7588 71.9219 48.8927 71.9219 49.0267Z" fill="#313945"/>
<path d="M45.0936 62.9453C44.9599 62.9453 44.8262 63.0525 44.8262 63.1864C44.8262 63.3472 44.9599 63.4543 45.0936 63.4543C45.2541 63.4543 45.361 63.3472 45.361 63.1864C45.361 63.0525 45.2541 62.9453 45.0936 62.9453Z" fill="#313945"/>
<path d="M43.8884 64.9808C43.8884 64.8468 43.7814 64.7129 43.6209 64.7129C43.4872 64.7129 43.3535 64.8468 43.3535 64.9808C43.3535 65.1415 43.4872 65.2487 43.6209 65.2487C43.7547 65.2487 43.8884 65.1415 43.8884 64.9808Z" fill="#313945"/>
<path d="M40.2811 59.1162C40.1474 59.1162 40.0137 59.2234 40.0137 59.3841C40.0137 59.5181 40.1206 59.652 40.2811 59.652C40.4148 59.652 40.5485 59.5181 40.5485 59.3841C40.5485 59.2234 40.4148 59.1162 40.2811 59.1162Z" fill="#313945"/>
<path d="M38.2004 60.6705C38.3341 60.6705 38.4946 60.5365 38.4946 60.3758C38.4946 60.2418 38.3609 60.0811 38.2004 60.0811C38.04 60.0811 37.9062 60.215 37.9062 60.3758C37.9062 60.5365 38.04 60.6705 38.2004 60.6705Z" fill="#313945"/>
<path d="M37.8235 53.791C37.663 53.791 37.5293 53.925 37.5293 54.0857C37.5293 54.2465 37.663 54.3804 37.8235 54.3804C37.9839 54.3804 38.1176 54.2465 38.1176 54.0857C38.1176 53.925 37.9839 53.791 37.8235 53.791Z" fill="#313945"/>
<path d="M36.354 54.5935C36.354 54.4328 36.2203 54.2988 36.0598 54.2988C35.9261 54.2988 35.7656 54.4328 35.7656 54.5935C35.7656 54.7543 35.8993 54.8882 36.0598 54.8882C36.2203 54.8882 36.354 54.7543 36.354 54.5935Z" fill="#313945"/>
<path d="M36.968 49.2671C37.1285 49.2671 37.2622 49.1332 37.2622 48.9724C37.2622 48.8117 37.1285 48.6777 36.968 48.6777C36.8075 48.6777 36.6738 48.8117 36.6738 48.9724C36.6738 49.1332 36.8075 49.2671 36.968 49.2671Z" fill="#313945"/>
<path d="M35.3918 44.1017C35.5523 44.1017 35.686 43.9677 35.686 43.8338C35.686 43.673 35.5523 43.5391 35.3918 43.5391C35.2314 43.5391 35.0977 43.673 35.0977 43.8338C35.0977 43.9945 35.2314 44.1017 35.3918 44.1017Z" fill="#313945"/>
<path d="M37.3957 44.0459C37.2353 44.0459 37.1016 44.1799 37.1016 44.3406C37.1016 44.5013 37.2353 44.6353 37.3957 44.6353C37.5562 44.6353 37.6899 44.5013 37.6899 44.3406C37.6899 44.1799 37.5562 44.0459 37.3957 44.0459Z" fill="#313945"/>
<path d="M39.084 40.0316C39.084 40.1923 39.2177 40.3263 39.3782 40.3263C39.5386 40.3263 39.6723 40.1923 39.6723 40.0316C39.6723 39.8708 39.5386 39.7637 39.3782 39.7637C39.2177 39.7637 39.084 39.8976 39.084 40.0316Z" fill="#313945"/>
<path d="M37.8547 39.1226C38.0152 39.1226 38.1489 38.9886 38.1489 38.8279C38.1489 38.6939 38.0152 38.5332 37.8547 38.5332C37.6943 38.5332 37.5605 38.6672 37.5605 38.8279C37.5605 38.9886 37.6943 39.1226 37.8547 39.1226Z" fill="#313945"/>
<path d="M35.044 49.0267C35.044 48.866 34.9103 48.7588 34.7499 48.7588C34.5894 48.7588 34.4824 48.8927 34.4824 49.0267C34.4824 49.1606 34.6161 49.2946 34.7499 49.2946C34.9103 49.2946 35.044 49.1606 35.044 49.0267Z" fill="#313945"/>
<path d="M50.1707 45.0645C50.1707 45.0645 50.3311 45.0645 50.3846 45.1985H50.4648L50.3846 45.0109L50.866 44.7966L50.8125 44.6895L50.1172 44.9841V45.0645H50.1707Z" fill="#313945"/>
<path d="M50.0152 44.1808H49.9082L49.9884 44.5827H50.4163V44.4755C50.4163 44.4755 50.3093 44.3952 50.2826 44.3416C50.2826 44.2612 50.2826 44.1808 50.4163 44.154C50.55 44.1272 50.6035 44.154 50.6303 44.2612C50.6303 44.3416 50.6303 44.4219 50.55 44.4487V44.5559C50.7372 44.5023 50.7372 44.3684 50.7105 44.2612C50.657 44.0201 50.4698 44.0201 50.3896 44.0469C50.2291 44.0737 50.1756 44.2076 50.2024 44.3416C50.2024 44.3952 50.2559 44.4487 50.2826 44.4755H50.0687L49.9884 44.1808H50.0152Z" fill="#313945"/>
<path d="M50.0356 43.5919C50.1693 43.5919 50.1961 43.4847 50.2228 43.4312L50.2763 43.2704C50.2763 43.2704 50.3298 43.1097 50.4367 43.1097C50.5437 43.1097 50.5705 43.2436 50.5437 43.324C50.5437 43.4312 50.4902 43.5383 50.3565 43.5115V43.6187C50.3565 43.6187 50.4902 43.6187 50.5437 43.5651C50.5437 43.5651 50.6239 43.4847 50.6239 43.3508C50.6239 43.2168 50.6239 43.0561 50.41 43.0293C50.303 43.0293 50.2228 43.0829 50.1961 43.19L50.1158 43.4044C50.1158 43.4044 50.0891 43.4847 50.0089 43.4847C49.9019 43.4847 49.8751 43.3508 49.9019 43.2972C49.9019 43.2168 49.9554 43.1365 50.0623 43.1365V43.0293C50.0623 43.0293 49.8217 43.0293 49.7949 43.324C49.7949 43.5115 49.9019 43.5919 50.0089 43.6187L50.0356 43.5919Z" fill="#313945"/>
<path d="M50.8389 42.413L50.7587 42.3862L50.5983 42.8148L50.3576 42.7345L50.4913 42.3326L50.4111 42.3058L50.2773 42.7077L50.0634 42.6273L50.1971 42.1987L50.1169 42.1719L49.9297 42.7077L50.6785 42.9488L50.8389 42.413Z" fill="#313945"/>
<path d="M50.9428 42.2279L50.6486 42.0404L50.7823 41.8261C50.8625 41.6653 50.809 41.5581 50.7021 41.5046C50.6486 41.4778 50.5951 41.451 50.5416 41.5046C50.4881 41.5046 50.4346 41.5581 50.3812 41.6117L50.2207 41.9064L50.8625 42.3083L50.916 42.2279H50.9428ZM50.3812 41.8528L50.4881 41.6653C50.4881 41.6653 50.5416 41.5849 50.5951 41.5849C50.5951 41.5849 50.6218 41.5849 50.6486 41.6117C50.7288 41.6653 50.7288 41.7189 50.6486 41.7993L50.5416 41.96L50.3277 41.8261L50.3812 41.8528Z" fill="#313945"/>
<path d="M50.8891 41.1549L51.3972 41.6104L51.4507 41.53L50.9693 41.0745L51.1565 40.887L51.0763 40.8066L50.6484 41.2621L50.7287 41.3425L50.8891 41.1549Z" fill="#313945"/>
<path d="M51.8005 41.2636L51.3191 40.6475L51.2656 40.701L51.7203 41.3172L51.8005 41.2636Z" fill="#313945"/>
<path d="M52.4144 40.8885L52.3876 40.8081L51.9597 41.0225L51.8528 40.8081L52.2272 40.6206L52.2004 40.5134L51.7993 40.7278L51.6923 40.5134L52.0934 40.2991L52.0667 40.2188L51.5586 40.4867L51.9062 41.1564L52.4144 40.8885Z" fill="#313945"/>
<path d="M52.6028 40.8347L52.4958 40.3793C52.4958 40.3793 52.4691 40.2721 52.4423 40.1917L52.79 40.7811H52.8969L52.9772 40.0846C52.9772 40.0846 53.0039 40.2453 53.0039 40.2721L53.1109 40.7008H53.2178L53.0574 39.9238H52.8969L52.8167 40.6472L52.4691 40.0578H52.3086L52.4691 40.8347H52.576H52.6028Z" fill="#313945"/>
<path d="M53.6744 40.7291C53.8349 40.7291 53.9419 40.6487 53.9419 40.5148C53.9419 40.3808 53.8616 40.354 53.8081 40.3272C53.8884 40.3004 53.9151 40.2201 53.9151 40.1665C53.9151 40.0593 53.8616 39.9789 53.7012 39.9521H53.3535V40.7023H53.6477L53.6744 40.7291ZM53.4872 40.0593H53.6477C53.6477 40.0593 53.8081 40.1129 53.8081 40.1933C53.8081 40.2736 53.7547 40.3004 53.6477 40.3004H53.4605V40.0861L53.4872 40.0593ZM53.6744 40.4076C53.6744 40.4076 53.8349 40.4076 53.8349 40.5415C53.8349 40.6219 53.7814 40.6755 53.6744 40.6755H53.4872V40.4076H53.6744V40.4076Z" fill="#313945"/>
<path d="M54.2079 40.4603L54.4486 40.5407C54.4486 40.5407 54.5556 40.6479 54.5556 40.7014C54.5556 40.7014 54.5021 40.8354 54.5288 40.889H54.6626C54.6626 40.889 54.6626 40.889 54.6626 40.8354V40.7014C54.6626 40.7014 54.6626 40.5675 54.6626 40.5407C54.716 40.5407 54.7963 40.5139 54.823 40.38C54.8765 40.2192 54.7695 40.1388 54.6358 40.112L54.2882 40.0049L54.0742 40.755H54.1812L54.2614 40.4603H54.2079ZM54.3416 40.1388L54.5556 40.2192C54.5556 40.2192 54.6893 40.246 54.6358 40.3532C54.6358 40.4603 54.5288 40.4335 54.4754 40.4335L54.2614 40.38L54.3416 40.1388V40.1388Z" fill="#313945"/>
<path d="M55.1904 41.2638L55.2438 41.1835L54.8427 40.9424L54.9764 40.728L55.3241 40.9424L55.3776 40.862L55.0299 40.6477L55.1369 40.4601L55.538 40.6745L55.5915 40.5941L55.0834 40.3262L54.709 40.9691L55.1904 41.2638Z" fill="#313945"/>
<path d="M55.6749 41.7448C55.8353 41.9324 56.0493 41.852 56.183 41.7448C56.3434 41.6109 56.3969 41.3966 56.2632 41.2626L56.0493 41.0215L55.4609 41.5037L55.6481 41.7448H55.6749ZM56.183 41.3162C56.183 41.3162 56.2632 41.5305 56.1295 41.6377C55.9958 41.7448 55.8621 41.7448 55.7818 41.6377L55.6749 41.5037L56.076 41.1554L56.183 41.2894V41.3162Z" fill="#313945"/>
<path d="M56.2069 42.5756L56.2871 42.5488L56.0732 42.1202L56.3138 42.013L56.501 42.4149L56.5813 42.3613L56.3673 41.9862L56.608 41.8791L56.7952 42.2809L56.8754 42.2541L56.6348 41.7451L55.9395 42.0934L56.2069 42.5756Z" fill="#313945"/>
<path d="M56.8513 43.0826L56.3164 43.163V43.2702L57.0652 43.163V43.0826C56.9315 43.0826 56.9047 43.029 56.878 42.9219H56.7978V43.1094L56.8513 43.0826Z" fill="#313945"/>
<path d="M56.9047 43.5116C56.9047 43.5116 56.771 43.5384 56.7443 43.6188C56.7443 43.5384 56.6641 43.4848 56.5571 43.458C56.5303 43.458 56.4501 43.458 56.3699 43.5384C56.3164 43.592 56.3164 43.6723 56.3164 43.7259C56.3164 43.8867 56.4234 43.9938 56.5303 43.9938C56.5838 43.9938 56.6641 43.9938 56.7175 43.8867C56.7175 43.9134 56.771 43.9938 56.878 43.9938C56.985 43.9938 57.0919 43.9402 57.0919 43.7795C57.0919 43.6188 56.985 43.5384 56.9047 43.5384V43.5116ZM56.5571 43.8867C56.5571 43.8867 56.4234 43.8063 56.4234 43.7259C56.4234 43.6188 56.5036 43.592 56.5571 43.592C56.6106 43.592 56.6908 43.6455 56.6641 43.7527C56.6641 43.8331 56.6373 43.8867 56.5303 43.8867H56.5571ZM56.9047 43.8867C56.9047 43.8867 56.7978 43.8063 56.7978 43.7527C56.7978 43.6991 56.8513 43.6455 56.9047 43.6455C56.9582 43.6455 57.0117 43.6455 57.0117 43.7795C57.0117 43.8867 56.9582 43.9134 56.9047 43.9134V43.8867Z" fill="#313945"/>
<path d="M56.7967 44.1531V44.2602C56.7967 44.2602 56.9572 44.3138 56.9304 44.4478C56.9304 44.5549 56.8235 44.5817 56.77 44.5549C56.663 44.5549 56.6363 44.4745 56.6095 44.3942V44.287C56.6095 44.287 56.4758 44.0995 56.3154 44.0459L56.1816 44.5549H56.2619L56.3688 44.1799C56.3688 44.1799 56.4491 44.2334 56.4758 44.3406V44.421C56.5293 44.5549 56.5828 44.6621 56.6897 44.6889C56.8235 44.7157 56.9304 44.6353 56.9839 44.5281C56.9839 44.4478 57.0107 44.2602 56.77 44.2066L56.7967 44.1531Z" fill="#313945"/>
<path d="M56.66 44.8763L56.5798 45.037L56.0984 44.7959L56.0449 44.9031L56.7402 45.2245V45.1442C56.7402 45.1442 56.6867 45.0102 56.7402 44.9031H56.66V44.8763Z" fill="#313945"/>
<path d="M52.5488 47.5794H52.629L53.1901 45.2773C53.1901 45.2773 53.1367 45.2773 53.11 45.2773L52.5488 47.5794V47.5794Z" fill="#313945"/>
<path d="M52.4648 46.5894H52.545L53.026 45.251H52.9458L52.4916 46.5894H52.4648Z" fill="#313945"/>
<path d="M51.6719 47.4184H51.752L52.8476 45.1699H52.7674L51.6986 47.4184H51.6719Z" fill="#313945"/>
<path d="M51.4825 47.0459L52.6582 45.0918H52.578L51.4023 46.9923L51.4825 47.0459Z" fill="#313945"/>
<path d="M50.7637 47.0707L50.8171 47.151L52.5005 45.0096C52.5005 45.0096 52.4471 44.9828 52.4471 44.9561L50.7904 47.0975L50.7637 47.0707Z" fill="#313945"/>
<path d="M50.8698 46.5618L52.3662 44.9022L52.3127 44.8486L50.8164 46.5083L50.8698 46.5618Z" fill="#313945"/>
<path d="M52.225 44.7684C52.225 44.7684 52.1983 44.7148 52.1715 44.7148L49.9805 46.6689L50.0339 46.7225L52.225 44.7951V44.7684Z" fill="#313945"/>
<path d="M52.1223 44.6356C52.1223 44.6356 52.0956 44.582 52.0689 44.582L50.9199 45.4118L50.9734 45.4921L52.1491 44.6623L52.1223 44.6356Z" fill="#313945"/>
<path d="M52.0159 44.4739V44.3936L51.1602 44.849L51.2136 44.9294L52.0159 44.4739Z" fill="#313945"/>
<path d="M51.0306 44.6348V44.7152L51.9132 44.3401C51.9132 44.3401 51.8864 44.2866 51.8597 44.2598L51.0039 44.6348H51.0306Z" fill="#313945"/>
<path d="M50.9414 44.3685L50.9681 44.4489L51.8239 44.181H51.8507L51.8239 44.1006L50.9414 44.3685Z" fill="#313945"/>
<path d="M51.8051 43.9935V43.9131L50.8691 44.1006V44.181L51.8051 43.9667V43.9935Z" fill="#313945"/>
<path d="M50.8164 43.8317V43.912L51.7783 43.8049V43.7246L50.8164 43.8317Z" fill="#313945"/>
<path d="M50.8164 43.6458H51.7524V43.5654H50.8164V43.6458Z" fill="#313945"/>
<path d="M50.8164 43.3782L51.7524 43.4586V43.3782L50.8431 43.2979V43.3782H50.8164Z" fill="#313945"/>
<path d="M50.8379 43.0833L51.7739 43.2976V43.2173L50.8646 43.0029V43.0833H50.8379Z" fill="#313945"/>
<path d="M50.9199 42.8431L51.8024 43.1378V43.0574L50.9467 42.7627V42.8431H50.9199Z" fill="#313945"/>
<path d="M51.0566 42.5215V42.6019L51.8857 42.9769V42.8966L51.0566 42.5215Z" fill="#313945"/>
<path d="M51.1361 42.3333L51.9651 42.7887V42.7084L51.1629 42.2529L51.1094 42.3333H51.1361Z" fill="#313945"/>
<path d="M51.2969 42.121L52.0457 42.6568C52.0457 42.6568 52.0724 42.6032 52.0992 42.6032L51.3504 42.0674L51.2969 42.1478V42.121Z" fill="#313945"/>
<path d="M51.5066 41.8242L51.4531 41.8778L52.1484 42.4672C52.1484 42.4672 52.1752 42.4404 52.2019 42.4136L51.5066 41.8242Z" fill="#313945"/>
<path d="M51.7254 41.6387L51.6719 41.6923L52.3137 42.362L52.3672 42.3084L51.7521 41.6387H51.7254Z" fill="#313945"/>
<path d="M51.9343 41.4502L51.8809 41.5038L52.4692 42.2271C52.4692 42.2271 52.5227 42.2003 52.5227 42.1735L51.9611 41.477L51.9343 41.4502Z" fill="#313945"/>
<path d="M52.2013 41.3164L52.1211 41.37L52.5757 42.1469H52.6559L52.2013 41.3432V41.3164Z" fill="#313945"/>
<path d="M52.4416 41.21H52.3613L52.7357 42.0673H52.816L52.4416 41.2368V41.21Z" fill="#313945"/>
<path d="M52.713 41.1025H52.6328L52.927 41.9866H53.0072L52.713 41.1293V41.1025Z" fill="#313945"/>
<path d="M52.9748 41.0215H52.8945L53.0817 41.9324H53.162L52.9748 41.0483V41.0215Z" fill="#313945"/>
<path d="M53.2658 41.9064H53.346L53.2658 40.9688H53.1855L53.2658 41.9064Z" fill="#313945"/>
<path d="M53.5158 40.9951H53.4355V41.906C53.4355 41.906 53.489 41.906 53.5158 41.906V40.9951Z" fill="#313945"/>
<path d="M53.5938 41.906H53.674L53.7542 40.9951H53.674L53.5938 41.906Z" fill="#313945"/>
<path d="M53.8595 41.9587L54.0467 41.0479H53.9665L53.7793 41.9319H53.8328L53.8595 41.9587Z" fill="#313945"/>
<path d="M54.3119 41.1289H54.2317L53.9375 41.9594L54.0177 42.013L54.3119 41.1557V41.1289Z" fill="#313945"/>
<path d="M54.5796 41.2354H54.4994L54.125 42.0123C54.125 42.0123 54.1785 42.0391 54.2052 42.0659L54.5796 41.2354V41.2354Z" fill="#313945"/>
<path d="M54.7163 41.3164L54.2885 42.0933L54.2617 42.1201L54.3419 42.1469L54.7966 41.3432L54.7163 41.3164Z" fill="#313945"/>
<path d="M54.418 42.2003L54.4715 42.2539L55.0331 41.5306L54.9796 41.4502L54.418 42.1735V42.2003Z" fill="#313945"/>
<path d="M54.5527 42.3084L54.6062 42.362L55.2213 41.6923H55.248L55.1678 41.6387L54.5527 42.3084Z" fill="#313945"/>
<path d="M54.6875 42.4404L54.741 42.494L55.4363 41.8778L55.3561 41.8242L54.6875 42.4404Z" fill="#313945"/>
<path d="M54.8242 42.5739C54.8242 42.5739 54.851 42.6275 54.8777 42.6543L55.5998 42.1185L55.5463 42.0381L54.8242 42.5739Z" fill="#313945"/>
<path d="M54.9037 42.7084V42.7887L55.7327 42.3333L55.6792 42.2529L54.877 42.7084H54.9037Z" fill="#313945"/>
<path d="M54.9779 42.8682C54.9779 42.8682 54.9779 42.9218 55.0047 42.9486L55.8337 42.5735V42.4932L54.9512 42.8682H54.9779Z" fill="#313945"/>
<path d="M55.0645 43.0574V43.1378L55.947 42.8431V42.7627L55.0645 43.0574Z" fill="#313945"/>
<path d="M55.0859 43.1909V43.2713L55.9952 43.0569V42.9766L55.0859 43.1909Z" fill="#313945"/>
<path d="M55.1127 43.3782V43.4586L55.9952 43.3782V43.2979L55.0859 43.3782H55.1127Z" fill="#313945"/>
<path d="M55.1367 43.5926H56.046V43.5391H55.1367V43.5926Z" fill="#313945"/>
<path d="M55.1172 43.9131V43.9935L55.973 44.181V44.1006L55.1172 43.9131Z" fill="#313945"/>
<path d="M56.0264 43.9121V43.8318L55.1172 43.7246V43.805L55.9997 43.9121H56.0264Z" fill="#313945"/>
<path d="M55.8882 44.4489V44.3685L55.0859 44.1006V44.181L55.8882 44.4489Z" fill="#313945"/>
<path d="M55.0072 44.2344C55.0072 44.2344 55.0072 44.288 54.9805 44.3147L55.7827 44.6898V44.6094L55.0072 44.2344Z" fill="#313945"/>
<path d="M54.9037 44.4739L55.6525 44.9026L55.706 44.849L54.9304 44.3936L54.877 44.4739H54.9037Z" fill="#313945"/>
<path d="M54.793 44.6096L55.9152 45.4394L55.9687 45.3591L54.8464 44.5293C54.8464 44.5293 54.8197 44.5828 54.793 44.5828V44.6096Z" fill="#313945"/>
<path d="M54.7409 44.6895L54.6875 44.743L56.7717 46.6703L56.8251 46.6168L54.7142 44.6895H54.7409Z" fill="#313945"/>
<path d="M54.5527 44.8758L55.9689 46.5354L56.0223 46.4819L54.6062 44.8223H54.5527V44.8758Z" fill="#313945"/>
<path d="M54.418 44.9832L56.0212 47.1247L56.0746 47.0711L54.4714 44.9297C54.4714 44.9297 54.418 44.9565 54.418 44.9832Z" fill="#313945"/>
<path d="M54.2617 45.0893L55.384 47.0166H55.4641L54.3419 45.0625H54.2617V45.0893Z" fill="#313945"/>
<path d="M54.1035 45.1717L55.1456 47.4202H55.2258L54.1837 45.1182C54.1837 45.1182 54.1302 45.1449 54.1035 45.1449V45.1717Z" fill="#313945"/>
<path d="M53.9375 45.226L54.3917 46.5644H54.4719L54.0177 45.1992H53.9375V45.226Z" fill="#313945"/>
<path d="M53.748 45.2514L54.2825 47.5534H54.3626L53.8282 45.2246H53.748V45.2514Z" fill="#313945"/>
<path d="M45.6836 60.5615C45.6836 60.5615 45.4162 60.8562 45.5767 61.1241C45.5767 61.1241 45.8441 61.4456 46.2185 61.1241C46.2185 61.1241 45.5767 61.1241 45.6836 60.5615V60.5615Z" fill="#313945"/>
<path d="M60.7539 61.1241C61.155 61.4456 61.3957 61.1241 61.3957 61.1241C61.5294 60.8562 61.2888 60.5615 61.2888 60.5615C61.3957 61.1241 60.7539 61.1241 60.7539 61.1241Z" fill="#313945"/>
<path d="M48.0302 60.2425L47.8965 60.1621L47.5488 60.7247L47.6825 60.8051C47.843 60.9122 48.0302 60.8587 48.1372 60.6979C48.2441 60.5104 48.1907 60.3496 48.0302 60.2425Z" fill="#313945"/>
<path d="M49.1572 60.8313C48.9967 60.751 48.8095 60.8313 48.7293 60.9921C48.649 61.1796 48.7293 61.3671 48.863 61.4475C49.0234 61.5279 49.2106 61.4475 49.2909 61.26C49.3711 61.0992 49.2909 60.8849 49.1304 60.8313H49.1572Z" fill="#313945"/>
<path d="M52.9805 61.8213C52.7933 61.8213 52.6596 61.9552 52.6328 62.1428C52.6328 62.3303 52.7665 62.4911 52.927 62.4911C53.0874 62.4911 53.2479 62.3571 53.2746 62.1696C53.2746 61.982 53.1409 61.8213 52.9805 61.8213Z" fill="#313945"/>
<path d="M56.0778 61.8468L55.8906 61.9004L55.9709 62.1951L56.1581 62.1415C56.1581 62.1415 56.2918 62.0343 56.265 61.954C56.265 61.8736 56.1581 61.82 56.0778 61.8468Z" fill="#313945"/>
<path d="M56.1328 61.6062C56.1328 61.6062 56.0526 61.499 55.9724 61.5258L55.7852 61.5794L55.8386 61.8205L56.0258 61.7669C56.0258 61.7669 56.1328 61.6865 56.1061 61.6062H56.1328Z" fill="#313945"/>
<path d="M57.3286 61.0717C57.3286 61.0717 57.2751 61.0717 57.2216 61.0717L57.0879 61.1253L57.1949 61.42L57.3553 61.3664C57.3553 61.3664 57.489 61.2592 57.4355 61.1521C57.4355 61.0985 57.3821 61.0717 57.3286 61.0449V61.0717Z" fill="#313945"/>
<path d="M58.457 60.6687L58.5105 60.9634L58.7512 60.8294L58.5373 60.6419L58.457 60.5615C58.457 60.5615 58.457 60.6419 58.4838 60.6955L58.457 60.6687Z" fill="#313945"/>
<path d="M60.9702 60.7227L60.703 60.6157C60.9702 60.5353 61.184 60.5086 61.3176 60.5621L60.9702 60.2677C59.7945 59.1969 58.4585 59.9464 58.4585 59.9464C57.1492 60.696 55.4391 61.3652 53.5152 61.3652C51.5914 61.3652 49.8813 60.696 48.572 59.9464C48.572 59.9464 47.2359 59.1969 46.0603 60.2677L45.7129 60.5621C45.7129 60.5621 46.0603 60.5621 46.3275 60.6157L46.0603 60.7227C46.4076 60.8566 46.274 61.1242 46.274 61.1242L46.7015 60.7495C47.5566 61.0707 48.5987 61.6864 48.5987 61.6864C49.8813 62.4627 51.6181 62.9445 53.5419 62.9445C55.4658 62.9445 57.2293 62.4627 58.4852 61.6864C58.4852 61.6864 59.5273 61.0707 60.3823 60.7495L60.8099 61.1242C60.8099 61.1242 60.6763 60.8566 61.0236 60.7227H60.9702ZM47.6635 60.9101L47.423 60.7495L47.8772 60L48.1177 60.1606C48.3582 60.2944 48.4116 60.5353 48.278 60.7495C48.1444 60.9904 47.904 61.0439 47.6635 60.9101ZM48.278 61.2581L48.1712 61.2045L48.572 60.4283L48.6788 60.4818L48.278 61.2581ZM48.8124 61.5258C48.572 61.4187 48.4918 61.151 48.5987 60.9101C48.7056 60.6692 48.9728 60.5889 49.1865 60.696C49.427 60.803 49.5072 61.0707 49.4003 61.2849C49.2934 61.5258 49.0262 61.6061 48.7857 61.499L48.8124 61.5258ZM50.0416 61.2581C50.0416 61.2581 49.9881 61.151 49.8813 61.1242C49.8011 61.0975 49.7209 61.1242 49.6942 61.1778C49.6408 61.3384 50.0416 61.4455 49.9347 61.7131C49.8813 61.847 49.7477 61.9005 49.5873 61.847C49.427 61.7667 49.3469 61.6328 49.3469 61.6328L49.4537 61.5793C49.4537 61.5793 49.5072 61.7131 49.6408 61.7399C49.7209 61.7667 49.8011 61.7399 49.8278 61.6864C49.908 61.499 49.4805 61.3919 49.5873 61.151C49.6408 61.0172 49.7744 60.9636 49.9347 61.0172C50.095 61.0707 50.1217 61.1778 50.1217 61.1778L50.0416 61.2581ZM50.763 62.2485C50.576 62.195 50.4691 62.0344 50.5225 61.847L50.6561 61.3116H50.763L50.6294 61.9005C50.6294 61.9005 50.6562 62.1147 50.7898 62.1682C50.9234 62.195 51.0302 62.1682 51.057 62.0076L51.1906 61.4722H51.2974L51.1638 62.0611C51.1104 62.2485 50.9501 62.3288 50.7363 62.2753L50.763 62.2485ZM52.0189 62.4894H51.912L51.6181 61.847L51.5646 61.7131C51.5646 61.7131 51.5646 61.7935 51.5646 61.847L51.4578 62.4091H51.3242L51.4845 61.5258H51.5914L51.8853 62.1682L51.9387 62.302C51.9387 62.302 51.9387 62.2217 51.9387 62.1682L52.0456 61.6061H52.1792L52.0189 62.4894ZM52.3395 62.5162H52.2059L52.3128 61.6328H52.4464L52.3395 62.5162ZM52.9541 62.5697C52.7136 62.5697 52.5266 62.3556 52.5266 62.0879C52.5266 61.847 52.7403 61.6596 53.0075 61.6596C53.248 61.6596 53.4351 61.8738 53.4351 62.1147C53.4351 62.3823 53.2213 62.5965 52.9541 62.5697ZM54.1565 62.5697L53.7557 62.0076L53.6755 61.8738C53.6755 61.8738 53.6755 61.9541 53.6755 62.0076V62.5697H53.5687V61.7131H53.6488L54.0496 62.2485L54.1298 62.3823C54.1298 62.3823 54.1298 62.302 54.1298 62.2485V61.6864H54.2367V62.543H54.1565V62.5697ZM54.9581 62.4894L54.8245 61.6328H54.9581L55.0917 62.3823L55.4658 62.3288V62.4359L54.9848 62.5162L54.9581 62.4894ZM55.5727 62.3823L55.3856 61.5258H55.5192L55.7063 62.3556H55.5727V62.3823ZM56.214 62.2485L55.9201 62.3288L55.7063 61.4722L56.0002 61.3919C56.1338 61.3652 56.2674 61.3919 56.2941 61.5525C56.2941 61.6328 56.2941 61.7131 56.2407 61.7667C56.2407 61.7667 56.401 61.847 56.4277 61.9273C56.4812 62.0879 56.3743 62.195 56.214 62.2485ZM56.6415 62.1147L56.3743 61.2849L56.8553 61.1242V61.2313L56.5346 61.3652L56.6148 61.6328L56.9087 61.5258V61.6328L56.6415 61.7399L56.7217 62.0076L57.0957 61.8738V61.9808L56.6148 62.1414L56.6415 62.1147ZM57.737 61.7131L57.4431 61.4722L57.2828 61.5525L57.4164 61.8738L57.3095 61.9273L56.9889 61.1242L57.2293 61.0172C57.2293 61.0172 57.3629 60.9636 57.3897 60.9636C57.4965 60.9636 57.5767 61.0172 57.6034 61.1242C57.6569 61.2313 57.6034 61.3384 57.55 61.3919H57.5767L57.8706 61.6596L57.737 61.7131ZM58.1646 61.5258L57.8439 60.8298L57.5767 60.9636L57.5233 60.8566L58.1646 60.5353L58.218 60.6424L57.9508 60.7763L58.2714 61.4722L58.1646 61.5258ZM59.0463 61.0707L58.8593 60.8833L58.5654 61.0439L58.6188 61.3116L58.5119 61.3652L58.3783 60.455L58.4852 60.4015L59.1799 61.0172L59.0731 61.0707H59.0463ZM59.5006 60.803L59.2601 60.9636L58.8058 60.2141L59.0463 60.0535C59.2601 59.9197 59.5006 59.9464 59.6609 60.1874C59.7945 60.4283 59.7411 60.6424 59.5273 60.803H59.5006Z" fill="#313945"/>
<path d="M59.04 60.1613L58.9062 60.2417L59.2539 60.8043L59.3876 60.7239C59.5481 60.6168 59.6016 60.456 59.4946 60.2685C59.3876 60.0809 59.2004 60.0541 59.04 60.1613V60.1613Z" fill="#313945"/>
</g>
<defs>
<clipPath id="clip0_3110_70184">
<rect width="86.5204" height="105.359" fill="white" transform="translate(10.2227 12.0049)"/>
</clipPath>
</defs>
</svg>
