<svg width="278" height="187" viewBox="0 0 278 187" fill="none" xmlns="http://www.w3.org/2000/svg">
<path d="M84.502 33.2256C84.5053 33.2256 84.502 1.72559 84.502 1.72559L130.252 15.9756L136.252 29.4756L203.752 53.4756L187.252 171.226L182.749 72.9756L84.502 33.2256Z" fill="url(#paint0_linear_3106_69492)"/>
<path d="M146.002 21.2256L142.252 28.7256L203.002 49.7256L197.002 37.7256L146.002 21.2256Z" fill="url(#paint1_linear_3106_69492)"/>
<path d="M58.25 60.9756L53.75 25.7256L178.25 76.7256L184.25 186.226C172.943 126.041 169.715 117.047 139.25 101.476C105.5 84.2256 104 83.4756 58.25 60.9756Z" fill="url(#paint2_linear_3106_69492)"/>
<path d="M5.75 72.9758C23.213 66.3811 36.5 60.9735 57.5 64.7236C93.5 82.7258 113 90.9756 147.5 109.726C164.06 118.726 169.25 134.476 172.25 144.976C172.25 144.976 143 129.976 128.75 122.475C134 118.725 141.633 117.519 147.5 119.475C156.5 122.475 160.25 127.725 160.25 127.725C160.25 127.725 155 120.592 148.25 117.975C137.487 113.801 120.443 118.94 113.75 127.725L5.75 72.9758Z" fill="url(#paint3_linear_3106_69492)"/>
<path d="M0.5 117.226C13.25 101.474 29 92.9743 50.75 99.7252C91.25 119.976 148.413 147.502 158.75 153.976C169.087 160.45 177.5 169.726 180.5 185.476C164.75 177.976 152 171.226 127.25 160.474C142.25 156.226 161 159.226 171.5 173.476C169.25 168.226 159.677 160.446 150.5 157.726C130.25 151.726 115.25 157.726 98.75 173.476L0.5 117.226Z" fill="url(#paint4_linear_3106_69492)"/>
<path fill-rule="evenodd" clip-rule="evenodd" d="M234.113 109.899L268.511 76.2814C270.5 74.2916 273.765 74.2916 275.754 76.2814C277.715 78.2393 277.715 81.5171 275.754 83.4751L241.305 117.144L248.498 124.337C250.453 122.325 253.786 122.325 255.741 124.337L259.312 127.909C261.301 129.899 261.301 133.164 259.312 135.154L237.735 156.786C235.745 158.775 232.481 158.775 230.491 156.786L226.87 153.214C224.88 151.225 224.88 147.959 226.87 145.97C219.224 138.322 214.758 133.888 208.432 127.606C207.392 126.574 206.303 125.492 205.141 124.337C203.151 126.327 199.938 126.327 197.948 124.337L194.327 120.715C192.365 118.757 192.365 115.479 194.327 113.521L216.056 91.9403C218.013 89.9783 221.291 89.9783 223.248 91.9403L226.87 95.5626C228.831 97.5205 228.831 100.798 226.87 102.756L234.113 109.899ZM195.504 183.976C195.504 173.719 197.241 161.476 210.504 161.476H255.504C268.767 161.476 270.504 173.719 270.504 183.976H195.504Z" fill="url(#paint5_linear_3106_69492)"/>
<defs>
<linearGradient id="paint0_linear_3106_69492" x1="209.002" y1="27.2256" x2="194.002" y2="145.726" gradientUnits="userSpaceOnUse">
<stop stop-color="#464545"/>
<stop offset="1" stop-color="#5C5C5C"/>
</linearGradient>
<linearGradient id="paint1_linear_3106_69492" x1="209.002" y1="27.2256" x2="194.002" y2="145.726" gradientUnits="userSpaceOnUse">
<stop stop-color="#464545"/>
<stop offset="1" stop-color="#5C5C5C"/>
</linearGradient>
<linearGradient id="paint2_linear_3106_69492" x1="166.25" y1="40.7256" x2="120.5" y2="114.226" gradientUnits="userSpaceOnUse">
<stop stop-color="#6A82BE"/>
<stop offset="1" stop-color="#4F67A3"/>
</linearGradient>
<linearGradient id="paint3_linear_3106_69492" x1="139.25" y1="84.2256" x2="93.4999" y2="157.726" gradientUnits="userSpaceOnUse">
<stop stop-color="#6A82BE"/>
<stop offset="1" stop-color="#4F67A3"/>
</linearGradient>
<linearGradient id="paint4_linear_3106_69492" x1="149.75" y1="131.115" x2="104" y2="204.615" gradientUnits="userSpaceOnUse">
<stop stop-color="#6A82BE"/>
<stop offset="1" stop-color="#4F67A3"/>
</linearGradient>
<linearGradient id="paint5_linear_3106_69492" x1="234.504" y1="77.4756" x2="234.504" y2="174.975" gradientUnits="userSpaceOnUse">
<stop stop-color="#6A82BE"/>
<stop offset="1" stop-color="#4F67A3"/>
</linearGradient>
</defs>
</svg>
